<svg xmlns="http://www.w3.org/2000/svg" width="50" height="50" viewBox="0 0 50 50"><path fill="#fff" d="M4.9 45l.6-1.4s1.4-3.2 2-8.4c-3.5-3.3-5.3-7.4-5.3-11.8 0-10.1 10.2-18.4 22.8-18.4s22.8 8.3 22.8 18.4c0 10.2-10.2 18.4-22.8 18.4-2.9 0-5.8-.4-8.5-1.3-4.9 2.9-10 4.1-10.3 4.1l-1.3.4zm20.1-38.5c-11.8 0-21.3 7.6-21.3 16.9 0 4 1.8 7.9 5.1 11l.2.2v.4c-.4 3.6-1.1 6.3-1.6 7.8 1.9-.5 5.4-1.7 8.7-3.8l.3-.2.3.1c2.6.9 5.4 1.3 8.3 1.3 11.8 0 21.3-7.6 21.3-16.9s-9.5-16.8-21.3-16.8zm11 20.1c-1.7 0-3.2-1.4-3.2-3.2 0-1.7 1.4-3.1 3.2-3.1 1.7 0 3.1 1.4 3.1 3.1 0 1.8-1.4 3.2-3.1 3.2zm0-4.8c-.9 0-1.7.7-1.7 1.6s.7 1.6 1.7 1.6c.9 0 1.6-.7 1.6-1.6s-.7-1.6-1.6-1.6zm-11 4.8c-1.7 0-3.2-1.4-3.2-3.2 0-1.7 1.4-3.1 3.2-3.1s3.2 1.4 3.2 3.1c0 1.8-1.5 3.2-3.2 3.2zm0-4.8c-.9 0-1.7.7-1.7 1.6s.7 1.6 1.7 1.6 1.7-.7 1.7-1.6-.8-1.6-1.7-1.6zm-11 4.8c-1.7 0-3.1-1.4-3.1-3.2 0-1.7 1.4-3.1 3.1-3.1 1.7 0 3.2 1.4 3.2 3.1 0 1.8-1.4 3.2-3.2 3.2zm0-4.8c-.9 0-1.6.7-1.6 1.6s.7 1.6 1.6 1.6c.9 0 1.7-.7 1.7-1.6s-.8-1.6-1.7-1.6z"/></svg>