<svg xmlns="http://www.w3.org/2000/svg" width="50" height="50" viewBox="0 0 50 50"><g fill="#323E50"><path d="M10 12.8v1.7c.1 3.4.1 6.4-1.6 8.1-1.1 1.1-2.9 1.6-5.5 1.6v1.5c2.6 0 4.4.5 5.5 1.6 1.7 1.7 1.6 4.7 1.6 8.1v1.7c0 5.6 6 7.1 9.2 7.1v-1.5c-.3 0-7.7-.1-7.7-5.5v-1.6c0-3.6.1-7.1-2-9.2-.6-.6-1.2-1-2-1.3.8-.3 1.5-.8 2-1.3 2.1-2.2 2.1-5.6 2-9.2v-1.6c0-5.5 7.4-5.5 7.7-5.5v-1.7c-3.2 0-9.2 1.4-9.2 7zM47 24.3c-2.6 0-4.4-.5-5.5-1.6-1.7-1.7-1.6-4.7-1.6-8.1v-1.7c0-5.6-6-7.1-9.2-7.1v1.5c.3 0 7.7.1 7.7 5.6v1.6c0 3.6-.1 7.1 2 9.2.6.6 1.2 1 2 1.3-.8.3-1.5.8-2 1.3-2.1 2.2-2.1 5.6-2 9.2v1.6c0 5.5-7.4 5.6-7.7 5.6v1.5c3.2 0 9.2-1.5 9.2-7.1v-1.7c0-3.4-.1-6.4 1.6-8.1 1.1-1.1 2.9-1.6 5.5-1.6v-1.4zm0 1.5z"/></g></svg>