<svg xmlns="http://www.w3.org/2000/svg" width="50" height="33" viewBox="0 0 50 33"><path fill="#fff" d="M47.7 0h-45.4c-1.3 0-2.3 1-2.3 2.3v28.4c0 1.3 1 2.3 2.3 2.3h45.4c1.3 0 2.3-1 2.3-2.3v-28.4c0-1.3-1-2.3-2.3-2.3zm-8.7 16.5l10.5-13.4v26.8l-10.5-13.4zm-36.7-15.9h45.4c.9 0 1.7.7 1.7 1.6l-13.5 17.3c-.7.9-2.3 1.7-3.5 1.7h-14.8c-1.2 0-2.8-.8-3.5-1.7l-13.5-17.3c0-.9.8-1.6 1.7-1.6zm8.7 15.9l-10.4 13.4v-26.8l10.4 13.4zm36.7 15.9h-45.4c-.9 0-1.7-.7-1.7-1.6l10.8-13.8 2.3 2.9c.8 1 2.6 1.9 3.9 1.9h14.8c1.3 0 3.1-.9 3.9-1.9l2.3-2.9 10.8 13.8c0 .9-.8 1.6-1.7 1.6z"/></svg>