<svg xmlns="http://www.w3.org/2000/svg" width="50" height="50" viewBox="0 0 50 50"><path fill="#2C3E50" d="M38.3 37.9l-6.6-26.1c.2-.2.3-.4.4-.7l1.1-7c.1-.6-.2-1.3-1-1.5-.9-.2-1.9-.3-2.9-.4-2.2-.1-4.3 0-6.3.4l-.5.1c-.8.2-1.1.9-1 1.4l1.1 7c0 .3.2.5.4.7l-.4 1.5-10.9 13.2 1.2 5.5 5.1-.9-1.7 6.8c-.1.6.1 1.2.5 1.6l9.6 8c.2.2.5.3.9.3.3 0 .6-.1.9-.3l9.6-8c.4-.4.6-1 .5-1.6zm-15.1-33.8c1.9-.3 3.9-.4 5.9-.3.9.1 1.7.2 2.5.3l-1 6.6c-1.4-.3-3-.4-4.5-.3-.8 0-1.5.2-2.2.3l-1-6.6h.3zm-4.1 22.5l-1.6 3.1-3.4.6-.8-3.4 8.3-10.2-2.5 9.9zm8.2 19.6l-9.1-7.5-.5-.4 6.6-26.2c.6-.1 1.2-.2 1.9-.2 1.3-.1 2.7 0 4 .2l6.6 26.2-9.5 7.9z"/></svg>