<svg xmlns="http://www.w3.org/2000/svg" width="50" height="50" viewBox="0 0 50 50"><path fill="#78CCFE" d="M16.2 13.8c-6.2 0-11.2 5-11.2 11.2s5 11.2 11.2 11.2 11.2-5 11.2-11.2-5-11.2-11.2-11.2zm-6.5 9.1h-1.8v1.5h1.5v.6h-1.5v2.3h-.8v-5h2.6v.6zm2.7 4.4h-.6l-.1-.2c-.5.2-.7.3-1 .3-.6 0-1-.4-1-1.1 0-.7.3-1 1-1.1h.9v-.4c0-.4-.2-.6-.6-.6-.2 0-.5 0-.8.1v-.5c.3-.1.6-.2 1-.2s.7.1.9.3c.2.2.3.4.3 1v2.4zm1.7 0h-.8v-3.6h.8v3.6zm-.3-4.1c-.3 0-.5-.2-.5-.5s.2-.5.5-.5.5.2.5.5c-.1.3-.2.5-.5.5zm3.2 1.2c-.2-.1-.3-.2-.6-.2-.2 0-.5.1-.6.2v2.8h-.8v-3.6h.6l.1.3c.2-.2.5-.4.7-.4.2 0 .3.1.5.2v.7zm2.4-.2h-.7v3.1h-.8v-3.1h-.4v-.4l.4-.1v-.4c0-.8.3-1.1 1.1-1.1.2 0 .5 0 .7.1v.5h-.4c-.4 0-.6.1-.6.6v.4h.7v.4zm2.7 3.1h-.6l-.1-.2c-.5.2-.7.3-1 .3-.6 0-1-.4-1-1.1 0-.7.3-1 1-1.1h.9v-.4c0-.4-.2-.6-.6-.6-.2 0-.5 0-.8.1v-.5c.3-.1.6-.2 1-.2s.7.1.9.3c.2.2.3.4.3 1v2.4zm2-1.4l-.8 1.4h-.7l1.2-1.9-1.1-1.7h.8l.7 1.2.7-1.2h.6l-1 1.7 1.2 1.9h-.9l-.7-1.4zm-12.4-.3h-.6c-.3 0-.5.2-.5.6 0 .4.2.6.6.6l.5-.1v-1.1zm9.6 1c-.2.1-.3.1-.5.1-.4 0-.6-.2-.6-.6 0-.3.2-.5.5-.6h.6v1.1zm11.1-4.4h.9v5.2h-.7v-3.9l-1.3 3.9h-.6l-1.3-3.9v3.9h-.6v-5.2h.9l1.4 4.2 1.3-4.2zm3.1 1.4c-.4 0-.8.2-1.1.5-.3.3-.4.8-.4 1.5 0 .6.1 1 .4 1.4.3.3.7.5 1.3.5.3 0 .6 0 .9-.1h.1v-.6h-.1c-.3.1-.6.1-.8.1-.8 0-1.1-.3-1.1-1.2h2.1v-.6c0-.4-.1-.8-.3-1.1-.2-.2-.5-.4-1-.4zm-.8 1.5c.1-.6.4-.9.8-.9.5 0 .7.3.7.9v.1h-1.5zm4.9-1.4c-.2-.1-.5-.2-.7-.2-.6 0-1 .3-1.3.6-.3.4-.4.9-.4 1.3 0 .5.1.9.4 1.3.3.4.7.6 1.3.6.2 0 .5-.1.8-.2v.2h.6v-5.3h-.6v1.7zm-.6.5c.2 0 .5.1.6.2v2.3c-.2.1-.4.2-.6.2-.8 0-1.1-.5-1.1-1.3 0-.9.4-1.4 1.1-1.4zm2.2-.6h.6v3.8h-.6v-3.8zm.6-1.1c.1.1.1.2.1.3 0 .2 0 .3-.1.4s-.2.1-.3.1c-.1 0-.2 0-.3-.1-.1-.1-.1-.2-.1-.3s0-.3.1-.4c.1-.1.2-.1.3-.1.1 0 .2 0 .3.1zm2.9 1.4c-.2-.2-.5-.3-.9-.3-.3 0-.6.1-.8.1h-.1v.6h.1c.2-.1.5-.1.7-.1.5 0 .6.2.6.6v.3c-.2 0-.7 0-1 .1-.6.1-1 .5-1 1.2 0 .4.1.6.3.8.2.2.5.3.8.3.3 0 .6-.1.9-.3l.1.2h.6v-2.5c0-.6-.1-.9-.3-1zm-.3 1.8v.9c-.2.1-.6.3-.8.3-.5 0-.6-.2-.6-.6 0-.3.1-.5.6-.6h.8z"/></svg>