<svg xmlns="http://www.w3.org/2000/svg" width="100%" height="100%" viewBox="0 0 50 50"><path d="M16.19 13.81c-6.18 0-11.19 5.01-11.19 11.19s5.01 11.19 11.19 11.19 11.19-5.01 11.19-11.19-5.01-11.19-11.19-11.19zm-6.49 9.08h-1.82v1.53h1.46v.58h-1.46v2.31h-.79v-4.99h2.61v.57zm2.73 4.41h-.64l-.06-.23c-.49.22-.71.28-.96.28-.6 0-.98-.43-.98-1.08 0-.65.34-1.01 1-1.08.28-.03.88-.04.88-.04v-.38c0-.41-.17-.58-.59-.58-.25 0-.48.04-.76.11v-.54c.35-.11.63-.16.97-.16.38 0 .71.1.88.28.19.19.25.45.25.99v2.43zm1.7 0h-.76v-3.62h.76v3.62zm-.38-4.12c-.3 0-.46-.16-.46-.46 0-.3.16-.47.47-.47s.46.16.46.46c0 .31-.16.47-.47.47zm3.27 1.27c-.19-.11-.32-.16-.59-.16-.2 0-.47.08-.58.21v2.8h-.76v-3.62h.64l.06.34c.16-.2.47-.4.74-.4.21 0 .34.06.47.16v.67zm2.41-.26h-.74v3.12h-.76v-3.12h-.44v-.43l.44-.07v-.42c0-.77.35-1.14 1.07-1.14.2 0 .5.03.66.06v.51l-.42-.03c-.42 0-.56.15-.56.59v.43h.74v.5zm2.67 3.11h-.64l-.06-.23c-.49.22-.71.28-.96.28-.6 0-.98-.43-.98-1.08 0-.65.34-1.01 1-1.08.28-.03.88-.04.88-.04v-.38c0-.41-.17-.58-.59-.58-.25 0-.48.04-.76.11v-.54c.35-.11.63-.16.97-.16.38 0 .71.1.88.28.19.19.25.45.25.99v2.43zm1.98-1.4l-.82 1.41h-.69l1.19-1.9-1.05-1.72h.85l.71 1.22.7-1.22h.64l-1.01 1.68 1.18 1.95h-.86l-.84-1.42zm-12.41-.29s-.43.01-.6.04c-.35.05-.52.25-.52.56 0 .38.21.57.62.57.16 0 .33-.06.5-.13v-1.04zm9.68 1.04c-.17.08-.33.13-.5.13-.41 0-.62-.19-.62-.57 0-.31.17-.51.52-.56.17-.03.6-.04.6-.04v1.04zm11.02-4.44h.92v5.19h-.66v-3.93l-1.32 3.93h-.63l-1.32-3.92v3.92h-.65v-5.19h.89l1.4 4.17 1.37-4.17zm3.16 1.38c-.43 0-.82.17-1.08.5-.26.34-.41.84-.41 1.5 0 .56.11 1.02.37 1.36.27.33.69.52 1.28.52.32 0 .63-.04.94-.11l.08-.02v-.57l-.12.02c-.28.05-.61.09-.8.09-.75-.02-1.07-.31-1.11-1.18h2.13v-.09l.02-.45c0-.42-.08-.8-.29-1.1-.19-.29-.54-.48-1.01-.47zm-.82 1.52c.06-.6.38-.94.79-.94.48.01.7.28.71.85v.09h-1.5zm4.93-1.36c-.21-.1-.46-.16-.68-.16-.61 0-1.04.26-1.31.64s-.37.87-.38 1.35c0 .47.09.94.36 1.3.26.36.69.59 1.3.59h.01c.25 0 .54-.09.75-.19l.02.06.02.07h.53v-5.33h-.63v1.67zm-.63.42c.24 0 .51.09.64.21v2.35c-.2.09-.44.16-.62.15-.79-.01-1.08-.5-1.1-1.32 0-.89.4-1.39 1.08-1.39zm2.16-.53h.63v3.76h-.63v-3.76zm.59-1.18c.08.08.12.19.12.35 0 .16-.04.28-.12.35s-.18.09-.27.09c-.09 0-.19-.01-.27-.09-.08-.08-.11-.19-.11-.35s.04-.28.12-.35c.08-.08.18-.09.27-.09.07.01.17.02.26.09zm2.94 1.4c-.18-.18-.49-.28-.86-.28-.3 0-.63.07-.82.14l-.06.02v.58l.13-.05c.18-.07.51-.12.7-.11.49.02.58.17.59.6v.33c-.21.01-.75.04-.97.07-.61.05-1.02.49-1.01 1.19 0 .36.12.64.32.83.2.19.48.28.78.28h.01c.32 0 .55-.06.94-.27l.06.21h.49v-2.5c0-.58-.12-.85-.3-1.04zm-.33 1.8v.95c-.17.12-.57.27-.75.27-.46-.02-.58-.19-.6-.59.01-.32.13-.5.58-.58.14-.02.57-.04.77-.05z"/></svg>