<svg xmlns="http://www.w3.org/2000/svg" width="50" height="50" viewBox="0 0 50 50"><g fill="#2C3E50"><path d="M30.3 27.2c-1.2 0-2.2 1.4-2.2 3.1 0 1.7 1 3.1 2.2 3.1 1.2 0 2.2-1.4 2.2-3.1 0-1.7-1-3.1-2.2-3.1zM19.7 27.2c-1.2 0-2.2 1.4-2.2 3.1 0 1.7 1 3.1 2.2 3.1 1.2 0 2.2-1.4 2.2-3.1 0-1.7-1-3.1-2.2-3.1zM38.2 19.1c.3-3.7-1.1-7.8-1.1-7.8s-4.1.9-7.8 3.6c-1.4-.2-2.8-.3-4.3-.3s-2.9.1-4.3.3c-3.7-2.7-7.8-3.6-7.8-3.6s-1.5 4-1.1 7.8c-1.6 1.6-2.5 3.7-2.5 6.2 0 6.8 1.9 13.5 15.7 13.5 13.9 0 15.7-6.7 15.7-13.5 0-2.5-.9-4.6-2.5-6.2zm-13.2 17.8c-11.2 0-11.8-4.1-11.4-7.6.7-6.4 7.3-4.6 11.4-4.6 4.1 0 10.7-1.9 11.4 4.6.4 3.4-.2 7.6-11.4 7.6z"/></g></svg>