<svg xmlns="http://www.w3.org/2000/svg" width="50" height="50" viewBox="0 0 50 50"><path fill="#2C3E50" d="M29.5 33.2s-1.2 1-3.4-1.3-4.9-.2-8-2.6-1-4.8-3.4-7.6c0 0-4.6 2.6-5.9 4.4-1.3 1.7-.9-1.9 1.6-5.3 2.6-3.3 15.8-10.1 20.6-8.4 4.7 1.6 5.6 15.4-1.5 20.8z"/><path fill="#959EA7" d="M41.1 19s.5-1-.4-2.1c0 0 1.1-3.4-2.3-3.6 0 0-1.1-.8-2.7-1.2 0 0-.2-1.1-.2-2.1.5-1 .3-2.8.2-3.7-.1-1.1-2.2-1-2.2-1s-2.1-.1-2.2 1c-.1.9-.2 2.4.1 3.4s-.2 1.4-.6 2c0 0-1.1-.1-2.2 0 0 0-3-.7-3.7 2.5 0 0-1.2.2-1.5 1.7-.4 1.6-1.3.6-1 2.5.4 1.9 1.7 2.4 2.9 2.9 1.1.5 2.2 1.1 2.6 1.5 0 0-.1.6.7 1.2 0 0-.2.6.9.7 0 0-1.7 3.6-.8 6.7 0 0-1.8 1.4-1.9 4.7v3.8s-.3.5-.4 1c-.1.5-.3.7-.5 1-.2.3-.7 1.4.2 2 .9.6 1.5.5 1.8.5.3 0 1.8.2 1.8-.9s-.3-1-.3-1.7 0-.6-.1-1.1c0 0 .1-.5.1-1.3s.5-1.8.8-2.5c.3-.7.8-1.4.8-3.5 0 0 .4-.3.6-1.1 0 0 1.4-.8 1.7-1.8 0 0 .3.5.5 2 0 0-1.7.9-1.3 2.6.5 1.7 3.7 1 4.3-1.4.5-.9.5-1.3.4-2.2 0 0 1-.9.7-4.1-.2-2-.3-2.7-.3-2.7s.5.4 1.3.4 1.5-1.6 1.5-2c0 0 1.2-1.1 1.2-2.6.4-1.3-.5-1.5-.5-1.5zm-10.6 3.1c-.3-.2-1-.2-1-.2s-.8-.7-1.1-1.7c-.3-1-.7-1.6-.7-1.6.3-.1.6-.3.6-.3 1 1.1 2 1.6 2 1.6.2.8.2 2.2.2 2.2zm8.5.1c-1-.1-1.4.2-1.4.2.1-1.9.4-2.4.4-2.4.3.2.5.2.5.2-.5 1.2.5 1.8.5 1.8v.2z"/><path fill="#2C3E50" d="M28 11.8s.7.1 1.5.7 1.5.1 2.5.2c.9.1 2.2.5 3.3.2 1.1-.3 1.4-.3 2.9.7 0 0 .5-.3 1.2-.1 0 0-.2-.6-.9-.4 0 0-.2-.5-.9-.4 0 0-.5-.8-1.4-.8-.9 0-.8.7-1.8.7-1.7 0-2.8-1.3-4-1.3 0 0-.6 0-.8.5-.1 0-.9-.7-1.6 0zM34.4 34.7s-.8.1-1.5-.2c-.7-.3-.6-.2-.5.8.1 1 .6 2.1.8 2.9.3.7.5 1.7.1 3-.3 1.2-1 2.1 1 2.1s4.6.3 5.8.3c1.1 0 1.6-.9.5-1.1l-3.8-2s-.2-2.7.1-4.2c.3-1.5.8-2.1-.3-1.9l-2.2.3z"/></svg>