<svg xmlns="http://www.w3.org/2000/svg" width="50" height="50" viewBox="0 0 50 50"><path fill="#323E50" d="M41.9 12v-1h-1v-1h-2.3v-1.7c0-1.5-1.2-2.8-2.8-2.8-1.5 0-2.8 1.2-2.8 2.8v1.7h-16.1v-1.7c0-1.5-1.2-2.8-2.8-2.8-1.5 0-2.8 1.2-2.8 2.8v1.7h-2.2v1h-1v1h-1.9v32.5h37.5v-32.5h-1.8zm-7.3-3.7c0-.7.6-1.2 1.2-1.2.7 0 1.2.6 1.2 1.2v6.9c0 .7-.6 1.2-1.2 1.2-.7 0-1.2-.6-1.2-1.2v-6.9zm-21.7 0c0-.7.6-1.2 1.2-1.2.7 0 1.2.6 1.2 1.2v6.9c0 .7-.6 1.2-1.2 1.2-.7 0-1.2-.6-1.2-1.2v-6.9zm29.4 34.7h-34.6v-29.5h3.7v1.7c0 1.5 1.2 2.8 2.8 2.8 1.5 0 2.8-1.2 2.8-2.8v-1.7h16.1v1.7c0 1.5 1.2 2.8 2.8 2.8 1.5 0 2.8-1.2 2.8-2.8v-1.7h3.7l-.1 29.5zm-31.8-13.7h7.3v-7.3h-7.3v7.3zm1.5-5.7h4.3v4.3h-4.3v-4.3zm9.4 5.7h7.3v-7.3h-7.3v7.3zm1.5-5.7h4.3v4.3h-4.3v-4.3zm9.3 5.7h7.3v-7.3h-7.3v7.3zm1.5-5.7h4.3v4.3h-4.3v-4.3zm-23.2 16.6h7.3v-7.3h-7.3v7.3zm1.5-5.8h4.3v4.3h-4.3v-4.3zm9.4 5.8h7.3v-7.3h-7.3v7.3zm1.5-5.8h4.3v4.3h-4.3v-4.3zm9.3 5.8h7.3v-7.3h-7.3v7.3zm1.5-5.8h4.3v4.3h-4.3v-4.3z"/></svg>