<svg xmlns="http://www.w3.org/2000/svg" xmlns:xlink="http://www.w3.org/1999/xlink" width="100%" height="100%" viewBox="0 0 50 50"><defs><path id="a" d="M16.5 24.3c-4.3 1.4-7.3 3.7-8.5 4.5h.6s3.7-2.7 8-3.9c2.4-.7 5.4-1 8.9-1 2.1 0 4 .2 5.7.6 5.3 1.2 9.4 4.4 9.4 4.4h2.3c-1.5-.9-5.2-4.2-11.7-5.3-1.7-.3-3.4-.5-5.8-.5-3.4.1-6.5.5-8.9 1.2"/></defs><use xlink:href="#a" overflow="visible" opacity=".3"/><clipPath><use xlink:href="#a" overflow="visible" opacity=".3"/></clipPath><path d="M7.1 21.2v1.4h-1.8v-1.4h-.3v3.4h.3v-1.6h1.8v1.6h.4v-3.4zM10 21.1c.5 0 1 .2 1.3.5.4.4.5.8.5 1.3s-.2.9-.5 1.3c-.4.4-.8.5-1.3.5s-1-.2-1.3-.5c-.4-.4-.5-.8-.5-1.3 0-.3.1-.6.2-.9.2-.3.4-.5.7-.7.3-.2.6-.2.9-.2m0 .3c-.3 0-.5.1-.7.2-.2.1-.4.3-.5.5-.1.2-.2.5-.2.8 0 .4.1.8.4 1.1.3.3.6.4 1 .4.3 0 .5-.1.8-.2.2-.1.4-.3.5-.5.1-.2.2-.5.2-.8 0-.3-.1-.5-.2-.8s-.3-.4-.5-.5c-.3-.1-.5-.2-.8-.2"/><path d="M12.6 21.2h.4v2.6c0 .1.1.3.1.3.1.1.2.2.3.2.1.1.3.1.4.1.1 0 .2 0 .3-.1.1 0 .2-.1.3-.2l.2-.3v-2.6h.3v2.1c0 .3 0 .6-.1.8-.1.2-.2.4-.4.5s-.4.2-.7.2c-.3 0-.5-.1-.7-.2-.2-.1-.3-.3-.4-.5 0-.1-.1-.4-.1-.7v-2.2zM15.4 24l.3-.2c.2.4.5.6.7.6.1 0 .2 0 .3-.1.1-.1.2-.1.2-.2.1-.1.1-.2.1-.3 0-.1 0-.2-.1-.3-.1-.2-.3-.3-.6-.6-.3-.2-.5-.4-.5-.5-.1-.2-.2-.3-.2-.5s0-.3.1-.4l.3-.3c.1-.1.3-.1.4-.1.2 0 .3 0 .5.1.1.1.3.2.5.4l-.3.2c-.1-.2-.2-.3-.3-.3-.1-.1-.2-.1-.3-.1-.1 0-.3 0-.3.1-.2.1-.2.2-.2.4v.2c0 .1.1.1.2.2 0 0 .2.2.4.3.3.2.5.4.6.6.1.2.2.3.2.5 0 .3-.1.5-.3.7-.2.2-.4.3-.7.3-.2 0-.4-.1-.6-.2-.1 0-.3-.2-.4-.5"/><path d="M18.2 21.2h2v.3h-1.7v1.1h1.7v.3h-1.7v1.4h1.7v.3h-2zM23.8 21.1c.5 0 1 .2 1.3.5.4.4.5.8.5 1.3s-.2.9-.5 1.3c-.4.4-.8.5-1.3.5s-1-.2-1.3-.5c-.4-.4-.5-.8-.5-1.3 0-.3.1-.6.2-.9.2-.3.4-.5.7-.7.2-.2.6-.2.9-.2m0 .3c-.3 0-.5.1-.7.2-.2.1-.4.3-.5.5-.1.2-.2.5-.2.8 0 .4.1.8.4 1.1.3.3.6.4 1 .4.3 0 .5-.1.8-.2.2-.1.4-.3.5-.5.1-.2.2-.5.2-.8 0-.3-.1-.5-.2-.8-.1-.2-.3-.4-.5-.5-.3-.1-.5-.2-.8-.2"/><path d="M26.3 21.2h1.8v.3h-1.4v1.1h1.4v.3h-1.4v1.7h-.4zM29.7 21.2h1.9v.6h-.6v2.9h-.7v-2.9h-.6zM32.1 21.2h.7c.4 0 .7 0 .8.1.2.1.3.2.4.3.1.2.2.3.2.6 0 .2-.1.4-.2.6s-.3.3-.5.3l.8 1.6h-.7l-.8-1.5h-.1v1.5h-.7v-3.5zm.7 1.3h.2c.2 0 .4 0 .4-.1.1-.1.1-.1.1-.3 0-.1 0-.1-.1-.2 0-.1-.1-.1-.2-.1h-.6000000000000001v.7zM35.7 21.2h.7l1.3 3.5h-.7l-.3-.7h-1.4l-.3.7h-.7l1.4-3.5zm.4.9l-.5 1.2h.9l-.4-1.2zM37.3 21.2h.7l.9 2.4.9-2.4h.7l-1.3 3.5h-.6zM40.8 21.2h1.9v.6h-1.3v.6h1.3v.7h-1.3v.9h1.3v.7h-1.9zM43.4 21.2h.6v2.8h1v.7h-1.6z"/></svg>