<svg xmlns="http://www.w3.org/2000/svg" width="50" height="50" viewBox="0 0 50 50"><g fill="#2C3E50"><path d="M15.1 34.9c6.5 6.5 15.9 7.7 20.9 2.7l3.3-3.3c-5.7 3.4-13.2 3.8-20.3-3.3-7.1-7.1-6.8-14.6-3.3-20.3l-3.3 3.3c-5.1 5-3.9 14.4 2.7 20.9zM30.1 19.9c2.8 2.8 6.9 3.2 9.1.9l1.5-1.5c-2.6 1.6-6.2 1.1-8.7-1.4-2.5-2.5-3-6.1-1.4-8.7l-1.5 1.5c-2.1 2.3-1.8 6.4 1 9.2zM23.3 26.7c4.6 4.6 11.2 5.3 14.8 1.8l2.3-2.3c-4.1 2.5-9.2 2.6-14.2-2.3-5-5-4.8-10.1-2.4-14.2l-2.3 2.3c-3.6 3.6-2.8 10.2 1.8 14.7z"/></g></svg>