<svg xmlns="http://www.w3.org/2000/svg" width="50" height="50" viewBox="0 0 50 50"><g fill="#2C3E50"><path d="M42.3 41.7c-1.2-2.4-4-3.5-5.8-5.4 1.6-.5 3.3-.7 5-1-.1-1.5-2.1-2.7-3.3-3.6-2.1-1.6-5.1-1.6-6.3-4.1-1.2-2.5-2-5.2-3.3-7.6-1.8-3.3-4.5-5.8-7.6-7.8-1.4-1-2.7-1.8-4.5-2.1-2-.4-2.4-.4-4.2-1.4-1.1-.6-2.8-1.4-4-.7-3 1.6 1.5 5.7 2.1 7.5.5 1.4 1 2.8 1.6 4.1.4.8 1.4 1.2 1.2 2 .2.9-.7 2.8-.8 3.7-.1.9-.1 1.8 0 2.6s.2 1.8.5 2.6c1 2.7 3.2 3.2 3.9.5 0-.5.1-1.1.3-1.6 1.3 2.5 3.7 4.8 6 6.3-2.4-3-4.5-6-5.9-9.6-.9 1.8-1.2 3.7-2 5.4-2-1.2-1.9-6.1-1.6-7.7.2-1 1.1-2.6.3-3.4-1.5-1.5-1.6-3.8-2.5-5.7 0-.5-4.4-5.8-2-5.8 1.9 0 3.2 1.7 4.8 2.3 1.5.6 3.2.4 4.7 1.3 4.7 2.7 7.7 6.6 10 11.4 1.5 3.2 2.1 5.6 5.2 6.9 2.1.8 3.8 2 5.4 3.6-1.8.3-3.7.5-5.3 1.3 1.9 3.7 5.8 3.9 8.4 6.7-.1-.3-.2-.5-.3-.7zm-26.9-10.2zm-.1 0zm24.9 3.6c0-.1.1 0 0 0zM14.5 13.7s1 1 1.3 2.2c0 0 .9-1 .3-1.7-.6-.6-.7-.6-1.6-.5z"/></g></svg>