<svg xmlns="http://www.w3.org/2000/svg" width="50" height="50" viewBox="0 0 50 50"><g fill="#78CCFE"><path d="M14.5 27.6v-6.2l-2 .7.8.5v5c0 .3-.4.5-.8.5v.1h2.8v-.2c-.4 0-.8-.2-.8-.4zM24.3 27.6v-9.6l-2 .7.8.5v8.4c0 .3-.4.5-.8.5v.1h2.8v-.2c-.5 0-.8-.2-.8-.4zM7 27.6v-6.2l-2 .7.8.5v5c0 .2-.3.4-.8.4v.1h2.8v-.1c-.5 0-.8-.2-.8-.4zM11.2 27.6v-4c0-1.1-.6-2.1-1.7-2.1-.8 0-2.1.9-2.3 1.6.3-.4.9-.7 1.4-.7.8 0 1.4.7 1.4 1.5v3.7c0 .3-.4.5-.8.5v.1h2.8v-.2c-.4 0-.8-.2-.8-.4zM39.9 27.6v-6.2l-2 .7.8.5v5c0 .3-.4.5-.8.5v.1h2.8v-.2c-.4 0-.8-.2-.8-.4zM44.2 27.6v-4c0-1.1-.6-2.1-1.7-2.1-.8 0-2.1.9-2.3 1.6.3-.4.9-.7 1.4-.7.8 0 1.4.7 1.4 1.5v3.7c0 .3-.4.5-.8.5v.1h2.8v-.2c-.4 0-.8-.2-.8-.4z"/><circle cx="13.9" cy="19.4" r=".7"/><path d="M21.6 23.7c0-.7-.3-1.3-.8-1.7-.5-.4-1.1-.6-1.9-.6-1.7 0-3 1.5-3 3.4s1.3 3.4 3 3.4c1.1 0 1.9-.5 2.4-1.2.2-.3.3-.6.3-.9-.4.9-1.2 1.2-2 1.2-1.5 0-2.6-1.3-2.6-2.8 0-1.6.8-2.8 1.9-2.8 0 0 1.3 0 1.3 1.3 0 0 0 .6-.6.6h-1.9l-.1.2h4zM37.3 23.7c0-.7-.3-1.3-.8-1.7-.5-.4-1.1-.6-1.9-.6-1.7 0-3 1.5-3 3.4s1.3 3.4 3 3.4c1.1 0 1.9-.5 2.4-1.2.2-.3.3-.6.3-.9-.4.9-1.2 1.2-2 1.2-1.5 0-2.6-1.3-2.6-2.8 0-1.6.8-2.8 1.9-2.8 0 0 1.3 0 1.3 1.3 0 0 0 .6-.6.6h-1.9l-.1.2h4zM30.3 23.5l-.1-1.8s-.6-.4-1.9-.4c-1.3 0-2.3.8-2.3 1.9 0 1.1.7 1.6 1.7 1.9 1 .3 1.9.2 1.9 1.4s-.8 1.5-1.5 1.5-1.5-.3-2.2-2.2v1.9s.8.4 2.2.4 2.6-.6 2.6-2.1-1.3-1.8-2.4-2c-1-.2-1.5-.5-1.5-1.2s.6-1.3 1.3-1.3c.8 0 1.3.5 1.6 1.1.4.5.6.9.6.9z"/><circle cx="6.3" cy="31.3" r=".7"/><circle cx="43.7" cy="31.3" r=".7"/><circle cx="39" cy="31.3" r=".7"/><circle cx="34.3" cy="31.3" r=".7"/><circle cx="29.6" cy="31.3" r=".7"/><circle cx="25" cy="31.3" r=".7"/><circle cx="20.3" cy="31.3" r=".7"/><circle cx="15.6" cy="31.3" r=".7"/><circle cx="11" cy="31.3" r=".7"/></g></svg>