<svg xmlns="http://www.w3.org/2000/svg" width="50" height="27" viewBox="0 0 50 27"><g fill="#fff"><path d="M41.3 2.6h-32.4c-.2 0-.3.1-.3.3v21.1c0 .2.1.3.3.3h32.4c.2 0 .3-.1.3-.3v-21.1c0-.1-.1-.3-.3-.3zm3.7-2.6h-40c-2.7 0-5 2.2-5 5v17c0 2.7 2.2 5 5 5h40c2.7 0 5-2.2 5-5v-17c0-2.8-2.2-5-5-5zm-40.7 15.1c-1 0-1.7-.8-1.7-1.7 0-1 .8-1.7 1.7-1.7 1 0 1.7.7 1.7 1.7s-.7 1.7-1.7 1.7zm37.8 8.9c0 .5-.4.8-.8.8h-32.4c-.5 0-.8-.4-.8-.8v-21.1c0-.5.4-.8.8-.8h32.4c.5 0 .8.4.8.8v21.1zm4-8.1c0 .1-.1.3-.3.3s-.3-.1-.3-.3v-5c0-.1.1-.3.3-.3s.3.1.3.3v5z"/><circle cx="4.3" cy="13.5" r="1.2"/></g></svg>