<svg xmlns="http://www.w3.org/2000/svg" width="50" height="27" viewBox="0 0 50 27"><path fill="#fff" d="M4.3 11.8c-1 0-1.7.8-1.7 1.7 0 1 .8 1.7 1.7 1.7 1 0 1.7-.7 1.7-1.7s-.7-1.7-1.7-1.7zm0 2.9c-.7 0-1.2-.5-1.2-1.2s.5-1.2 1.2-1.2 1.2.5 1.2 1.2-.5 1.2-1.2 1.2zm40.7-14.7h-40c-2.7 0-5 2.2-5 5v17c0 2.7 2.2 5 5 5h40c2.7 0 5-2.2 5-5v-17c0-2.8-2.2-5-5-5zm4.5 22c0 2.5-2 4.4-4.4 4.4h-40.1c-2.5 0-4.4-2-4.4-4.4v-17c-.1-2.5 1.9-4.5 4.4-4.5h40c2.5 0 4.4 2 4.4 4.4l.1 17.1zm-8.2-19.9h-32.4c-.5 0-.8.4-.8.8v21.1c0 .5.4.8.8.8h32.4c.5 0 .8-.4.8-.8v-21.1c0-.4-.3-.8-.8-.8zm.3 21.9c0 .2-.1.3-.3.3h-32.4c-.2 0-.3-.1-.3-.3v-21.1c0-.2.1-.3.3-.3h32.4c.2 0 .3.1.3.3v21.1zm4.2-13.3c-.1 0-.3.1-.3.3v5c0 .1.1.3.3.3s.3-.1.3-.3v-5c0-.1-.1-.3-.3-.3z"/></svg>