<svg xmlns="http://www.w3.org/2000/svg" width="50" height="50" viewBox="0 0 50 50"><g fill="#2C3E50"><path d="M13.9 22.1c1.2 0 1.9.2 2.3.6.4.4.5 1.2.3 2.2-.2 1.1-.6 1.8-1.2 2.3-.6.5-1.5.7-2.7.7h-1.8l1.1-5.8h2zm-7.4 11.7h3l.7-3.7h2.6c1.1 0 2.1-.1 2.8-.4.7-.2 1.4-.6 2-1.2.5-.5.9-1 1.2-1.5.3-.6.5-1.2.7-1.9.3-1.7.1-2.9-.7-3.9s-2.1-1.4-3.8-1.4h-5.8l-2.7 14zM21.9 16.2h3l-.7 3.7h2.7c1.7 0 2.8.3 3.5.9.6.6.8 1.5.6 2.9l-1.3 6.5h-3.1l1.2-6.2c.1-.7.1-1.2-.2-1.4-.2-.3-.7-.4-1.5-.4h-2.4l-1.5 8h-3l2.7-14zM37.6 22.1c1.2 0 1.9.2 2.3.6.4.4.5 1.2.3 2.2-.2 1.1-.6 1.9-1.2 2.3-.6.5-1.5.7-2.7.7h-1.8l1.1-5.8h2zm-7.4 11.7h3l.7-3.7h2.6c1.1 0 2.1-.1 2.8-.4.7-.2 1.4-.6 2-1.2.5-.5.9-1 1.2-1.5.3-.6.5-1.2.7-1.9.3-1.7.1-2.9-.7-3.9-.8-.9-2.1-1.4-3.8-1.4h-5.8l-2.7 14z"/></g></svg>