<svg xmlns="http://www.w3.org/2000/svg" width="100%" height="100%" viewBox="0 0 50 50"><g><path d="M13.91 16.09c-4.92 0-8.91 3.99-8.91 8.91s3.99 8.91 8.91 8.91 8.91-3.99 8.91-8.91c-.01-4.92-4-8.91-8.91-8.91zm0 16.84c-4.38 0-7.93-3.55-7.93-7.93s3.55-7.93 7.93-7.93 7.93 3.55 7.93 7.93-3.55 7.93-7.93 7.93zM43.57 30.21c-.46-.17-.84-.33-.84-.71 0-.33.26-.56.71-.56.29 0 .48.06.6.14l-.04.22c0 .23.18.46.5.46.26 0 .46-.19.46-.51 0-.55-.66-.98-1.51-.98-.92 0-1.51.57-1.51 1.29 0 .85.6 1.12 1.44 1.42.46.16.84.34.84.71 0 .39-.32.62-.82.62-.3 0-.55-.08-.72-.19.04-.08.06-.17.06-.28 0-.22-.2-.45-.5-.45-.29 0-.48.21-.48.54 0 .55.73 1.06 1.63 1.06.94 0 1.61-.49 1.61-1.36 0-.84-.62-1.13-1.43-1.42m-9.69.31l-.44-.01v-1.46h.42c.63 0 1.03.23 1.03.71-.01.47-.43.76-1.01.76m-4.73.29l.64-1.8.64 1.8h-1.28zm11.8-1.76h.57v-.7h-1.24l-1.4 2.54-1.4-2.54h-1.25v.7h.57l-.14 3.16h-1.12l-.7-1.24c.5-.2.86-.65.86-1.24 0-.93-.75-1.38-1.79-1.38h-1.77v.7h.52v3.16h-.92l-1.14-3.17h.5v-.69h-2.58v.69h.5l-1.14 3.17h-.39v.7h1.75v-.69h-.55l.26-.75h1.7l.26.75h-.53v.69h3.62v-.7h-.57v-1.03l.37.01.28-.02.92 1.74h2.97v-.7h-.55l.09-2.35 1.3 2.29h.1l1.3-2.29.09 2.35h-.55v.7h1.87v-.7h-.52l-.15-3.16zm-15.18-.01h1.31v.61h.75v-1.3h-3.36v.7h.52v3.16h-.52v.7h1.91v-.7h-.6v-1.19h1.35v-.67h-1.35v-1.31zM33.58 25.13l-.45-.01v-1.46h.42c.63 0 1.03.23 1.03.71.01.47-.41.76-1 .76m5.14-1.48h.57v2.16l-2.25-2.86h-1.18v.7h.52v3.16h-1.14l-.7-1.24c.5-.2.86-.65.86-1.24 0-.93-.75-1.38-1.79-1.38h-1.77v.7h.52v3.16h-.52v.7h1.87v-.7h-.57v-1.03l.38.01.28-.01.92 1.73h3v-.7h-.57v-2.45l2.49 3.17.42-.02v-3.87h.5v-.7h-1.83v.71zm-7.95 3.17h-1.36v-1.29h1.38v-.66h-1.38v-1.22h1.35v.61h.75v-1.31h-3.4v.7h.52v3.16h-.52v.7h3.41v-1.3h-.75v.61zm-6.3-3.17h.52v3.16h-.52v.7h1.9v-.7h-.6v-1.19h1.34v-.67h-1.34v-1.3h1.31v.61h.75v-1.31h-3.36v.7zm17.8-3.91l-.44-.01v-1.46h.42c.63 0 1.03.23 1.03.71 0 .47-.42.76-1.01.76m-1.22 1.68h-.59v-.6h-.75v.61h-1.36v-1.29h1.38v-.67h-1.38v-1.22h1.35v.61h.75v-.6h.6v3.16zm2.18-1.24c.5-.2.86-.65.86-1.24 0-.93-.75-1.38-1.8-1.38h-6.79v.7h.51l-.98 2.5-.99-2.5h.48v-.7h-1.8v.7h.42l1.66 3.91h.44l1.66-3.91h.68v3.16h-.52v.7h5.35v-.7h-.57v-1.02l.38.01.28-.01.92 1.73h1.05v-.7h-.52l-.72-1.25zm-9.63.61h-.76v.64h-1.25v-3.17h.6v-.7h-1.91v.7h.52v3.16h-.52v.7h3.31v-1.33zm-3.67.63h-.55v-3.16h.55v-.7h-1.89v.7h.55v3.16h-.55v.7h1.89v-.7zm-3.81.79c.93 0 1.61-.49 1.61-1.36 0-.84-.62-1.13-1.44-1.42-.46-.17-.84-.33-.84-.71 0-.33.26-.56.71-.56.28 0 .48.06.6.14-.03.06-.05.11-.05.22 0 .23.18.46.5.46.26 0 .46-.19.46-.51 0-.55-.66-.99-1.51-.99-.92 0-1.51.57-1.51 1.3 0 .84.59 1.12 1.44 1.42.46.16.84.34.84.71 0 .4-.32.62-.82.62-.3 0-.55-.08-.72-.19.04-.08.06-.17.06-.28 0-.22-.19-.45-.5-.45-.29 0-.48.21-.48.54.02.55.75 1.06 1.65 1.06M41.2 23.2h.12c.06 0 .09.02.09.07s-.03.07-.1.07h-.11v-.14zm.23.2c.06-.03.1-.07.1-.14l-.05-.11-.15-.04h-.24v.52h.11v-.21h.12l.08.21h.12l-.09-.23zm.13.24c-.07.07-.16.11-.26.11s-.19-.04-.26-.11-.11-.16-.11-.27c0-.1.04-.19.11-.26.07-.08.16-.11.26-.11s.19.04.26.11.11.16.11.26c0 .11-.04.2-.11.27m.06-.58c-.09-.09-.19-.13-.31-.13s-.23.04-.32.13-.13.19-.13.32c0 .12.04.23.13.32s.19.13.32.13c.12 0 .23-.04.31-.13.09-.09.13-.19.13-.32s-.05-.24-.13-.32"/><path d="M18.46 20.21c-1.09 0-1.04.76-1.04.85s.02.76.76.76c.91 0 .64-1.02.64-1.02s.33.27.33.74c0 .38-.11.84-1.21 1.02-.06.26-.16.6-.35.83 0 0 .06-.4.02-.79-.21.02-.46.03-.73.03 0 .41-.07.92-.35 1.09 0 0 .01-.57-.1-1.09l-.73.01c.02.38-.01 1.07-.36 1.45 0 0 .07-.78-.17-1.43l-.87.07c.09.44.11 1.01-.21 1.55 0 0 .03-.72-.36-1.48-.31.05-.64.11-.96.18.19.51.32 1.09.16 1.7 0 0-.21-.81-.76-1.54-.35.1-.7.22-1.04.37.43.56.67 1.11.6 1.68 0 0-.27-.71-1.21-1.39-.3.16-.6.34-.89.54.47.42.9.93 1.03 1.68 0 0-.35-.67-1.69-1.15-.25.23-.49.48-.72.76.79.58 1.3.96 1.5 1.6 0 0-.74-.63-2.06-.79-.17.29-.32.6-.46.93 0 0 1.77.37 1.94 1.3 0 0-.38 1.2.11 2.75 0 0 .42 1.16 1.52 1.43 1.1.28 5.66.06 3.1.06 0 0-3.9.07-3.9-3.32 0-2.67 2.71-4.32 5.35-4.91 2.63-.59 4.42-1.22 4.42-3.02 0 .02.02-1.45-1.31-1.45zM16.3 24.78c.04.09.08.24.09.44 0 0-.11-.24-.31-.38l-.34.09c-.21.05-.45.11-.7.19.23.23.37.37.45.72 0 0-.44-.4-.91-.57-.28.1-.58.21-.88.34.25.13.7.55.9.92 0 0-.83-.49-1.53-.61-.28.16-.55.33-.81.53.32.1.94.35 1.53 1.1 0 0-1.2-.59-2.19-.49-.22.24-.41.51-.57.8.4-.02 1.72.2 2.29.84 0 0-1.24-.28-2.61.01-.07.29-.11.6-.11.93 0 0 1.49-.31 2.86.26 0 0 .05-2.23 2.01-3.7l2.76-2.06s-.68.29-1.93.64z"/></g></svg>