<svg xmlns="http://www.w3.org/2000/svg" width="50" height="50" viewBox="0 0 50 50"><g fill="#00CFFF"><path d="M13.9 16.1c-4.9 0-8.9 4-8.9 8.9s4 8.9 8.9 8.9 8.9-4 8.9-8.9-4-8.9-8.9-8.9zm0 16.8h-.4c-1-.1-3.5-.6-3.5-3.3 0-2.7 2.7-4.3 5.3-4.9 2.6-.6 4.4-1.2 4.4-3 0 0 0-1.5-1.3-1.5-1.1 0-1 .8-1 .8s0 .8.8.8c.9 0 .6-1 .6-1s.3.3.3.7c0 .4-.1.8-1.2 1-.1.3-.2.6-.4.8 0 0 .1-.4 0-.8h-.7c0 .4-.1.9-.3 1.1 0 0 0-.6-.1-1.1h-.7c0 .4 0 1.1-.4 1.5 0 0 .1-.8-.2-1.4-.3 0-.6 0-.9.1.1.4.1 1-.2 1.5 0 0 0-.7-.4-1.5-.3 0-.6.1-1 .2.2.5.3 1.1.2 1.7 0 0-.2-.8-.8-1.5-.3.1-.7.2-1 .4.4.6.7 1.1.6 1.7 0 0-.3-.7-1.2-1.4l-.9.5c.5.4.9.9 1 1.7 0 0-.3-.7-1.7-1.2-.3.2-.5.5-.7.8.8.6 1.3 1 1.5 1.6 0 0-.7-.6-2.1-.8l-.5.9s1.8.4 1.9 1.3c0 0-.4 1.2.1 2.7-1.7-1.3-3-3.7-3-6.3 0-4.4 3.6-7.9 7.9-7.9 4.4 0 7.9 3.6 7.9 7.9 0 4.4-3.5 7.9-7.9 7.9zM41 29h.6v-.7h-1.2l-1.4 2.5-1.4-2.5h-1.2v.7h.6l-.1 3.2h-1.1l-1-1.2c.5-.2.9-.7.9-1.2 0-.9-.7-1.4-1.8-1.4h-1.8v.6h.5v3.2h-.9l-1.1-3.2h.5v-.7h-2.6v.7h.5l-1.1 3.2h-.4v.7h1.8v-.7h-.6l.3-.8h1.7l.3.8h-.5v.7h3.5v-.7h-.6v-1h.7l.9 1.7h3v-.7h-.5l.1-2.4 1.3 2.3h.1l1.3-2.3.1 2.4h-.5v.7h1.9v-.7h-.5l-.3-3.2zm-11.8 1.8l.6-1.8.6 1.8h-1.2zm4.7-.3h-.4v-1.5h.4c.6 0 1 .2 1 .7 0 .5-.4.8-1 .8zM25.8 29h1.3v.6h.7v-1.3h-3.3v.7h.5v3.2h-.5v.7h1.9v-.7h-.6v-1.2h1.3v-.7h-1.3zM43.6 30.2c-.5-.2-.8-.3-.8-.7 0-.3.3-.6.7-.6.3 0 .5.1.6.1v.2c0 .2.2.5.5.5s.5-.2.5-.5c0-.5-.7-1-1.5-1-.9 0-1.5.6-1.5 1.3 0 .8.6 1.1 1.4 1.4.5.2.8.3.8.7 0 .4-.3.6-.8.6-.3 0-.6-.1-.7-.2l.1-.3c0-.2-.2-.5-.5-.5s-.5.2-.5.5c0 .6.7 1.1 1.6 1.1.9 0 1.6-.5 1.6-1.4-.1-.6-.7-.9-1.5-1.2zM33.6 20.8h-.8v.6h-1.2v-3.1h.6v-.7h-1.9v.7h.5v3.1h-.5v.7h3.3zM28.1 26.8v.7h3.4v-1.3h-.7v.6h-1.4v-1.3h1.4v-.6h-1.4v-1.3h1.4v.7h.7v-1.3h-3.4v.7h.5v3.1zM39.6 27.5h.4v-3.9h.5v-.6h-1.8v.7h.6v2.2l-2.3-2.9h-1.2v.7h.5v3.2h-1.1l-.7-1.2c.5-.2.9-.7.9-1.2 0-.9-.7-1.4-1.8-1.4h-1.8v.7h.5v3.2h-.5v.7h1.9v-.7h-.6v-1h.7l.9 1.7h3v-.7h-.6v-2.4l2.5 2.9zm-6-2.4h-.4v-1.5h.4c.6 0 1 .2 1 .7 0 .5-.4.8-1 .8zM34.8 22.2h.4l1.7-3.9h.7v3.2h-.6v.7h5.3v-.7h-.6v-1h.7l.9 1.7h1.1v-.7h-.5l-.7-1.2c.5-.2.9-.7.9-1.2 0-.9-.7-1.4-1.8-1.4h-6.8v.7h.5l-1 2.5-1-2.5h.5v-.7h-1.8v.7h.4l1.7 3.8zm7-3.9h.4c.6 0 1 .2 1 .7 0 .5-.4.8-1 .8h-.4v-1.5zm-3.5 1.8h1.4v-.7h-1.4v-1.2h1.4v.6h.7v-.6h.6v3.2h-.6v-.6h-.7v.6h-1.4v-1.3zM29.9 21.4h-.5v-3.1h.5v-.7h-1.9v.7h.6v3.1h-.6v.7h1.9zM26.4 26.8h-.6v-1.2h1.3v-.7h-1.3v-1.3h1.3v.7h.7v-1.3h-3.3v.7h.5v3.1h-.5v.7h1.9zM26.1 22.2c.9 0 1.6-.5 1.6-1.4 0-.8-.6-1.1-1.4-1.4-.5-.2-.8-.3-.8-.7 0-.3.3-.6.7-.6.3 0 .5.1.6.1v.2c0 .2.2.5.5.5s.5-.2.5-.5c0-.5-.7-1-1.5-1-.9 0-1.5.6-1.5 1.3 0 .8.6 1.1 1.4 1.4.5.2.8.3.8.7 0 .4-.3.6-.8.6-.3 0-.6-.1-.7-.2l.1-.3c0-.2-.2-.5-.5-.5s-.5.2-.5.5c-.1.8.6 1.3 1.5 1.3zM41.3 22.9c-.1 0-.2 0-.3.1-.1.1-.1.2-.1.3 0 .1 0 .2.1.3.1.1.2.1.3.1.1 0 .2 0 .3-.1.1-.1.1-.2.1-.3 0-.1 0-.2-.1-.3s-.2-.1-.3-.1zm.3.7c-.1.1-.2.1-.3.1s-.2 0-.3-.1-.1-.2-.1-.3c0-.1 0-.2.1-.3.1-.1.2-.1.3-.1s.2 0 .3.1c.1.1.1.2.1.3 0 .2-.1.3-.1.3zM41.5 23.2h-.30000000000000004v.5h.1v-.2h.1l.1.2h.1l-.1-.2c.1 0 .1-.1.1-.1l-.1-.2zm-.2.1h-.1v-.1h.1c.1 0 .1 0 0 .1zM16.4 25.2s-.1-.2-.3-.4l-.3.1-.8.2c.2.2.4.4.5.7 0 0-.4-.4-.9-.6l-.9.3c.3.1.7.5.9.9 0 0-.8-.5-1.5-.6-.3.2-.6.3-.8.5.3.1.9.4 1.5 1.1 0 0-1.2-.6-2.2-.5-.2.2-.4.5-.6.8.4 0 1.7.2 2.3.8 0 0-1.2-.3-2.6 0-.1.3-.1.6-.1.9 0 0 1.5-.3 2.9.3 0 0 0-2.2 2-3.7l2.8-2.1s-.7.3-1.9.6c-.1.4 0 .5 0 .7z"/></g></svg>