<svg xmlns="http://www.w3.org/2000/svg" width="100%" height="100%" viewBox="0 0 50 50"><g><path d="M44 29.05h-38c-.55 0-1-.45-1-1v-6.09c0-.55.45-1 1-1h38c.55 0 1 .45 1 1v6.09c0 .55-.45 1-1 1zm-38-7.75c-.36 0-.66.29-.66.66v6.09c0 .36.3.66.66.66h38c.36 0 .66-.29.66-.66v-6.09c0-.36-.29-.66-.66-.66h-38zM10.56 24.15c-1.36-.24-1.28-.55-1.2-.66.08-.11.38-.27.71-.09.33.18.31.39.31.39h1.3s.06-1.16-1.11-1.43c-1.17-.27-2.39.08-2.61 1.01-.23.93.46 1.47 1.03 1.65.58.18 1.17.21 1.33.66.16.44-.44.4-.44.4s-.55 0-.71-.62h-1.4s-.04 1.65 2.09 1.65 2.02-1.59 2.02-1.62.03-1.1-1.32-1.34zM18.04 23.78h1.28v3.17h-1.28zM18.04 22.52h1.28v.87h-1.28zM21.28 22.84h-1.28v.94h-.48v.72h.48v2.45h1.28v-2.45h.62v-.72h-.62zM35.16 23.78h1.28v3.17h-1.28zM35.16 22.52h1.28v.87h-1.28zM38.4 22.84h-1.28v.94h-.47v.72h.47v2.45h1.28v-2.45h.62v-.72h-.62zM41.61 23.78l-.57 1.76-.62-1.76h-1.28l1.33 3.49-.33 1h1.28l1.47-4.49zM27.18 24.46c.06-.17.43-.11.51-.07.08.04.23.09.3.28l1.1.01s0-.69-.72-.87c-.71-.18-2.22-.26-2.44.65-.22.91.65 1.14 1.45 1.29.8.16.55.78-.02.61-.37-.11-.4-.49-.4-.49h-1.16s-.03 1.22 1.8 1.22 1.64-1.22 1.5-1.58c-.32-.78-2.08-.63-1.92-1.05zM32.69 23.53c.39 0 .72.27.84.66h1.46c-.19-1.06-.96-1.86-2.31-1.86-1.3 0-2.36.93-2.36 2.38 0 1.32.81 2.39 2.36 2.39 1.51 0 2.15-.75 2.31-1.78h-1.5c-.09.42-.33.71-.79.71-.55 0-.84-.56-.84-1.25-.01-.76.36-1.25.83-1.25zM16.76 23.7c-.62-.04-1.08.16-1.31.56-.18-.33-.5-.54-.86-.56-.58-.03-1.02.14-1.26.5v-.41h-1.28v3.17h1.28v-1.82c0-.26.21-.47.48-.47s.48.21.48.47v1.82h1.28v-1.82c0-.26.21-.47.47-.47s.48.21.48.47v1.82h1.28v-2.03c0-.68-.47-1.2-1.04-1.23zM24.58 23.7c-.53-.03-.95.11-1.2.41v-1.59h-1.28v4.43h1.28v-1.81c0-.26.21-.48.48-.48s.48.21.48.48v1.82h1.28v-2.03c-.01-.68-.47-1.19-1.04-1.23z"/></g></svg>