<svg xmlns="http://www.w3.org/2000/svg" width="100%" height="100%" viewBox="0 0 50 50"><g><path fill-rule="evenodd" clip-rule="evenodd" d="M10.23 26.32c0-1-.53-1.47-1.29-1.91l-.88-.51c-.36-.21-.51-.39-.51-.6 0-.37.27-.44.6-.44.49 0 1.17.13 1.76.33v-1.51c-.53-.2-1.19-.31-1.96-.31-1.56 0-2.37.73-2.37 1.97 0 1.01.48 1.48 1.24 1.95l.99.6c.24.15.41.32.41.57 0 .37-.33.55-.72.55-.55 0-1.33-.11-1.97-.36v1.55c.68.23 1.25.32 1.99.32 1.78 0 2.71-.89 2.71-2.2zM15.08 22.89v-1.4h-1.75v-2.23l-2.05.8v1.48l-.83.13v1.21h.83v3.44c0 1.41.63 2.2 2.15 2.2.6 0 1.24-.09 1.64-.19v-1.44c-.3.07-.86.11-1.04.11-.48 0-.69-.16-.69-.73v-3.38h1.74zM21.37 28.41v-6.93h-2.05v5.33c-.19.08-.51.2-.79.2-.56 0-.81-.2-.81-1.11v-4.42h-2.05v4.34c0 .93.11 1.47.45 1.93.33.45 1.03.76 1.71.76.57 0 1.25-.21 1.64-.4l.08.29h1.82zM26.56 20.17v-1.36c-.4-.08-1.04-.17-1.64-.17-1.52 0-2.14.79-2.14 2.2v.69l-.78.13v1.23h.77v5.53h2.05v-5.53h1.31v-1.4h-1.31v-.68c0-.63.2-.73.69-.73.25-.01.7.02 1.05.09zM31.07 20.17v-1.36c-.4-.08-1.04-.17-1.64-.17-1.52 0-2.14.79-2.14 2.2v.69l-.77.13v1.23h.77v5.53h2.05v-5.53h1.31v-1.4h-1.31v-.68c0-.63.2-.73.69-.73.24-.01.7.02 1.04.09zM31.13 27.82c0-.35-.2-.55-.55-.55s-.56.21-.56.56c0 .35.2.55.55.55.35.01.56-.19.56-.56zM33.93 28.23v-.64c-.28.08-.57.11-.78.11-.41 0-.7-.26-.7-.95 0-.7.29-.96.72-.96.26 0 .45.04.76.12v-.67c-.29-.11-.57-.14-.83-.14-1.08 0-1.6.67-1.6 1.7 0 .95.44 1.58 1.49 1.58.35.01.64-.04.94-.15zM37.05 26.75c0-.94-.45-1.64-1.42-1.64s-1.43.7-1.43 1.64.46 1.64 1.43 1.64 1.42-.7 1.42-1.64zm-.94 0c0 .79-.23 1-.48 1s-.49-.21-.49-1 .23-1 .49-1 .48.21.48 1zM38.5 27.82c0-.35-.2-.55-.55-.55-.35 0-.56.21-.56.56 0 .35.2.55.55.55.36.01.56-.19.56-.56zM41.68 28.34v-1.99c0-.43-.05-.67-.21-.89-.15-.21-.47-.35-.78-.35-.26 0-.57.1-.75.18l-.04-.13h-.84v3.18h.94v-2.44c.09-.04.23-.09.36-.09.26 0 .37.09.37.51v2.03h.95zM44.6 28.34v-.64h-1.39l1.34-1.96v-.58h-2.33v.65h1.26l-1.33 1.93v.6zM37.23 29.6h7.77v1.77h-7.77zM29.17 29.6h7.77v1.77h-7.77zM21.11 29.6h7.77v1.77h-7.77zM13.06 29.6h7.77v1.77h-7.77zM5 29.6h7.77v1.77h-7.77z"/></g></svg>