<svg xmlns="http://www.w3.org/2000/svg" width="50" height="50" viewBox="0 0 50 50"><path fill-rule="evenodd" clip-rule="evenodd" fill="#323E50" d="M10.2 26.3c0-1-.5-1.5-1.3-1.9l-.9-.5c-.4-.2-.5-.4-.5-.6 0-.4.3-.4.6-.4.5 0 1.2.1 1.8.3v-1.5c-.5-.2-1.2-.3-2-.3-1.6 0-2.4.7-2.4 2 0 1 .5 1.5 1.2 1.9l1 .6c.3.1.5.3.5.6 0 .4-.3.5-.7.5-.5 0-1.3-.1-2-.4v1.5c.7.2 1.3.3 2 .3 1.8.1 2.7-.8 2.7-2.1zM15.1 22.9v-1.4h-1.7v-2.2l-2.1.8v1.5l-.8.1v1.2h.8v3.4c0 1.4.6 2.2 2.1 2.2.6 0 1.2-.1 1.6-.2v-1.4c-.2.1-.8.1-1 .1-.5 0-.7-.2-.7-.7v-3.4h1.8zM21.4 28.4v-6.9h-2.1v5.3c-.2.1-.5.2-.8.2-.6 0-.8-.2-.8-1.1v-4.4h-2.1v4.3c0 .9.1 1.5.5 1.9.3.5 1 .8 1.7.8.6 0 1.3-.2 1.6-.4l.1.3h1.9zM26.6 20.2v-1.4c-.4-.1-1-.2-1.6-.2-1.5 0-2.1.8-2.1 2.2v.7l-.9.2v1.2h.8v5.5h2.1v-5.5h1.3v-1.4h-1.3v-.7c0-.6.2-.7.7-.7.2 0 .6 0 1 .1zM31.1 20.2v-1.4c-.4-.1-1-.2-1.6-.2-1.5 0-2.1.8-2.1 2.2v.7l-.8.1v1.2h.8v5.5h2.1v-5.5h1.3v-1.4h-1.3v-.7c0-.6.2-.7.7-.7.1.1.5.1.9.2zM31.1 27.8c0-.4-.2-.5-.6-.5s-.5.2-.5.5.2.5.6.5c.3.1.5-.1.5-.5zM33.9 28.2v-.6c-.3.1-.6.1-.8.1-.4 0-.7-.3-.7-.9 0-.7.3-1 .7-1 .3 0 .5 0 .8.1v-.7c-.3-.1-.6-.1-.8-.1-1.1 0-1.6.7-1.6 1.7 0 .9.4 1.6 1.5 1.6.3 0 .6-.1.9-.2zM37 26.7c0-.9-.5-1.6-1.4-1.6s-1.4.7-1.4 1.6.5 1.6 1.4 1.6 1.4-.6 1.4-1.6zm-.9 0c0 .8-.2 1-.5 1s-.5-.2-.5-1 .2-1 .5-1 .5.3.5 1zM38.5 27.8c0-.4-.2-.5-.6-.5-.4 0-.6.2-.6.6 0 .3.2.5.6.5.4 0 .6-.2.6-.6zM41.7 28.3v-2c0-.4 0-.7-.2-.9-.2-.2-.5-.3-.8-.3-.3 0-.6.1-.8.2v-.1h-.8v3.2h.9v-2.4c.1 0 .2-.1.4-.1.3 0 .4.1.4.5v2h.9zM44.6 28.3v-.6h-1.4l1.3-2v-.5h-2.3v.6h1.3l-1.4 1.9v.6zM37.2 29.6h7.8v1.8h-7.8zM29.2 29.6h7.8v1.8h-7.8zM21.1 29.6h7.8v1.8h-7.8zM13.1 29.6h7.8v1.8h-7.8zM5 29.6h7.8v1.8h-7.8z"/></svg>