<svg xmlns="http://www.w3.org/2000/svg" width="50" height="50" viewBox="0 0 50 50"><path stroke="#2C3E50" stroke-width="1.5" stroke-miterlimit="10" d="M25 34.3c-5 0-9.1-4.1-9.1-9.1s4.1-9.1 9.1-9.1 9.1 4.1 9.1 9.1c-.1 5-4.1 9.1-9.1 9.1m21.8-6.4c.1-.9.2-1.8.2-2.7 0-.9-.1-1.8-.2-2.7l-3.7-.9-.6-2.4 2.7-2.6c-.3-.8-.7-1.6-1.2-2.4l-1.5-2.3-3.6 1.1-1.7-1.7 1.1-3.6c-.7-.5-1.5-1-2.3-1.5-.8-.5-1.6-.9-2.4-1.2l-2.6 2.7-2.5-.7-.9-3.7c-.9-.1-1.8-.2-2.7-.2s-1.8.1-2.7.2l-.9 3.7c-.8.2-2.3.6-2.3.6l-2.6-2.7c-.8.3-1.6.7-2.4 1.2l-2.3 1.5 1.1 3.6-1.8 1.8-3.6-1.1c-.5.7-1 1.5-1.5 2.3-.5.8-.9 1.6-1.2 2.4l2.7 2.6-.6 2.4-3.7.9c-.1.9-.2 1.8-.2 2.7 0 .9.1 1.8.2 2.7l3.7.9.6 2.4-2.7 2.6c.3.8.7 1.6 1.2 2.4l1.5 2.3 3.6-1.1 1.7 1.7-1.1 3.6c.7.5 1.5 1 2.3 1.5.8.5 1.6.9 2.4 1.2l2.6-2.7 2.4.6.9 3.7c.9.1 1.8.2 2.7.2.9 0 1.8-.1 2.7-.2l.9-3.7 2.4-.7 2.6 2.8c.8-.3 1.6-.7 2.4-1.2l2.3-1.5-1.1-3.6 1.7-1.7 3.6 1.1c.5-.7 1-1.5 1.5-2.3.5-.8.9-1.6 1.2-2.4l-2.7-2.6.6-2.4 3.8-.9z" fill="none"/></svg>