<svg xmlns="http://www.w3.org/2000/svg" width="50" height="50" viewBox="0 0 50 50"><path fill="#78CCFE" d="M25.6 19.1c-.1-.1-.3-.2-.8-.3-.2.2-.6.5-1.2.9-.5.3-1.6.9-1.6.9s-1.3.6-1.8 1c-.9.8-.6 1.5-.5 1.5.2 0 .4-.5 1.2-1 1.1-.8 2.3-1.5 3.8-2.1.3-.1 1-.3 1.1-.4 0-.2-.1-.4-.2-.5zM30 13.8c.1-.3.1-.4 0-.5-.1-.1-.4-.1-.4-.1-.1.1.3.6.4.6"/><path fill="#BBE5FE" d="M28.7 17.6c0-.5-.3-1-.7-1.3l-.1-.1c-.2-.2-.5-.3-.9-.3-.9 0-1.7.7-1.8 1.7 0 .7.4 1.1.5 1.3.4.4.5 1.2-.3 1.6 1-.6 2.3-1.2 3-2 .2-.1.3-.5.3-.9"/><path fill="#78CCFE" d="M24.8 16.4c-.6.4-1.8.9-3.4.5-1.9-.5-3.1-2.7-3.2-2.9-.1-.2-.3-.2-.2.1.1.3.5 1.5 1.5 2.4s2.3 1.6 4.2 1.8c1.6.1 2.1.5 2.2.6-.2-.2-.6-.6-.5-1.3 0-.9.8-1.7 1.8-1.7.3 0 .6.1.9.3-.8-.5-2.2-.6-3.3.2"/><path fill="#BBE5FE" d="M25.5 20.5c-.3.1-1.6 1-1.7 1-1 .6-1.9 1-3.1 2.2-.6.6-.5 1.5-.3 1.5s.5-.5 1.3-1.2c1.6-1.5 4.1-2.7 5.1-3.4.7-.5 1.3-1.1 1.7-2-.7.7-2 1.3-3 1.9M31.8 13.4c-.1-.1-.7-.1-1.2-.2-.2-.1-.5-.4-.6-.4s.3.5.3.6-.1.4-.2.7c-.7 1.1-1.8 1-1.9 1 .5 0 1.7 0 2.6-.7l.2-.2c.1-.1.3-.3.7-.4.2 0 .3-.4.1-.4"/><path fill="#78CCFE" d="M30 16.4c0 .2.2.9.1 1.2-.1.4.3.2.4-.3.1-.4.1-1.4.1-1.4 0-.6.1-.9.1-1.2-.2.5-.4 1.1-.7 1.7"/><path fill="#BBE5FE" d="M24.7 15.9c.4-.3 1.1-.7 2-1 .1 0 .2 0 .3-.1.1-.3.2-.6.2-.9 0-1.4-1.2-2.6-2.6-2.6s-2.6 1.2-2.6 2.6c0 1.1.7 2.1 1.7 2.4.4-.1.7-.3.9-.4h.1"/><path fill="#78CCFE" d="M30.8 14.5c-.9.7-2.2.7-2.6.7-.2 0-.8 0-1.3.1-1 .2-1.6.7-2 1 1.2-.7 2.5-.6 3.1-.2l.1.1c.4.3.6.8.7 1.3 0 .4-.1.9-.1.9.6-.6 1.1-1.4 1.5-2.1.3-.6.5-1.2.7-1.6.1-.3.2-.5.3-.5-.3.2-.4.2-.4.3"/><path fill="#78CCFE" d="M10.3 34.6c0-.1-.1-.1 0 0l-.2-.1s-.1 0-.1.1l-1.8 3.8c0 .1 0 .1.1.1h.4c.1 0 .1 0 .1-.1.2-.2.3-.4.4-.7h1.9l.4.8c0 .1.1.1.1.1h.4c.1 0 .1-.1.1-.1l-1.8-3.9zm-.8 2.6l.7-1.6.7 1.6h-1.4zM16 34.6h-.4c-.1 0-.1.1-.1.1v2.3c0 .6-.4 1-1 1s-.9-.4-.9-1v-2.4c0-.1 0-.1-.1-.1h-.4c-.1 0-.1.1-.1.1v2.4c0 .9.7 1.5 1.5 1.5.9 0 1.6-.7 1.6-1.5v-2.4h-.1M18.3 36.3c-.5-.2-.7-.4-.7-.7 0-.2.2-.5.6-.5.3 0 .7.3.8.3.1.1.2 0 .2-.1l.1-.2c.1-.1 0-.2 0-.2-.1 0-.5-.3-1.1-.3-.9 0-1.2.6-1.2 1.1 0 .7.5 1 1 1.2.6.2.9.5.9.8s-.2.5-.6.5c-.4 0-.9-.4-.9-.4-.1-.1-.1 0-.2 0s-.2.1-.2.2c-.1.1 0 .1 0 .2.1.1.5.5 1.2.5s1.3-.5 1.3-1.1c0-.8-.6-1.1-1.2-1.3M23.5 34.6h-2.9c-.1 0-.1.1-.1.1v.3c0 .1 0 .1.1.1h1.1v3.4c0 .1.1.1.1.1h.4c.1 0 .1-.1.1-.1v-3.4h1.1c.1 0 .1-.1.1-.1v-.3c.1-.1 0-.1 0-.1M27.3 35.8c0-.7-.6-1.2-1.2-1.2h-1.6c-.1 0-.1.1-.1.1v3.8c0 .1 0 .1.1.1h.4c.1 0 .1-.1.1-.1v-1.5h.9l.8 1.5s0 .1.1.1h.4c.1 0 .1-.1.1-.2l-.8-1.5c.5-.2.8-.6.8-1.1m-1.2.7h-1v-1.4h1c.4 0 .7.3.7.7 0 .4-.4.7-.7.7"/><path fill="#78CCFE" d="M30.3 34.6l-.2-.1s-.1 0-.1.1l-1.8 3.8c0 .1 0 .1.1.1h.4c.1 0 .1 0 .1-.1l.3-.8h1.9l.4.8c0 .1.1.1.1.1h.5c.1 0 .1-.1.1-.1l-1.8-3.8zm-.8 2.6l.7-1.6.7 1.6h-1.4zM35.2 38h-1.7v-3.4c0-.1-.1-.1-.1-.1h-.4c-.1 0-.1.1-.1.1v3.8c0 .1 0 .1.1.1h2.2c.1 0 .1-.1.1-.1l-.1-.4c.1.1.1 0 0 0M37 34.6h-.4c-.1 0-.1.1-.1.1v3.8c0 .1.1.1.1.1h.4c.1 0 .1-.1.1-.1v-3.8c0-.1-.1-.1-.1-.1"/><path fill="#78CCFE" d="M41.7 38.4l-1.7-3.8-.1-.1h-.1s-.1 0-.1.1l-1.8 3.8c0 .1 0 .1.1.1h.4c.1 0 .1 0 .1-.1.1-.3.2-.5.4-.8h1.9l.4.8c0 .1.1.1.1.1l.4-.1m-2.6-1.2l.7-1.6.7 1.6h-1.4zM14.3 28h-2.9c-.1 0-.1.1-.1.1v.3c0 .1 0 .1.1.1h1.1v3.4c0 .1.1.1.1.1h.4c.1 0 .1-.1.1-.1v-3.4h1.1c.1 0 .1-.1.1-.1v-.4M17 27.9c1.1 0 2.1.9 2.1 2.1s-.9 2-2.1 2c-1.1 0-2-.9-2-2s.8-2.1 2-2.1m0 3.6c.8 0 1.5-.7 1.5-1.5s-.7-1.5-1.5-1.5-1.5.7-1.5 1.5.7 1.5 1.5 1.5"/><path fill="#78CCFE" d="M19.9 28.1c0-.1.1-.1.1-.1h.4c.1 0 .1.1.1.1v2.4c0 .6.4 1 .9 1 .6 0 1-.4 1-1v-2.4c0-.1 0-.1.1-.1h.4c.1 0 .1.1.1.1v2.4c0 .9-.7 1.5-1.6 1.5s-1.5-.7-1.5-1.5v-2.4zM24.4 28.1c0-.1 0-.1.1-.1h1.5c.7 0 1.2.5 1.2 1.2 0 .5-.3 1-.8 1.2l.8 1.4c0 .1 0 .2-.1.2h-.4s-.1 0-.1-.1l-.8-1.5h-.9v1.5c0 .1-.1.1-.1.1h-.4c-.1 0-.1-.1-.1-.1v-3.8h.1zm1.6 1.8c.4 0 .7-.3.7-.7 0-.4-.3-.7-.7-.7h-1v1.4h1zM28.2 28.1c0-.1.1-.1 0 0l.5-.1c.1 0 .1.1.1.1v3.8c0 .1-.1.1-.1.1h-.4c-.1 0-.1-.1-.1-.1v-3.8zM30.1 31.4c.1-.1.1-.2.1-.2.1-.1.1-.1.2 0 0 0 .5.4.9.4s.6-.2.6-.5-.3-.6-.9-.8-1-.5-1-1.2c0-.4.3-1.1 1.2-1.1.6 0 1 .3 1.1.3 0 0 .1.1 0 .2 0 .1-.1.2-.1.2 0 .1-.1.1-.2.1 0 0-.4-.3-.8-.3-.5 0-.6.3-.6.5 0 .3.2.5.7.7.7.3 1.2.6 1.2 1.3 0 .6-.5 1.1-1.3 1.1-.7 0-1.1-.4-1.2-.5.1-.1.1-.1.1-.2"/><path fill="#78CCFE" d="M34.4 28l.2-.1s.1 0 .1.1l1.2 2.9 1.2-2.9.1-.1h.1s.1 0 .1.1l.7 3.8c0 .1 0 .1-.1.1h-.4c-.1 0-.1 0-.1-.1l-.4-2.6-1.1 2.8s0 .1-.1.1h-.1s-.1 0-.1-.1l-1-2.6-.4 2.6-.1.1h-.4c-.1 0-.1-.1-.1-.1l.7-4z"/></svg>