<svg xmlns="http://www.w3.org/2000/svg" xmlns:xlink="http://www.w3.org/1999/xlink" width="100%" height="100%" viewBox="0 0 50 50"><g><defs><path id="a" d="M11.61 24.82l-.81-3.65h-2l-.82 3.65-.8-3.71-2.14.44 1.64 6.15h2.06l.87-3.74.88 3.74h2.06l1.65-6.14-1.85-.38z"/></defs><use xlink:href="#a" overflow="visible"/><clipPath><use xlink:href="#a" overflow="visible"/></clipPath><path d="M11.61 24.82l-.81-3.65h-2l-.82 3.65-.8-3.71-2.14.44 1.64 6.15h2.06l.87-3.74.88 3.74h2.06l1.65-6.14-1.85-.38z"/><defs><path id="b" d="M15.44 26.35c0-.38.19-.85 1.01-1.04v1.25c-.21.16-.39.23-.57.23-.21 0-.44-.17-.44-.44m-1.33-3.05l.26 1.2c.48-.19.94-.3 1.42-.3.46 0 .65.17.65.51v.04c-1.82.15-2.62.69-2.62 1.76 0 .87.54 1.29 1.27 1.29.59 0 1.03-.25 1.43-.66l.1.57h1.55v-3.08c0-1.26-.7-1.67-2.08-1.67-.8-.01-1.45.13-1.98.34"/></defs><use xlink:href="#b" overflow="visible"/><clipPath><use xlink:href="#b" overflow="visible"/></clipPath><path d="M16.45 26.56c-.21.16-.39.23-.57.23-.21 0-.44-.17-.44-.44 0-.38.19-.85 1.01-1.05v1.26zm1.72 1.15v-3.08c0-1.26-.7-1.67-2.08-1.67-.8 0-1.45.14-1.98.35l.26 1.2c.48-.19.94-.3 1.42-.3.46 0 .65.17.65.51v.04c-1.82.15-2.62.69-2.62 1.76 0 .87.54 1.3 1.27 1.3.59 0 1.03-.26 1.43-.66l.1.57h1.55z"/><defs><path id="c" d="M19.1 21.79v1.23h-.6v1.35h.6v1.7c0 1.3.78 1.69 1.88 1.69.42 0 .65-.04.92-.11l-.2-1.37c-.11.04-.22.06-.33.06-.36 0-.56-.15-.56-.53v-1.44h1.05l-.29-1.35h-.76v-1.59l-1.71.36z"/></defs><use xlink:href="#c" overflow="visible"/><clipPath><use xlink:href="#c" overflow="visible"/></clipPath><path d="M20.81 24.37h1.05l-.29-1.35h-.76v-1.59l-1.71.36v1.23h-.6v1.35h.6v1.7c0 1.3.78 1.69 1.88 1.69.42 0 .65-.04.92-.11l-.2-1.37c-.11.04-.22.06-.33.06-.36 0-.56-.15-.56-.53v-1.44z"/><defs><path id="d" d="M24.38 23.82c.35 0 .57.49.59 1.17h-1.17c.01-.69.23-1.17.58-1.17m-2.26 1.58c0 1.65 1.05 2.4 2.57 2.4.74 0 1.38-.19 1.91-.48v-.03l-.23-1.05c-.5.24-1 .39-1.44.39-.56 0-.99-.2-1.08-.78h2.73c.02-.09.03-.27.03-.45 0-1.38-.65-2.46-2.16-2.46-1.36-.01-2.33.92-2.33 2.46"/></defs><use xlink:href="#d" overflow="visible"/><clipPath><use xlink:href="#d" overflow="visible"/></clipPath><path d="M24.97 24.98h-1.17c.01-.68.23-1.17.58-1.17s.57.49.59 1.17zm1.59.86c.02-.09.03-.27.03-.45 0-1.38-.65-2.46-2.16-2.46-1.34 0-2.31.93-2.31 2.47 0 1.65 1.05 2.4 2.57 2.4.74 0 1.38-.19 1.91-.48v-.03l-.23-1.05c-.51.24-1 .39-1.44.39-.56 0-.99-.2-1.08-.78h2.71z"/><defs><path id="e" d="M28.78 23.94l-.15-.92h-1.53v4.68h1.72v-2.53c.38-.28.86-.45 1.53-.51l-.37-1.72c-.63.08-.95.48-1.2 1"/></defs><use xlink:href="#e" overflow="visible"/><clipPath><use xlink:href="#e" overflow="visible"/></clipPath><path d="M29.97 22.94c-.61.08-.93.48-1.19 1l-.15-.92h-1.53v4.68h1.72v-2.53c.38-.28.86-.45 1.53-.51l-.38-1.72z"/><defs><path id="f" d="M32.47 26.52v-1.92c.19-.19.38-.32.6-.32.33 0 .55.39.55 1.08 0 .81-.36 1.22-.78 1.22-.14 0-.23-.02-.37-.06m-1.73-5.28v6.17c.53.22 1.35.35 2.14.35 1.51 0 2.45-.77 2.45-2.53 0-1.59-.69-2.31-1.65-2.31-.53 0-.93.29-1.22.59v-2.63l-1.72.36z"/></defs><use xlink:href="#f" overflow="visible"/><clipPath><use xlink:href="#f" overflow="visible"/></clipPath><path d="M33.62 25.36c0 .81-.36 1.22-.78 1.22-.14 0-.22-.02-.37-.07v-1.91c.19-.19.38-.32.6-.32.33-.01.55.39.55 1.08zm1.72-.13c0-1.59-.69-2.31-1.65-2.31-.53 0-.93.29-1.22.59v-2.63l-1.72.36v6.17c.53.22 1.35.35 2.14.35 1.51 0 2.45-.76 2.45-2.53z"/><defs><path id="g" d="M37.34 25.36c0-.67.26-1.21.7-1.21.44 0 .71.55.71 1.22s-.26 1.23-.71 1.23c-.44-.01-.7-.57-.7-1.24m-1.64.01c0 1.48.98 2.43 2.33 2.43s2.35-.96 2.35-2.44-.99-2.43-2.33-2.43c-1.35 0-2.35.96-2.35 2.44"/></defs><use xlink:href="#g" overflow="visible"/><clipPath><use xlink:href="#g" overflow="visible"/></clipPath><path d="M38.74 25.37c0 .67-.26 1.23-.71 1.23-.44 0-.7-.56-.7-1.23s.26-1.21.7-1.21c.45-.01.71.54.71 1.21zm1.64-.01c0-1.48-.99-2.43-2.33-2.43-1.35 0-2.34.96-2.34 2.44s.98 2.43 2.33 2.43c1.33 0 2.34-.96 2.34-2.44z"/><defs><path id="h" d="M40.21 23.34l1.67 4.38c-.17.3-.47.41-.79.41-.32 0-.46-.03-.62-.07l.29 1.33c.13.03.28.05.58.05 1.15 0 1.76-.48 2.21-1.76l1.5-4.33-1.52-.32h-.03l-.71 2.57-.77-2.63-1.81.37z"/></defs><use xlink:href="#h" overflow="visible"/><clipPath><use xlink:href="#h" overflow="visible"/></clipPath><path d="M45.04 23.34l-1.52-.32h-.02l-.71 2.57-.77-2.63-1.81.38 1.67 4.38c-.17.3-.47.41-.79.41-.32 0-.46-.03-.62-.07l.29 1.33c.13.03.28.05.58.05 1.15 0 1.76-.48 2.21-1.76l1.49-4.34z"/></g></svg>