<?xml version="1.0" encoding="utf-8"?>
<!-- Generator: Adobe Illustrator 16.0.0, SVG Export Plug-In . SVG Version: 6.00 Build 0)  -->
<!DOCTYPE svg PUBLIC "-//W3C//DTD SVG 1.1//EN" "http://www.w3.org/Graphics/SVG/1.1/DTD/svg11.dtd">
<svg version="1.1" id="icons" xmlns="http://www.w3.org/2000/svg" xmlns:xlink="http://www.w3.org/1999/xlink" x="0px" y="0px"
	 width="2550px" height="50px" viewBox="0 0 2550 50" enable-background="new 0 0 2550 50" xml:space="preserve">
<path fill="none" stroke="#FFFFFF" stroke-width="1.5" stroke-miterlimit="10" d="M325,5.907c-12.188,0-22.065,7.916-22.065,17.682
	c0,4.39,1.998,8.404,5.302,11.498c-0.626,5.586-2.108,9.006-2.108,9.006s5.418-1.192,10.332-4.198
	c2.626,0.895,5.512,1.375,8.54,1.375c12.188,0,22.064-7.916,22.064-17.681C347.065,13.823,337.188,5.907,325,5.907z M314.027,25.984
	c-1.326,0-2.401-1.075-2.401-2.399c0-1.326,1.075-2.402,2.401-2.402c1.321,0,2.396,1.076,2.396,2.402
	C316.427,24.909,315.353,25.984,314.027,25.984z M325,25.984c-1.326,0-2.401-1.075-2.401-2.399c0-1.326,1.075-2.402,2.401-2.402
	s2.4,1.076,2.4,2.402C327.401,24.909,326.326,25.984,325,25.984z M335.974,25.984c-1.321,0-2.396-1.075-2.396-2.399
	c0-1.326,1.075-2.402,2.396-2.402c1.325,0,2.401,1.076,2.401,2.402C338.375,24.909,337.299,25.984,335.974,25.984z"/>
<polygon fill="none" stroke="#FFFFFF" stroke-width="1.5" stroke-miterlimit="10" points="375,38.768 388.59,45.912 385.994,30.779 
	396.988,20.063 381.795,17.855 375,4.088 368.205,17.855 353.012,20.063 364.006,30.779 361.41,45.912 "/>
<g>
	<polygon fill="none" stroke="#2C3E50" stroke-width="1.5" stroke-miterlimit="10" points="245.544,6.231 229.799,6.231 
		224.04,10.84 204.456,10.84 204.456,43.77 245.544,43.77 	"/>
	<polyline fill="none" stroke="#2C3E50" stroke-width="1.5" stroke-miterlimit="10" points="241.704,6.231 223.959,6.231 
		218.2,10.84 	"/>
	<polyline fill="none" stroke="#2C3E50" stroke-width="1.5" stroke-miterlimit="10" points="237.864,6.231 218.12,6.231 
		212.359,10.84 	"/>
</g>
<g>
	
		<polygon fill="none" stroke="#2C3E50" stroke-width="1.5" stroke-linecap="round" stroke-linejoin="round" stroke-miterlimit="10" points="
		7.632,42.368 42.368,42.368 42.368,7.632 	"/>
	
		<polygon fill="none" stroke="#2C3E50" stroke-width="1.5" stroke-linecap="round" stroke-linejoin="round" stroke-miterlimit="10" points="
		35.277,35.277 35.277,24.751 24.751,35.277 	"/>
	
		<line fill="none" stroke="#2C3E50" stroke-width="1.5" stroke-linecap="round" stroke-linejoin="round" stroke-miterlimit="10" x1="25.006" y1="24.993" x2="25.659" y2="26.434"/>
	
		<line fill="none" stroke="#2C3E50" stroke-width="1.5" stroke-linecap="round" stroke-linejoin="round" stroke-miterlimit="10" x1="21.848" y1="28.15" x2="24.076" y2="30.381"/>
	
		<line fill="none" stroke="#2C3E50" stroke-width="1.5" stroke-linecap="round" stroke-linejoin="round" stroke-miterlimit="10" x1="18.689" y1="31.311" x2="19.343" y2="32.75"/>
	
		<line fill="none" stroke="#2C3E50" stroke-width="1.5" stroke-linecap="round" stroke-linejoin="round" stroke-miterlimit="10" x1="15.531" y1="34.469" x2="17.76" y2="36.697"/>
	
		<line fill="none" stroke="#2C3E50" stroke-width="1.5" stroke-linecap="round" stroke-linejoin="round" stroke-miterlimit="10" x1="12.373" y1="37.627" x2="13.025" y2="39.066"/>
	
		<line fill="none" stroke="#2C3E50" stroke-width="1.5" stroke-linecap="round" stroke-linejoin="round" stroke-miterlimit="10" x1="28.165" y1="21.834" x2="30.394" y2="24.063"/>
	
		<line fill="none" stroke="#2C3E50" stroke-width="1.5" stroke-linecap="round" stroke-linejoin="round" stroke-miterlimit="10" x1="31.323" y1="18.676" x2="31.976" y2="20.117"/>
	
		<line fill="none" stroke="#2C3E50" stroke-width="1.5" stroke-linecap="round" stroke-linejoin="round" stroke-miterlimit="10" x1="34.481" y1="15.519" x2="36.71" y2="17.746"/>
	
		<line fill="none" stroke="#2C3E50" stroke-width="1.5" stroke-linecap="round" stroke-linejoin="round" stroke-miterlimit="10" x1="37.64" y1="12.359" x2="38.293" y2="13.801"/>
</g>
<g>
	<path fill="none" stroke="#2C3E50" stroke-width="1.5" stroke-miterlimit="10" d="M69.23,6.512c0,0-8.478,0-8.478,6.303
		C60.752,19.118,61.67,25,52.956,25"/>
	<path fill="none" stroke="#2C3E50" stroke-width="1.5" stroke-miterlimit="10" d="M69.23,43.488c0,0-8.478,0-8.478-6.303
		C60.753,30.884,61.67,25,52.956,25"/>
	<path fill="none" stroke="#2C3E50" stroke-width="1.5" stroke-miterlimit="10" d="M80.771,6.512c0,0,8.477,0,8.477,6.303
		C89.248,19.118,88.33,25,97.044,25"/>
	<path fill="none" stroke="#2C3E50" stroke-width="1.5" stroke-miterlimit="10" d="M80.771,43.488c0,0,8.477,0,8.477-6.303
		C89.247,30.884,88.33,25,97.044,25"/>
</g>
<g>
	<path fill="none" stroke="#2C3E50" stroke-width="1.5" stroke-linecap="round" stroke-miterlimit="10" d="M119.311,35.727
		c2.998,2.734,5.677,1.688,5.677,1.688s1.157,3.416,6.728,3.416c2.255,0,4.233-0.945,5.562-2.312c0,0,5.551,1.369,7.835-5.336
		c1.725-1.104,3.199-2.849,3.425-5.604c0.153-1.884-0.436-3.301-1.418-4.372c0,0,0.524-5.09-3.629-6.404
		c0,0-1.312-3.838-5.676-3.574c0,0-2.366-3.207-7.149-2.155"/>
	<path fill="none" stroke="#2C3E50" stroke-width="1.5" stroke-linecap="round" stroke-miterlimit="10" d="M122.938,13.176
		c0,0-7.358-5.203-12.878,1.577c0,0-3.784-0.262-4.152,4.1c0,0-4.468,4.469-4.468,9.883s3.259,9.303,11.669,4.887
		c0,0,3.627,3.891,8.41,1.367"/>
	<path fill="none" stroke="#2C3E50" stroke-width="1.5" stroke-linecap="round" stroke-miterlimit="10" d="M117.419,11.285
		c0,0,5.046-3.312,10.196-0.053"/>
	<path fill="none" stroke="#2C3E50" stroke-width="1.5" stroke-linecap="round" stroke-miterlimit="10" d="M124.619,9.97
		c0,0,4.837-2.26,7.885,0.841"/>
	<path fill="none" stroke="#2C3E50" stroke-width="1.5" stroke-linecap="round" stroke-miterlimit="10" d="M125.794,15.822
		c0,0,1.888-1.615,5.116-0.209c0,0,3.328-1.822,4.881,1.893c0,0,2.449-0.469,3.647,1.823"/>
	<path fill="none" stroke="#2C3E50" stroke-width="1.5" stroke-linecap="round" stroke-miterlimit="10" d="M128.292,22.14
		c-1.508-2.031-3.385-1.562-3.385-1.562c-1.458-2.396-3.801-2.188-3.801-2.188s-1.715-0.013-2.842,1.216"/>
	<path fill="none" stroke="#2C3E50" stroke-width="1.5" stroke-linecap="round" stroke-miterlimit="10" d="M110.221,19.902
		c0,0,1.512-3.594,6.146-3.594c0.661,0,1.257,0.087,1.791,0.236"/>
	<path fill="none" stroke="#2C3E50" stroke-width="1.5" stroke-linecap="round" stroke-miterlimit="10" d="M115.351,27.387
		c0,0,0.911,1.647,3.82,2.418c2.907,0.771,3.609,1.402,4.17,2.943"/>
	<path fill="none" stroke="#2C3E50" stroke-width="1.5" stroke-linecap="round" stroke-miterlimit="10" d="M122.289,31.102
		c0,0,1.786,0.736,3.751,0.315c1.962-0.421,0.454,2.243,3.993,2.872c3.541,0.631,1.997,0.035,3.259,1.789"/>
	<path fill="none" stroke="#2C3E50" stroke-width="1.5" stroke-linecap="round" stroke-miterlimit="10" d="M130.35,27.982
		c0,0-0.98-2.104-3.681-2.146c-2.698-0.025-1.857-1.786-4.1-1.366c-2.243,0.42-2.137,0.211-2.382-0.842
		c-0.245-1.051-0.912-0.209-2.769-1.191"/>
	<path fill="none" stroke="#2C3E50" stroke-width="1.5" stroke-linecap="round" stroke-miterlimit="10" d="M130.841,19.152
		c0,0,1.506,2.487,0.698,3.504c-0.805,1.017,2.139,0.42,1.58,2.348"/>
	<path fill="none" stroke="#2C3E50" stroke-width="1.5" stroke-linecap="round" stroke-miterlimit="10" d="M135.991,21.429
		c0,0-2.732,1.156-0.141,2.664c2.594,1.507,1.507,3.679,3.399,4.136c1.892,0.455,2.452,1.058,2.487,2.487"/>
	<path fill="none" stroke="#2C3E50" stroke-width="1.5" stroke-linecap="round" stroke-miterlimit="10" d="M144.191,24.792
		c0,0-0.071,2.349-1.647,2.56c0,0,1.262-0.246,2.277,0.455"/>
	<path fill="none" stroke="#2C3E50" stroke-width="1.5" stroke-linecap="round" stroke-miterlimit="10" d="M111.986,27.316
		c-1.086-3.542,3.015-2.803,3.015-2.803"/>
	<path fill="none" stroke="#2C3E50" stroke-width="1.5" stroke-linecap="round" stroke-miterlimit="10" d="M112.058,25.074
		c0,0-1.473-0.35-2.488-1.998"/>
	<path fill="none" stroke="#2C3E50" stroke-width="1.5" stroke-linecap="round" stroke-miterlimit="10" d="M105.539,29.875
		c0,0,2.594-1.928,3.995,1.156"/>
</g>
<g>
	<path fill="none" stroke="#2C3E50" stroke-width="1.5" stroke-miterlimit="10" d="M178.454,11.497c0.279,0,0.543-0.227,0.587-0.502
		l0.12-0.77l0.732-4.675l0.245-1.562c0,0,0.088-0.467-0.447-0.578c-0.915-0.176-1.857-0.3-2.818-0.369
		c-0.618-0.045-1.241-0.067-1.872-0.067c-1.426,0-2.822,0.115-4.164,0.341c-0.177,0.031-0.354,0.062-0.528,0.096
		c-0.534,0.109-0.446,0.58-0.446,0.58l0.685,4.368l0.412,2.636c0.044,0.275,0.309,0.502,0.588,0.502"/>
	<path fill="none" stroke="#2C3E50" stroke-width="1.5" stroke-miterlimit="10" d="M185.244,38.118l-0.974-3.879l-1.098-4.373
		l-1.099-4.373l-1.099-4.373l-1.098-4.373l-1.098-4.373l-0.225-0.894c-1.072-0.239-2.279-0.374-3.555-0.374
		c-0.374,0-0.741,0.013-1.102,0.035c-0.869,0.055-1.695,0.17-2.454,0.339l-0.54,2.146l-1.676,6.677l-1.677,6.676l-1.678,6.687
		l-1.12,4.461c-0.068,0.271,0.053,0.642,0.269,0.812l0.431,0.355l3.183,2.645l3.183,2.646l2.789,2.312
		c0.216,0.182,0.567,0.182,0.783,0.002l9.586-7.959C185.192,38.756,185.313,38.389,185.244,38.118z"/>
	<polyline fill="none" stroke="#2C3E50" stroke-width="1.5" stroke-miterlimit="10" points="167.52,26.964 165.729,30.372 
		161.229,31.195 160.221,26.734 170.9,13.621 	"/>
</g>
<g>
	<polyline fill="none" stroke="#2C3E50" stroke-width="1.5" stroke-miterlimit="10" points="287.813,12.74 293.022,12.74 
		293.022,43.729 256.978,43.729 256.978,12.74 262.187,12.74 	"/>
	<line fill="none" stroke="#2C3E50" stroke-width="1.5" stroke-miterlimit="10" x1="266.188" y1="12.74" x2="283.813" y2="12.74"/>
	<line fill="none" stroke="#2C3E50" stroke-width="1.5" stroke-miterlimit="10" x1="258.083" y1="11.74" x2="262.187" y2="11.74"/>
	<line fill="none" stroke="#2C3E50" stroke-width="1.5" stroke-miterlimit="10" x1="287.813" y1="11.74" x2="291.917" y2="11.74"/>
	<line fill="none" stroke="#2C3E50" stroke-width="1.5" stroke-miterlimit="10" x1="266.188" y1="11.74" x2="283.813" y2="11.74"/>
	<line fill="none" stroke="#2C3E50" stroke-width="1.5" stroke-miterlimit="10" x1="259.121" y1="10.74" x2="262.187" y2="10.74"/>
	<line fill="none" stroke="#2C3E50" stroke-width="1.5" stroke-miterlimit="10" x1="287.813" y1="10.74" x2="290.879" y2="10.74"/>
	<line fill="none" stroke="#2C3E50" stroke-width="1.5" stroke-miterlimit="10" x1="266.188" y1="10.74" x2="283.813" y2="10.74"/>
	
		<rect x="261.303" y="22.82" fill="none" stroke="#2C3E50" stroke-width="1.5" stroke-miterlimit="10" width="5.77" height="5.767"/>
	
		<rect x="272.116" y="22.82" fill="none" stroke="#2C3E50" stroke-width="1.5" stroke-miterlimit="10" width="5.768" height="5.767"/>
	
		<rect x="282.929" y="22.82" fill="none" stroke="#2C3E50" stroke-width="1.5" stroke-miterlimit="10" width="5.77" height="5.767"/>
	
		<rect x="261.303" y="33.634" fill="none" stroke="#2C3E50" stroke-width="1.5" stroke-miterlimit="10" width="5.77" height="5.767"/>
	
		<rect x="272.116" y="33.634" fill="none" stroke="#2C3E50" stroke-width="1.5" stroke-miterlimit="10" width="5.768" height="5.767"/>
	
		<rect x="282.929" y="33.634" fill="none" stroke="#2C3E50" stroke-width="1.5" stroke-miterlimit="10" width="5.77" height="5.767"/>
	<path fill="none" stroke="#2C3E50" stroke-width="1.5" stroke-miterlimit="10" d="M262.187,8.272c0-1.104,0.896-2,2-2s2,0.896,2,2
		v6.936c0,1.104-0.896,2-2,2s-2-0.896-2-2V8.272z"/>
	<path fill="none" stroke="#2C3E50" stroke-width="1.5" stroke-miterlimit="10" d="M283.813,8.272c0-1.104,0.896-2,2-2s2,0.896,2,2
		v6.936c0,1.104-0.896,2-2,2s-2-0.896-2-2V8.272z"/>
</g>
<g>
	<g>
		<path fill="none" stroke="#FFFFFF" stroke-width="0.5" stroke-linejoin="round" d="M448.376,16.931
			c0-2.448-2.003-4.451-4.452-4.451h-37.848c-2.449,0-4.452,2.002-4.452,4.451v16.135c0,2.449,2.003,4.453,4.452,4.453h37.848
			c2.449,0,4.452-2.004,4.452-4.453V16.931z M404.073,25c0-0.766,0.619-1.386,1.385-1.386c0.765,0,1.385,0.62,1.385,1.386
			c0,0.766-0.62,1.384-1.385,1.384C404.692,26.384,404.073,25.766,404.073,25z M409.816,35.532c-0.289,0-0.524-0.235-0.524-0.523
			V14.99c0-0.29,0.235-0.525,0.524-0.525h30.598c0.288,0,0.523,0.235,0.523,0.525v20.019c0,0.288-0.235,0.523-0.523,0.523H409.816
			L409.816,35.532z"/>
	</g>
	
		<line fill="none" stroke="#FFFFFF" stroke-width="0.5" stroke-linecap="round" x1="444.657" y1="22.645" x2="444.657" y2="27.355"/>
</g>
<g>
	<path fill="none" stroke="#FFFFFF" stroke-width="0.5" stroke-miterlimit="10" d="M496.48,12.539c0-0.961-0.785-1.746-1.745-1.746
		H455.26c-0.962,0-1.748,0.785-1.748,1.746v24.922c0,0.961,0.786,1.746,1.748,1.746h39.476c0.96,0,1.745-0.785,1.745-1.746V12.539z"
		/>
	<g>
		<path fill="none" stroke="#FFFFFF" stroke-width="0.5" stroke-miterlimit="10" d="M453.52,12.539l11.832,15.247
			c0.682,0.868,2.127,1.58,3.229,1.58h6.423"/>
	</g>
	<g>
		<path fill="none" stroke="#FFFFFF" stroke-width="0.5" stroke-miterlimit="10" d="M496.48,12.539l-11.83,15.246
			c-0.682,0.869-2.127,1.58-3.229,1.58H475"/>
	</g>
	<g>
		<line fill="none" stroke="#FFFFFF" stroke-width="0.5" stroke-miterlimit="10" x1="453.52" y1="37.461" x2="463.19" y2="25"/>
	</g>
	<g>
		<line fill="none" stroke="#FFFFFF" stroke-width="0.5" stroke-miterlimit="10" x1="496.48" y1="37.461" x2="486.812" y2="25"/>
	</g>
</g>
<g>
	<path fill="none" stroke="#FFFFFF" stroke-width="1.5" stroke-miterlimit="10" d="M1740.598,36.673l-7.879-6.7
		c-0.812-0.729-1.686-1.07-2.389-1.037c1.861-2.179,2.984-5,2.984-8.094c0-6.888-5.584-12.473-12.478-12.473
		c-6.889,0-12.473,5.585-12.473,12.473c0,6.889,5.584,12.473,12.473,12.473c3.088,0,5.916-1.123,8.094-2.979
		c-0.026,0.703,0.31,1.574,1.037,2.393l6.701,7.879c1.146,1.271,3.021,1.383,4.164,0.236
		C1741.982,39.693,1741.873,37.818,1740.598,36.673z"/>
	
		<line fill="none" stroke="#FFFFFF" stroke-width="1.5" stroke-miterlimit="10" x1="1720.842" y1="15.157" x2="1720.842" y2="26.525"/>
	
		<line fill="none" stroke="#FFFFFF" stroke-width="1.5" stroke-miterlimit="10" x1="1726.527" y1="20.842" x2="1715.156" y2="20.842"/>
</g>
<g>
	<rect x="1100" y="31.047" fill="#FFFFFF" width="50" height="18.953"/>
</g>
<g>
	<rect x="1150" y="31.047" fill="#FFFFFF" width="50" height="18.953"/>
</g>
<g>
	<rect x="1200" y="31.047" fill="#FFFFFF" width="50" height="18.953"/>
</g>
<g>
	<rect x="1250" y="31.047" fill="#FFFFFF" width="50" height="18.953"/>
</g>
<g>
	<rect x="1300" y="31.047" fill="#FFFFFF" width="50" height="18.953"/>
</g>
<g>
	<rect x="1350" y="31.047" fill="#FFFFFF" width="50" height="18.953"/>
</g>
<g>
	<rect x="1400" y="31.047" fill="#FFFFFF" width="50" height="18.953"/>
</g>
<g>
	<rect x="1450" y="31.047" fill="#FFFFFF" width="50" height="18.953"/>
</g>
<g>
	<rect x="1500" y="31.047" fill="#FFFFFF" width="50" height="18.953"/>
</g>
<g>
	<rect x="1550" y="31.047" fill="#FFFFFF" width="50" height="18.953"/>
</g>
<g>
	<rect x="1600" y="31.047" fill="#FFFFFF" width="50" height="18.953"/>
</g>
<g>
	<rect x="1650" y="31.047" fill="#FFFFFF" width="50" height="18.953"/>
</g>
<rect x="511.666" y="11.666" fill="#3FA9F5" width="26.668" height="26.668"/>
<rect x="655.333" y="17" fill="#3FA9F5" width="39.334" height="16"/>
<circle fill="#3FA9F5" cx="575" cy="25" r="14"/>
<polygon fill="#3FA9F5" points="610.543,37.52 625,12.48 639.457,37.52 "/>
<polygon fill="#3FA9F5" points="715.967,38.334 710.385,21.152 725,10.533 739.615,21.152 734.033,38.334 "/>
<polygon fill="#3FA9F5" points="775,34.146 784.027,38.893 782.304,28.839 789.606,21.72 779.514,20.253 775,11.107 770.486,20.253 
	760.394,21.72 767.696,28.839 765.973,38.893 "/>
<rect x="811.657" y="11.666" fill="#3FA9F5" width="26.668" height="26.668"/>
<rect x="955.324" y="17" fill="#3FA9F5" width="39.334" height="16"/>
<circle fill="#3FA9F5" cx="874.991" cy="25" r="14"/>
<polygon fill="#3FA9F5" points="910.534,37.52 924.991,12.48 939.448,37.52 "/>
<polygon fill="#3FA9F5" points="1015.958,38.334 1010.376,21.152 1024.991,10.533 1039.605,21.152 1034.024,38.334 "/>
<polygon fill="#3FA9F5" points="1074.991,34.146 1084.02,38.893 1082.295,28.839 1089.598,21.72 1079.505,20.253 1074.991,11.107 
	1070.479,20.253 1060.385,21.72 1067.688,28.839 1065.964,38.893 "/>
<polygon fill="#3FA9F5" points="1125,43.53 1127.967,45.09 1127.4,41.786 1129.801,39.445 1126.483,38.964 1125,35.958 
	1123.517,38.964 1120.199,39.445 1122.6,41.786 1122.033,45.09 "/>
<polygon fill="#3FA9F5" points="1175,43.53 1177.967,45.09 1177.4,41.786 1179.801,39.445 1176.483,38.964 1175,35.958 
	1173.517,38.964 1170.199,39.445 1172.6,41.786 1172.033,45.09 "/>
<polygon fill="#3FA9F5" points="1225,43.53 1227.967,45.09 1227.4,41.786 1229.801,39.445 1226.483,38.964 1225,35.958 
	1223.517,38.964 1220.199,39.445 1222.6,41.786 1222.033,45.09 "/>
<polygon fill="#3FA9F5" points="1275,43.53 1277.967,45.09 1277.4,41.786 1279.801,39.445 1276.483,38.964 1275,35.958 
	1273.517,38.964 1270.199,39.445 1272.6,41.786 1272.033,45.09 "/>
<polygon fill="#3FA9F5" points="1325,43.53 1327.967,45.09 1327.4,41.786 1329.801,39.445 1326.483,38.964 1325,35.958 
	1323.517,38.964 1320.199,39.445 1322.6,41.786 1322.033,45.09 "/>
<polygon fill="#3FA9F5" points="1375,43.53 1377.967,45.09 1377.4,41.786 1379.801,39.445 1376.483,38.964 1375,35.958 
	1373.517,38.964 1370.199,39.445 1372.6,41.786 1372.033,45.09 "/>
<polygon fill="#3FA9F5" points="1425,43.53 1427.967,45.09 1427.4,41.786 1429.801,39.445 1426.483,38.964 1425,35.958 
	1423.517,38.964 1420.199,39.445 1422.6,41.786 1422.033,45.09 "/>
<polygon fill="#3FA9F5" points="1475,43.53 1477.967,45.09 1477.4,41.786 1479.801,39.445 1476.483,38.964 1475,35.958 
	1473.517,38.964 1470.199,39.445 1472.6,41.786 1472.033,45.09 "/>
<polygon fill="#3FA9F5" points="1525,43.53 1527.967,45.09 1527.4,41.786 1529.801,39.445 1526.483,38.964 1525,35.958 
	1523.517,38.964 1520.199,39.445 1522.6,41.786 1522.033,45.09 "/>
<polygon fill="#3FA9F5" points="1575,43.53 1577.967,45.09 1577.4,41.786 1579.801,39.445 1576.483,38.964 1575,35.958 
	1573.517,38.964 1570.199,39.445 1572.6,41.786 1572.033,45.09 "/>
<polygon fill="#3FA9F5" points="1625,43.53 1627.967,45.09 1627.4,41.786 1629.801,39.445 1626.483,38.964 1625,35.958 
	1623.517,38.964 1620.199,39.445 1622.6,41.786 1622.033,45.09 "/>
<polygon fill="#3FA9F5" points="1675,43.53 1677.967,45.09 1677.4,41.786 1679.801,39.445 1676.483,38.964 1675,35.958 
	1673.517,38.964 1670.199,39.445 1672.6,41.786 1672.033,45.09 "/>
<g>
	<polygon fill="#FFFFFF" points="1837.13,25.001 1846.73,37.359 1846.73,12.646 	"/>
	<path fill="#FFFFFF" d="M1815.549,27.632c0.624,0.804,2.012,1.483,3.029,1.483h6.423h6.423c1.018,0,2.405-0.68,3.029-1.483
		l12.182-15.676c-0.252-0.815-1.003-1.414-1.896-1.414h-39.471c-0.894,0-1.643,0.591-1.896,1.4L1815.549,27.632z"/>
	<polygon fill="#FFFFFF" points="1812.873,25 1803.27,12.627 1803.27,37.386 	"/>
	<path fill="#FFFFFF" d="M1836.812,25.408l-1.968,2.529c-0.718,0.926-2.254,1.678-3.424,1.678H1825h-6.423
		c-1.17,0-2.706-0.752-3.424-1.678l-1.965-2.53l-9.816,12.659c0.258,0.804,1.005,1.391,1.896,1.391h39.47
		c0.895,0,1.646-0.596,1.896-1.409L1836.812,25.408z"/>
</g>
<g>
	<path fill="#FFFFFF" d="M1790.403,14.716h-30.599c-0.15,0-0.273,0.124-0.273,0.275V35.01c0,0.15,0.123,0.273,0.273,0.273h30.599
		c0.149,0,0.272-0.123,0.272-0.273V14.991C1790.677,14.839,1790.554,14.716,1790.403,14.716z"/>
	<path fill="#FFFFFF" d="M1793.924,12.23h-37.848c-2.594,0-4.702,2.109-4.702,4.701v16.135c0,2.594,2.108,4.703,4.702,4.703h37.848
		c2.593,0,4.702-2.109,4.702-4.703V16.931C1798.626,14.339,1796.517,12.23,1793.924,12.23z M1755.458,26.634
		c-0.901,0-1.635-0.733-1.635-1.634c0-0.902,0.732-1.636,1.635-1.636s1.635,0.734,1.635,1.636
		C1757.093,25.9,1756.359,26.634,1755.458,26.634z M1791.177,35.01c0,0.426-0.347,0.773-0.772,0.773h-30.599
		c-0.427,0-0.773-0.348-0.773-0.773V14.991c0-0.428,0.348-0.775,0.773-0.775h30.599c0.427,0,0.772,0.348,0.772,0.775V35.01z
		 M1794.907,27.355c0,0.138-0.112,0.25-0.25,0.25s-0.25-0.112-0.25-0.25v-4.711c0-0.138,0.112-0.25,0.25-0.25s0.25,0.112,0.25,0.25
		V27.355z"/>
</g>
<circle fill="#FFFFFF" cx="1755.458" cy="24.999" r="1.135"/>
<g>
	<circle fill="none" stroke="#2C3E50" stroke-width="2" stroke-miterlimit="10" cx="1875" cy="25" r="20"/>
	<polyline fill="none" stroke="#2C3E50" stroke-width="2" stroke-miterlimit="10" points="1877.896,33.811 1869.086,25 
		1877.896,16.191 	"/>
</g>
<path fill="#2C3E50" d="M1925,4c-11.579,0-21,9.42-21,21s9.421,21,21,21s21-9.421,21-21S1936.579,4,1925,4z M1928.603,33.104
	l-1.414,1.414L1917.672,25l9.517-9.517l1.414,1.414L1920.5,25L1928.603,33.104z"/>
<g>
	<circle fill="none" stroke="#2C3E50" stroke-width="2" stroke-miterlimit="10" cx="1975" cy="25" r="20"/>
	<polyline fill="none" stroke="#2C3E50" stroke-width="2" stroke-miterlimit="10" points="1972.104,33.811 1980.914,25 
		1972.104,16.191 	"/>
</g>
<path fill="#2C3E50" d="M2025,4c-11.579,0-21,9.42-21,21s9.421,21,21,21s21-9.421,21-21S2036.579,4,2025,4z M2022.811,34.518
	l-1.414-1.414L2029.5,25l-8.104-8.103l1.414-1.414l9.518,9.517L2022.811,34.518z"/>
<g>
	<circle fill="none" stroke="#2C3E50" stroke-width="2" stroke-miterlimit="10" cx="2075" cy="25.006" r="20"/>
	
		<line fill="none" stroke="#2C3E50" stroke-width="2" stroke-miterlimit="10" x1="2081.893" y1="18.115" x2="2068.108" y2="31.898"/>
	
		<line fill="none" stroke="#2C3E50" stroke-width="2" stroke-miterlimit="10" x1="2081.893" y1="31.898" x2="2068.108" y2="18.114"/>
</g>
<path fill="#2C3E50" d="M2125,4.006c-11.579,0-21,9.42-21,21s9.421,21,21,21s21-9.42,21-21S2136.579,4.006,2125,4.006z
	 M2132.6,31.191l-1.414,1.414l-6.185-6.186l-6.186,6.186l-1.414-1.414l6.186-6.185l-6.186-6.186l1.414-1.414l6.186,6.186
	l6.185-6.185l1.414,1.414l-6.185,6.185L2132.6,31.191z"/>
</svg>
