<?xml version="1.0" encoding="utf-8"?>
<!-- Generator: Adobe Illustrator 16.0.0, SVG Export Plug-In . SVG Version: 6.00 Build 0)  -->
<!DOCTYPE svg PUBLIC "-//W3C//DTD SVG 1.1//EN" "http://www.w3.org/Graphics/SVG/1.1/DTD/svg11.dtd">
<svg version="1.1" id="icons" xmlns="http://www.w3.org/2000/svg" xmlns:xlink="http://www.w3.org/1999/xlink" x="0px" y="0px"
	 width="1050px" height="50px" viewBox="0 0 1050 50" enable-background="new 0 0 1050 50" xml:space="preserve">
<path fill="none" stroke="#FFFFFF" stroke-width="1.5" stroke-miterlimit="10" d="M325,5.907c-12.187,0-22.065,7.916-22.065,17.682
	c0,4.39,1.998,8.404,5.302,11.498c-0.626,5.586-2.108,9.006-2.108,9.006s5.418-1.192,10.332-4.198
	c2.626,0.888,5.512,1.375,8.54,1.375c12.187,0,22.064-7.916,22.064-17.681C347.065,13.823,337.187,5.907,325,5.907z M314.027,25.984
	c-1.326,0-2.401-1.075-2.401-2.399c0-1.326,1.075-2.402,2.401-2.402c1.326,0,2.4,1.076,2.4,2.402
	C316.427,24.909,315.353,25.984,314.027,25.984z M325,25.984c-1.326,0-2.401-1.075-2.401-2.399c0-1.326,1.075-2.402,2.401-2.402
	s2.4,1.076,2.4,2.402C327.401,24.909,326.326,25.984,325,25.984z M335.974,25.984c-1.326,0-2.4-1.075-2.4-2.399
	c0-1.326,1.075-2.402,2.4-2.402c1.325,0,2.401,1.076,2.401,2.402C338.375,24.909,337.299,25.984,335.974,25.984z"/>
<polygon fill="none" stroke="#FFFFFF" stroke-width="1.5" stroke-miterlimit="10" points="375,38.768 388.59,45.912 385.994,30.779 
	396.988,20.063 381.795,17.855 375,4.088 368.205,17.855 353.012,20.063 364.006,30.779 361.41,45.912 "/>
<g>
	<polygon fill="none" stroke="#2C3E50" stroke-width="1.5" stroke-miterlimit="10" points="245.544,6.231 229.799,6.231 
		224.04,10.84 204.456,10.84 204.456,43.77 245.544,43.77 	"/>
	<polyline fill="none" stroke="#2C3E50" stroke-width="1.5" stroke-miterlimit="10" points="241.704,6.231 223.959,6.231 
		218.2,10.84 	"/>
	<polyline fill="none" stroke="#2C3E50" stroke-width="1.5" stroke-miterlimit="10" points="237.864,6.231 218.12,6.231 
		212.359,10.84 	"/>
</g>
<g>
	
		<polygon fill="none" stroke="#2C3E50" stroke-width="1.5" stroke-linecap="round" stroke-linejoin="round" stroke-miterlimit="10" points="
		7.632,42.368 42.368,42.368 42.368,7.632 	"/>
	
		<polygon fill="none" stroke="#2C3E50" stroke-width="1.5" stroke-linecap="round" stroke-linejoin="round" stroke-miterlimit="10" points="
		35.277,35.277 35.277,24.751 24.751,35.277 	"/>
	
		<line fill="none" stroke="#2C3E50" stroke-width="1.5" stroke-linecap="round" stroke-linejoin="round" stroke-miterlimit="10" x1="25.006" y1="24.993" x2="25.659" y2="26.434"/>
	
		<line fill="none" stroke="#2C3E50" stroke-width="1.5" stroke-linecap="round" stroke-linejoin="round" stroke-miterlimit="10" x1="21.848" y1="28.15" x2="24.076" y2="30.381"/>
	
		<line fill="none" stroke="#2C3E50" stroke-width="1.5" stroke-linecap="round" stroke-linejoin="round" stroke-miterlimit="10" x1="18.689" y1="31.311" x2="19.343" y2="32.75"/>
	
		<line fill="none" stroke="#2C3E50" stroke-width="1.5" stroke-linecap="round" stroke-linejoin="round" stroke-miterlimit="10" x1="15.531" y1="34.469" x2="17.76" y2="36.697"/>
	
		<line fill="none" stroke="#2C3E50" stroke-width="1.5" stroke-linecap="round" stroke-linejoin="round" stroke-miterlimit="10" x1="12.373" y1="37.627" x2="13.025" y2="39.066"/>
	
		<line fill="none" stroke="#2C3E50" stroke-width="1.5" stroke-linecap="round" stroke-linejoin="round" stroke-miterlimit="10" x1="28.165" y1="21.834" x2="30.394" y2="24.063"/>
	
		<line fill="none" stroke="#2C3E50" stroke-width="1.5" stroke-linecap="round" stroke-linejoin="round" stroke-miterlimit="10" x1="31.323" y1="18.676" x2="31.976" y2="20.117"/>
	
		<line fill="none" stroke="#2C3E50" stroke-width="1.5" stroke-linecap="round" stroke-linejoin="round" stroke-miterlimit="10" x1="34.481" y1="15.519" x2="36.71" y2="17.746"/>
	
		<line fill="none" stroke="#2C3E50" stroke-width="1.5" stroke-linecap="round" stroke-linejoin="round" stroke-miterlimit="10" x1="37.64" y1="12.359" x2="38.293" y2="13.801"/>
</g>
<g>
	<path fill="none" stroke="#2C3E50" stroke-width="1.5" stroke-miterlimit="10" d="M69.23,6.512c0,0-8.478,0-8.478,6.303
		C60.752,19.118,61.67,25,52.956,25"/>
	<path fill="none" stroke="#2C3E50" stroke-width="1.5" stroke-miterlimit="10" d="M69.23,43.488c0,0-8.478,0-8.478-6.303
		C60.753,30.884,61.67,25,52.956,25"/>
	<path fill="none" stroke="#2C3E50" stroke-width="1.5" stroke-miterlimit="10" d="M80.771,6.512c0,0,8.477,0,8.477,6.303
		C89.248,19.118,88.33,25,97.044,25"/>
	<path fill="none" stroke="#2C3E50" stroke-width="1.5" stroke-miterlimit="10" d="M80.771,43.488c0,0,8.477,0,8.477-6.303
		C89.247,30.884,88.33,25,97.044,25"/>
</g>
<g>
	<path fill="none" stroke="#2C3E50" stroke-width="1.5" stroke-linecap="round" stroke-miterlimit="10" d="M119.311,35.727
		c2.998,2.734,5.677,1.684,5.677,1.684s1.157,3.416,6.728,3.416c2.255,0,4.233-0.945,5.562-2.309c0,0,5.551,1.369,7.835-5.336
		c1.725-1.102,3.199-2.846,3.425-5.602c0.153-1.883-0.436-3.301-1.418-4.372c0,0,0.524-5.09-3.629-6.404
		c0,0-1.312-3.838-5.676-3.574c0,0-2.366-3.207-7.149-2.155"/>
	<path fill="none" stroke="#2C3E50" stroke-width="1.5" stroke-linecap="round" stroke-miterlimit="10" d="M122.938,13.176
		c0,0-7.358-5.203-12.878,1.577c0,0-3.784-0.262-4.152,4.1c0,0-4.468,4.469-4.468,9.883c0,5.414,3.259,9.303,11.669,4.887
		c0,0,3.627,3.891,8.41,1.367"/>
	<path fill="none" stroke="#2C3E50" stroke-width="1.5" stroke-linecap="round" stroke-miterlimit="10" d="M117.419,11.285
		c0,0,5.046-3.312,10.196-0.053"/>
	<path fill="none" stroke="#2C3E50" stroke-width="1.5" stroke-linecap="round" stroke-miterlimit="10" d="M124.619,9.97
		c0,0,4.837-2.26,7.885,0.841"/>
	<path fill="none" stroke="#2C3E50" stroke-width="1.5" stroke-linecap="round" stroke-miterlimit="10" d="M125.794,15.822
		c0,0,1.888-1.615,5.116-0.209c0,0,3.328-1.822,4.881,1.893c0,0,2.449-0.469,3.647,1.823"/>
	<path fill="none" stroke="#2C3E50" stroke-width="1.5" stroke-linecap="round" stroke-miterlimit="10" d="M128.292,22.14
		c-1.508-2.031-3.385-1.562-3.385-1.562c-1.458-2.396-3.801-2.188-3.801-2.188s-1.715-0.013-2.842,1.216"/>
	<path fill="none" stroke="#2C3E50" stroke-width="1.5" stroke-linecap="round" stroke-miterlimit="10" d="M110.221,19.902
		c0,0,1.512-3.594,6.146-3.594c0.661,0,1.257,0.087,1.791,0.236"/>
	<path fill="none" stroke="#2C3E50" stroke-width="1.5" stroke-linecap="round" stroke-miterlimit="10" d="M115.351,27.387
		c0,0,0.911,1.647,3.82,2.418c2.907,0.771,3.609,1.402,4.17,2.943"/>
	<path fill="none" stroke="#2C3E50" stroke-width="1.5" stroke-linecap="round" stroke-miterlimit="10" d="M122.289,31.102
		c0,0,1.786,0.736,3.751,0.315c1.962-0.421,0.454,2.243,3.993,2.872c3.541,0.631,1.997,0.035,3.259,1.789"/>
	<path fill="none" stroke="#2C3E50" stroke-width="1.5" stroke-linecap="round" stroke-miterlimit="10" d="M130.35,27.982
		c0,0-0.98-2.104-3.681-2.14c-2.698-0.032-1.857-1.786-4.1-1.366c-2.243,0.42-2.137,0.211-2.382-0.842
		c-0.245-1.051-0.912-0.209-2.769-1.191"/>
	<path fill="none" stroke="#2C3E50" stroke-width="1.5" stroke-linecap="round" stroke-miterlimit="10" d="M130.841,19.152
		c0,0,1.506,2.487,0.698,3.504c-0.805,1.017,2.139,0.42,1.58,2.348"/>
	<path fill="none" stroke="#2C3E50" stroke-width="1.5" stroke-linecap="round" stroke-miterlimit="10" d="M135.991,21.429
		c0,0-2.732,1.156-0.141,2.664c2.594,1.507,1.507,3.679,3.399,4.136c1.892,0.455,2.452,1.051,2.487,2.487"/>
	<path fill="none" stroke="#2C3E50" stroke-width="1.5" stroke-linecap="round" stroke-miterlimit="10" d="M144.191,24.792
		c0,0-0.071,2.349-1.647,2.56c0,0,1.262-0.246,2.277,0.455"/>
	<path fill="none" stroke="#2C3E50" stroke-width="1.5" stroke-linecap="round" stroke-miterlimit="10" d="M111.986,27.316
		c-1.086-3.542,3.015-2.803,3.015-2.803"/>
	<path fill="none" stroke="#2C3E50" stroke-width="1.5" stroke-linecap="round" stroke-miterlimit="10" d="M112.058,25.074
		c0,0-1.473-0.35-2.488-1.998"/>
	<path fill="none" stroke="#2C3E50" stroke-width="1.5" stroke-linecap="round" stroke-miterlimit="10" d="M105.539,29.875
		c0,0,2.594-1.928,3.995,1.156"/>
</g>
<g>
	<path fill="none" stroke="#2C3E50" stroke-width="1.5" stroke-miterlimit="10" d="M178.454,11.497c0.279,0,0.543-0.227,0.587-0.502
		l0.12-0.77l0.732-4.675l0.245-1.562c0,0,0.088-0.467-0.447-0.578c-0.915-0.176-1.857-0.3-2.818-0.369
		c-0.618-0.045-1.241-0.067-1.872-0.067c-1.426,0-2.822,0.115-4.164,0.341c-0.177,0.031-0.354,0.062-0.528,0.096
		c-0.534,0.109-0.446,0.58-0.446,0.58l0.685,4.368l0.412,2.636c0.044,0.275,0.309,0.502,0.588,0.502"/>
	<path fill="none" stroke="#2C3E50" stroke-width="1.5" stroke-miterlimit="10" d="M185.244,38.118l-0.974-3.879l-1.098-4.373
		l-1.099-4.373l-1.099-4.373l-1.098-4.373l-1.098-4.373l-0.225-0.894c-1.072-0.239-2.279-0.374-3.555-0.374
		c-0.374,0-0.741,0.013-1.102,0.035c-0.869,0.055-1.695,0.17-2.454,0.339l-0.54,2.146l-1.676,6.677l-1.677,6.676l-1.678,6.68
		l-1.12,4.461c-0.068,0.271,0.053,0.639,0.269,0.814l0.431,0.357l3.183,2.643l3.183,2.645l2.789,2.312
		c0.216,0.18,0.567,0.18,0.783,0.002l9.586-7.959C185.192,38.756,185.313,38.389,185.244,38.118z"/>
	<polyline fill="none" stroke="#2C3E50" stroke-width="1.5" stroke-miterlimit="10" points="167.52,26.964 165.729,30.372 
		161.229,31.195 160.221,26.734 170.9,13.621 	"/>
</g>
<g>
	<polyline fill="none" stroke="#2C3E50" stroke-width="1.5" stroke-miterlimit="10" points="287.813,12.74 293.022,12.74 
		293.022,43.729 256.978,43.729 256.978,12.74 262.187,12.74 	"/>
	<line fill="none" stroke="#2C3E50" stroke-width="1.5" stroke-miterlimit="10" x1="266.188" y1="12.74" x2="283.813" y2="12.74"/>
	<line fill="none" stroke="#2C3E50" stroke-width="1.5" stroke-miterlimit="10" x1="258.083" y1="11.74" x2="262.187" y2="11.74"/>
	<line fill="none" stroke="#2C3E50" stroke-width="1.5" stroke-miterlimit="10" x1="287.813" y1="11.74" x2="291.917" y2="11.74"/>
	<line fill="none" stroke="#2C3E50" stroke-width="1.5" stroke-miterlimit="10" x1="266.188" y1="11.74" x2="283.813" y2="11.74"/>
	<line fill="none" stroke="#2C3E50" stroke-width="1.5" stroke-miterlimit="10" x1="259.121" y1="10.74" x2="262.187" y2="10.74"/>
	<line fill="none" stroke="#2C3E50" stroke-width="1.5" stroke-miterlimit="10" x1="287.813" y1="10.74" x2="290.879" y2="10.74"/>
	<line fill="none" stroke="#2C3E50" stroke-width="1.5" stroke-miterlimit="10" x1="266.188" y1="10.74" x2="283.813" y2="10.74"/>
	
		<rect x="261.303" y="22.82" fill="none" stroke="#2C3E50" stroke-width="1.5" stroke-miterlimit="10" width="5.768" height="5.767"/>
	
		<rect x="272.116" y="22.82" fill="none" stroke="#2C3E50" stroke-width="1.5" stroke-miterlimit="10" width="5.768" height="5.767"/>
	
		<rect x="282.929" y="22.82" fill="none" stroke="#2C3E50" stroke-width="1.5" stroke-miterlimit="10" width="5.768" height="5.767"/>
	
		<rect x="261.303" y="33.634" fill="none" stroke="#2C3E50" stroke-width="1.5" stroke-miterlimit="10" width="5.768" height="5.767"/>
	
		<rect x="272.116" y="33.634" fill="none" stroke="#2C3E50" stroke-width="1.5" stroke-miterlimit="10" width="5.768" height="5.767"/>
	
		<rect x="282.929" y="33.634" fill="none" stroke="#2C3E50" stroke-width="1.5" stroke-miterlimit="10" width="5.768" height="5.767"/>
	<path fill="none" stroke="#2C3E50" stroke-width="1.5" stroke-miterlimit="10" d="M262.187,8.272c0-1.104,0.896-2,2-2s2,0.896,2,2
		v6.936c0,1.104-0.896,2-2,2s-2-0.896-2-2V8.272z"/>
	<path fill="none" stroke="#2C3E50" stroke-width="1.5" stroke-miterlimit="10" d="M283.813,8.272c0-1.104,0.896-2,2-2s2,0.896,2,2
		v6.936c0,1.104-0.896,2-2,2s-2-0.896-2-2V8.272z"/>
</g>
<g>
	<g>
		<path fill="none" stroke="#FFFFFF" stroke-width="0.5" stroke-linejoin="round" d="M448.376,16.931
			c0-2.448-2.003-4.451-4.452-4.451h-37.848c-2.449,0-4.452,2.002-4.452,4.451v16.135c0,2.449,2.003,4.453,4.452,4.453h37.848
			c2.449,0,4.452-2.004,4.452-4.453V16.931z M404.073,25c0-0.766,0.619-1.386,1.385-1.386c0.765,0,1.385,0.62,1.385,1.386
			c0,0.765-0.62,1.384-1.385,1.384C404.692,26.384,404.073,25.765,404.073,25z M409.816,35.532c-0.289,0-0.524-0.235-0.524-0.523
			V14.99c0-0.29,0.235-0.525,0.524-0.525h30.598c0.288,0,0.523,0.235,0.523,0.525v20.019c0,0.288-0.235,0.523-0.523,0.523H409.816z"
			/>
	</g>
	
		<line fill="none" stroke="#FFFFFF" stroke-width="0.5" stroke-linecap="round" x1="444.657" y1="22.645" x2="444.657" y2="27.355"/>
</g>
<g>
	<path fill="none" stroke="#FFFFFF" stroke-width="0.5" stroke-miterlimit="10" d="M496.481,12.539c0-0.961-0.786-1.746-1.746-1.746
		h-39.469c-0.962,0-1.748,0.785-1.748,1.746v24.922c0,0.961,0.786,1.746,1.748,1.746h39.469c0.96,0,1.746-0.785,1.746-1.746V12.539z
		"/>
	<g>
		<path fill="none" stroke="#FFFFFF" stroke-width="0.5" stroke-miterlimit="10" d="M453.519,12.539l11.833,15.247
			c0.675,0.869,2.127,1.58,3.227,1.58h6.423"/>
	</g>
	<g>
		<path fill="none" stroke="#FFFFFF" stroke-width="0.5" stroke-miterlimit="10" d="M496.481,12.539L484.65,27.785
			c-0.675,0.869-2.127,1.58-3.227,1.58h-6.423"/>
	</g>
	<g>
		<line fill="none" stroke="#FFFFFF" stroke-width="0.5" stroke-miterlimit="10" x1="453.519" y1="37.461" x2="463.19" y2="25"/>
	</g>
	<g>
		<line fill="none" stroke="#FFFFFF" stroke-width="0.5" stroke-miterlimit="10" x1="496.481" y1="37.461" x2="486.812" y2="25"/>
	</g>
</g>
</svg>
