<svg xmlns="http://www.w3.org/2000/svg" width="1000" height="3000" viewBox="0 0 1000 3000"><g><linearGradient id="a" gradientUnits="userSpaceOnUse" x1="1485.574" y1="-1745.733" x2="492.008" y2="-1745.734" gradientTransform="matrix(-1 0 0 1 1490 3245.734)"><stop offset="0" stop-color="#3FA9F5"/><stop offset="1" stop-color="#3FA9F5" stop-opacity="0"/></linearGradient><path fill="url(#a)" d="M1000 0h-1000v3000h1000v-3000z"/></g><g><linearGradient id="b" gradientUnits="userSpaceOnUse" x1="1381.335" y1="-3045.135" x2="174.889" y2="-3045.135" gradientTransform="translate(-172.449 3245.734)"><stop offset="0" stop-color="#3FA9F5"/><stop offset="1" stop-color="#3FA9F5" stop-opacity="0"/></linearGradient><path fill="url(#b)" d="M0 401.199l1214.258-401.199-1214.258 255.636v145.563z"/></g><g><linearGradient id="c" gradientUnits="userSpaceOnUse" x1="1641.493" y1="3471.392" x2="435.048" y2="3471.392" gradientTransform="matrix(1 0 0 -1 -432.608 3631.734)"><stop offset="0" stop-color="#fff"/><stop offset="1" stop-color="#fff" stop-opacity="0"/></linearGradient><path fill="url(#c)" d="M0 320.688l1214.258-320.688h-1214.258v320.688z"/><linearGradient id="d" gradientUnits="userSpaceOnUse" x1="1641.493" y1="3374.727" x2="435.048" y2="3374.727" gradientTransform="matrix(1 0 0 -1 -432.608 3631.734)"><stop offset="0" stop-color="#fff"/><stop offset="1" stop-color="#fff" stop-opacity="0"/></linearGradient><path fill="url(#d)" d="M0 514.016l1214.258-514.016-1214.258 159.32v354.696z"/><linearGradient id="e" gradientUnits="userSpaceOnUse" x1="1641.493" y1="3301.335" x2="435.048" y2="3301.335" gradientTransform="matrix(1 0 0 -1 -432.608 3631.734)"><stop offset="0" stop-color="#fff"/><stop offset="1" stop-color="#fff" stop-opacity="0"/></linearGradient><path fill="url(#e)" d="M0 660.801l1214.258-660.801-1214.258 184.837v475.964z"/><linearGradient id="f" gradientUnits="userSpaceOnUse" x1="1641.493" y1="3148.198" x2="435.048" y2="3148.198" gradientTransform="matrix(1 0 0 -1 -432.608 3631.734)"><stop offset="0" stop-color="#fff"/><stop offset="1" stop-color="#fff" stop-opacity="0"/></linearGradient><path fill="url(#f)" d="M0 967.074l1214.258-967.074-1214.258 514.016v453.058z"/><linearGradient id="g" gradientUnits="userSpaceOnUse" x1="1641.493" y1="2951.456" x2="435.048" y2="2951.456" gradientTransform="matrix(1 0 0 -1 -432.608 3631.734)"><stop offset="0" stop-color="#fff"/><stop offset="1" stop-color="#fff" stop-opacity="0"/></linearGradient><path opacity=".5" fill="url(#g)" d="M0 1360.559l1214.258-1360.559-1214.258 883.477v477.082z"/><linearGradient id="h" gradientUnits="userSpaceOnUse" x1="1641.493" y1="2842.712" x2="435.048" y2="2842.712" gradientTransform="matrix(1 0 0 -1 -432.608 3631.734)"><stop offset="0" stop-color="#fff"/><stop offset="1" stop-color="#fff" stop-opacity="0"/></linearGradient><path opacity=".5" fill="url(#h)" d="M0 1578.048l1214.258-1578.048-1214.258 1024.703v553.345z"/></g><g opacity=".6"><linearGradient id="i" gradientUnits="userSpaceOnUse" x1="1641.493" y1="3366.03" x2="435.048" y2="3366.03" gradientTransform="matrix(1 0 0 -1 -432.608 3631.734)"><stop offset="0" stop-color="#fff"/><stop offset="1" stop-color="#fff" stop-opacity="0"/></linearGradient><path fill="url(#i)" d="M0 531.41l1214.258-531.41-1214.258 495.895v35.515z"/><linearGradient id="j" gradientUnits="userSpaceOnUse" x1="1641.493" y1="3548.833" x2="435.048" y2="3548.833" gradientTransform="matrix(1 0 0 -1 -432.608 3631.734)"><stop offset="0" stop-color="#fff"/><stop offset="1" stop-color="#fff" stop-opacity="0"/></linearGradient><path fill="url(#j)" d="M0 165.806l1214.258-165.806-1214.258 152.343v13.463z"/><path fill="#fff" d="M1214.333.494l-1071.284 162.568 1071.134-163.556zM1214.275.5l-996.447 35.196 996.412-36.196zM1214.438.466l-879.49 338.8 879.13-339.732zM1214.441.465l-828.042 326.449 827.675-327.379z"/></g><g><linearGradient id="k" gradientUnits="userSpaceOnUse" x1="1381.335" y1="-2988.727" x2="174.889" y2="-2988.727" gradientTransform="translate(-172.449 3245.734)"><stop offset="0" stop-color="#0ff" stop-opacity=".2"/><stop offset=".138" stop-color="#0ff" stop-opacity=".172"/><stop offset="1" stop-color="#0ff" stop-opacity="0"/></linearGradient><path fill="url(#k)" d="M0 514.016l1214.258-514.016-1214.258 380.13v133.886z"/><linearGradient id="l" gradientUnits="userSpaceOnUse" x1="1381.335" y1="-3207.182" x2="174.889" y2="-3207.182" gradientTransform="translate(-172.449 3245.734)"><stop offset="0" stop-color="#0ff" stop-opacity=".2"/><stop offset=".138" stop-color="#0ff" stop-opacity=".172"/><stop offset="1" stop-color="#0ff" stop-opacity="0"/></linearGradient><path fill="url(#l)" d="M0 77.104l1214.258-77.104-1214.258 55.323v21.781z"/></g><g><linearGradient id="m" gradientUnits="userSpaceOnUse" x1="1485.574" y1="-1745.733" x2="492.008" y2="-1745.734" gradientTransform="matrix(-1 0 0 1 1490 3245.734)"><stop offset="0" stop-color="#0ff" stop-opacity="0"/><stop offset="1" stop-color="#0ff" stop-opacity=".5"/></linearGradient><path fill="url(#m)" d="M1000 0h-1000v3000h1000v-3000z"/></g></svg>