<svg xmlns="http://www.w3.org/2000/svg" xmlns:xlink="http://www.w3.org/1999/xlink" width="691.65" height="910" viewBox="0 0 691.65 910"><path fill="none" d="M0 0h691.65v910h-691.65z"/><defs><filter id="a" filterUnits="userSpaceOnUse" x="-79.45" y="-148.2" width="850.39" height="978.39"><feColorMatrix values="1 0 0 0 0 0 1 0 0 0 0 0 1 0 0 0 0 0 1 0"/></filter></defs><mask maskUnits="userSpaceOnUse" x="-79.45" y="-148.2" width="850.39" height="978.39" id="c"><g filter="url(#a)"><linearGradient id="b" gradientUnits="userSpaceOnUse" x1="267.828" y1="214.834" x2="267.827" y2="571.671" gradientTransform="matrix(1 0 0 -1 78 1027)"><stop offset="0"/><stop offset=".085" stop-color="#090909"/><stop offset=".224" stop-color="#212121"/><stop offset=".399" stop-color="#494949"/><stop offset=".603" stop-color="#808080"/><stop offset=".83" stop-color="#C6C6C6"/><stop offset="1" stop-color="#fff"/></linearGradient><path fill="url(#b)" d="M0 0h691.65v910h-691.65z"/></g></mask><g mask="url(#c)"><g><defs><path id="d" d="M642.3 440.33c-17.42-.49-34.31.25-34.31.25-10.54.31-16.67 15.03-16.67 15.03-.94-4.71-3.6-16.63-6.94-19.87-4.19-4.06-5.75-4.75-9.38-3.75-2.19.6-3.55 1.4-4.18 2.66-2.87-9.13-7.35-21.16-11.17-33.03-5.75-17.88-18.5-27.62-24-32.25s-10-5.88-13.12-12-6.25-5-11-7.62-9.38-.25-14.12-2-4.5.75-21.25-4.75c-15.9-5.22-42.71-15.62-45.39-16.66-3.69-11.89-13.08-14.58-18.36-22.72-5.7-8.79-13.57-11.63-14.91-12.06.37-10.19 1.75-24.22 2.67-32.8l-.13-.1c4.39-6.05 5.63-12.27 6.53-16.08.9-3.84 5.88-23.63 8.8-34.5l-.32 1.75c2.85 2.95 6.41 5.29 10.62 5.49 12.07.58 14.94-18.26 15.49-22.19.77-5.57 1.54-36.55-6.95-36.96-.85-.04-1.66.11-2.42.4.38-1.32.89-2.64 1.22-3.8.58-2.03.9-4.04 1.52-6.06.35-1.15.73-2.32 1.05-3.46.13-.47.11-.9.22-1.3.13-.49.39-.64.54-1.08.22-.65-.04-1.26 0-1.92.04-.7.52-1.21.63-1.84.09-.54-.08-1-.01-1.53.08-.61.3-1.12.35-1.73.11-1.28 1.75-7.96.45-8.74.3.18.63.38.92.54-.39-.75-.18-2.2-.07-3.04.17-1.26-.03-2.16-.31-3.34.53.29 1.08.67 1.59 1.03-1-1.76-1.81-4.64-1.82-6.62.02.08.75.73 1.41.88-.16-1.48-.77-2.31-.8-4.25-.16-1.53 1.45-2.87-.38-4 .55-.41.41-.91-.03-1.41.49-.23.44-.95.45-1.27 0-.11.31-.18.25-.57-.03-.21-.59-.55-.76-.65.33.05.7 0 1.03-.01.06-.78-.77-1.24-1.15-1.85-.33-.54-.46-1.23-.67-1.81-.51-1.4-1.23-2.79-1.62-4.21-.96-3.46-2.12-6.84-3.04-10.39-.64-2.46-1.93-4.53-3.2-6.67-.66-1.12-1.17-2.5-1.75-3.68l-1.52-2.79c-.68-1.37-1.48-2.77-2.45-4.13-.72-1-2.16-3.81-3.39-4.11.5-.11 1.88-.29 2.38-.83-.73-.31-1.65-.41-2.47-.71-.76-.28-1.16-.36-1.91-.58.98-.82 1.59-2.27 2.33-3.26-1.13.49-2.59.82-3.45 1.73.25-1.15.27-2.19.21-3.34l.22-4.42c-.41 1.54-1.06 3.54-2.16 4.72 0 0-1.99-2.89-2.68-7.64 0 0-.38 1.44.12 5.31 0 0-8.61-23.37-34.51-32.7-1.71-1.74-3.34-3.48-4.37-4.74 0 0 .48 1.44-1.26 4.85-2.24-1.81-6.4-4.79-12.99-8.04 0 0 1.81 2.75 2.38 4.19 0 0-3.27-1.73-9.94-4.69-7.75-3.42-10.12-8.61-10.12-8.61s.78 3.52 3.25 7.96c-.76-.24-5.27-1.78-7.5-4.46 0 0 1.88 3.56 1.75 4.94 0 0-2.62-.06-4.56-1.06 0 0 1.69 1.62 2.06 2.44 0 0-8.75-.88-12.38-1.19 0 0 1.06 1.19 1.5 2.56 0 0-5.5-1.06-9.69.88 0 0 3.74.12 6.81 1.97-1.22.15-6.68.75-9.56-.41 0 0 2.19 2.25 3 4.06 0 0-3.19-.88-5.38-2.19 0 0 2.38 2.5 2.94 3.75 0 0-8 1.06-12.81-.62l4.19 2.81s-5.31.31-9 4.94c0 0-4.5 0-6.31-1.81 0 0 1.58 1.74 3.93 3.25l-.02.03c-1.38.79-3.15 2.56-5 3.4-1.99.91-4.67 1.57-6.82 1.61.41.57 1.06 1.01 1.38 1.69l-.73-.07c.1.09.26.4.49.53-.52-.01-1.05-.02-1.57.01.16.53.85.61.83 1.26-1.39.84-2.89 3.34-4.11 4.66-1.64 1.78-3.03 3.58-4.41 5.59-1.6 2.33-2.84 5.01-4.75 7.16-.65.74-1.48 1.53-2.27 2.18-.92.75-.92.74-.3 1.81.2.35.44.71.61 1.05-.71 1.02-1.74 2.04-2.58 2.95-1.03 1.12-2.31 1.66-3.09 3.01 1.37-.54 2.85-.61 4.38-.5-.94 1.3-2.65 3.92-4.41 3.99.78.95 2.22 1.4 2.98 2.39-1.51.23-3.16 1.31-4.59 1.83.24.44.79 1.19.96 1.17l-.75 1.3c-.46.63-1.19 1.14-1.5 1.84l.52.42c-.5.42-.18.68-.31 1.08-.14.42-.41.88-.52 1.3-.28 1.06-.32 2.32-.48 3.43-.36 2.51-.52 5.08-.97 7.57-.58 3.24-1.06 6.56-1.52 9.86-.47 3.38-.89 7.04-.73 10.47.07 1.47.26 3.03.11 4.51-.06.66-.38 1.28-.33 1.96.03.44.34.77.31 1.2-.05.61-.66 1.13-.64 1.85l.33 1.15c.15 1.15.2 1.86-.42 2.93.23.04.34.15.6.12l-.28.02c.02 0 .32.11.38.16-.15.1-.28.36-.38.45l.41.03c-.09.11-.16.47-.32.63.45.6.25 1.73.36 2.49.58 3.91 1.04 7.74 1.81 11.63.88 4.48 2.5 8.87 3.94 13.22-1.85-3.13-4.32-5.62-7.47-5.62-8.5 0-9.23 30.98-8.73 36.58.35 3.96 2.31 22.92 14.4 22.92 4.21 0 7.87-2.15 10.85-4.96 1.79 10.02 5.19 29.04 5.98 32.87.83 4.01 2.19 9.47 5.01 14.64.26 9.36.72 26.96.9 37.13-1.26.88-5.06 3.97-8.44 11.35-3.2 6.99-11.15 11.79-14.89 25.05-7.26 2.8-29.39 11.28-43.23 15.82-16.75 5.5-16.5 3-21.25 4.75s-9.38-.62-14.12 2-7.88 1.5-11 7.62-7.62 7.38-13.12 12-18.25 14.38-24 32.25c-3.81 11.84-8.28 23.85-11.15 32.97-.64-1.22-1.99-2.01-4.14-2.6-3.62-1-5.19-.31-9.38 3.75-3.34 3.24-6 15.16-6.94 19.87 0 0-6.13-14.73-16.67-15.03 0 0-16.89-.74-34.31-.25-40.01 1.13-30.74 47.7-30.74 47.7.41 3.34.72 6.96.91 10.8.3 6.03 4.74 22.04 18.83 29.17l.17.17s7.83 3 12.08 15.58c8.03 23.79 18.58 54.75 26.58 74.58 6.44 15.97 19.27 39.06 46.73 48.07 2.6 1.34 6.42 3.17 9.85 4.27 10.17 3.25 10.75 5.5 15.58 4.58 3.21-.61 5.53-.56 8.67-6.67 3.25-6.33 2.67-4.67 7.42-14.67 6.09-12.83 12.5-27.62 18.5-64.58.85-5.25 1.74-10.01 2.63-14.37 3.32 7.73 7.2 20.45 9.22 40.21 2.03 19.83 1.44 26.67 5.72 41.08 0 0 6.15 14.71 3.81 30.94-.88 6.06-3.69 9.56-2.25 15.06 0 0-4.76 7.35-2.94 23.56 1.31 11.69-8.38 24.12-5.38 49.25 0 0 4.37 27 4.55 37.44h282.13c3.32-13.42 4.8-33.9 2.23-51.96-2.57-18.07-2.3-40.07-2.75-63.58-.44-23.52 1.18-28.48 4.35-35.66 3.17-7.18 3.39-26.93 6.09-35.62 2.71-8.69 2.32-24.2 5.8-33.62 1.44-3.9 4.55-23.18 5.36-29.31.86 4.27 4.4 21.47 5.23 26.58 6 36.96 12.41 51.76 18.5 64.58 4.75 10 4.17 8.33 7.42 14.67 3.13 6.11 5.46 6.06 8.67 6.67 4.83.92 5.42-1.33 15.58-4.58 3.42-1.09 7.25-2.93 9.85-4.27 27.46-9 40.29-32.1 46.73-48.07 8-19.83 18.55-50.8 26.58-74.58 4.25-12.58 12.08-15.58 12.08-15.58l.17-.17c14.09-7.13 18.53-23.14 18.83-29.17.19-3.84.5-7.46.91-10.8-.02.04 9.24-46.54-30.77-47.67zm-543.93 80.01c10.84-8.99 13.66-8.88 16.55-12.09.2-.22.38-.43.55-.65.09 10.54.78 24.62 2.9 41.72-9.9-12.69-16.43-22.93-20-28.98zm474.9 28.98c2.12-17.1 2.81-31.18 2.9-41.72.17.22.35.44.55.65 2.89 3.21 5.7 3.1 16.55 12.09-3.58 6.05-10.1 16.29-20 28.98z"/></defs><clipPath id="e"><use xlink:href="#d" overflow="visible"/></clipPath><g clip-path="url(#e)"><g><linearGradient id="f" gradientUnits="userSpaceOnUse" x1="166.997" y1="686" x2="364.045" y2="686" gradientTransform="matrix(1 0 0 -1 78 1027)"><stop offset="0" stop-color="#FFDEC5"/><stop offset="1" stop-color="#FFEFD4"/></linearGradient><path fill="url(#f)" d="M-79.45-148.2h850.39v978.39h-850.39z"/><linearGradient id="g" gradientUnits="userSpaceOnUse" x1="166.997" y1="686" x2="364.045" y2="686" gradientTransform="matrix(1 0 0 -1 78 1027)"><stop offset="0" stop-color="#E2CBAA"/><stop offset=".141" stop-color="#E2CBAA" stop-opacity=".859"/><stop offset="1" stop-color="#E2CBAA" stop-opacity="0"/></linearGradient><path fill="url(#g)" d="M-79.45-148.2h850.39v978.39h-850.39z"/><linearGradient id="h" gradientUnits="userSpaceOnUse" x1="166.997" y1="686" x2="364.045" y2="686" gradientTransform="matrix(1 0 0 -1 78 1027)"><stop offset="0" stop-color="#fff" stop-opacity="0"/><stop offset="1" stop-color="#fff" stop-opacity=".7"/></linearGradient><path fill="url(#h)" d="M-79.45-148.2h850.39v978.39h-850.39z"/></g><g><linearGradient id="i" gradientUnits="userSpaceOnUse" x1="33.664" y1="466.514" x2="503.679" y2="466.514" gradientTransform="matrix(1 0 0 -1 78 1027)"><stop offset="0" stop-color="#2593FF"/><stop offset="1" stop-color="#27AAE1"/></linearGradient><path fill="url(#i)" d="M-79.45 290.78h361.44c.02 1.45.04 2.75.06 3.85.12 12-1.25 18.12-.75 28.12s2.62 19.88 13.12 28.62c10.41 8.67 28.43 7.15 41.29 40.74l.06-.15c4.92-5.52 10.49-10.41 16.9-15.84 21.38-18.12 29.38-27.62 38.5-40.25s6.38-24.5 6.25-39c-.01-1.54.02-3.27.08-5.13h373.45v538.46h-850.4v-539.42z"/><linearGradient id="j" gradientUnits="userSpaceOnUse" x1="503.164" y1="466.513" x2="32.147" y2="466.513" gradientTransform="matrix(1 0 0 -1 78 1027)"><stop offset="0" stop-color="#fff" stop-opacity=".4"/><stop offset=".141" stop-color="#fff" stop-opacity=".344"/><stop offset="1" stop-color="#fff" stop-opacity="0"/></linearGradient><path fill="url(#j)" d="M-79.45 290.78h361.44c.02 1.45.04 2.75.06 3.85.12 12-1.25 18.12-.75 28.12s2.62 19.88 13.12 28.62c10.41 8.67 28.43 7.15 41.29 40.74l.06-.15c4.92-5.52 10.49-10.41 16.9-15.84 21.38-18.12 29.38-27.62 38.5-40.25s6.38-24.5 6.25-39c-.01-1.54.02-3.27.08-5.13h373.45v538.46h-850.4v-539.42z"/><linearGradient id="k" gradientUnits="userSpaceOnUse" x1="503.164" y1="466.513" x2="32.147" y2="466.513" gradientTransform="matrix(1 0 0 -1 78 1027)"><stop offset="0" stop-color="#238AC4" stop-opacity="0"/><stop offset=".859" stop-color="#238AC4" stop-opacity=".429"/><stop offset="1" stop-color="#238AC4" stop-opacity=".5"/></linearGradient><path fill="url(#k)" d="M-79.45 290.78h361.44c.02 1.45.04 2.75.06 3.85.12 12-1.25 18.12-.75 28.12s2.62 19.88 13.12 28.62c10.41 8.67 28.43 7.15 41.29 40.74l.06-.15c4.92-5.52 10.49-10.41 16.9-15.84 21.38-18.12 29.38-27.62 38.5-40.25s6.38-24.5 6.25-39c-.01-1.54.02-3.27.08-5.13h373.45v538.46h-850.4v-539.42z"/></g><g fill="#939598"><path d="M334.38 446.1l.01-.04c-1.33-.83-3.38-.83-3.38-.83-2.86-.44-5.67 2.33-6.27 6.2-.6 3.87 1.18 7.82 4.04 8.27 0 0 1.25.38 3.16.19l.02-.12c2.53-.19 4.83-2.77 5.36-6.23.52-3.33-.76-6.36-2.94-7.44zM315.9 390.81s-2.04 0-3.38.83l.01.04c-2.18 1.08-3.46 4.11-2.95 7.43.54 3.46 2.83 6.03 5.36 6.23l.02.12c1.91.19 3.16-.19 3.16-.19 2.86-.44 4.64-4.4 4.04-8.27-.59-3.86-3.4-6.63-6.26-6.19z"/></g><g><linearGradient id="l" gradientUnits="userSpaceOnUse" x1="201.14" y1="884.854" x2="256.676" y2="884.854" gradientTransform="matrix(1 0 0 -1 78 1027)"><stop offset="0" stop-color="#754C29"/><stop offset="1" stop-color="#8B5E3C"/></linearGradient><path fill="url(#l)" d="M291.54 136.31c21.25-6.38 37.86-.23 37.86-.23 2.45 8.71 5.02 12.41 5.02 12.41s-30.69-19.69-55.62 2.38c0 0 3.2-5.08 6.85-9.14 3.64-4.04 5.89-5.42 5.89-5.42z"/><linearGradient id="m" gradientUnits="userSpaceOnUse" x1="275.619" y1="882.299" x2="332.43" y2="882.299" gradientTransform="matrix(1 0 0 -1 78 1027)"><stop offset="0" stop-color="#754C29"/><stop offset="1" stop-color="#8B5E3C"/></linearGradient><path fill="url(#m)" d="M397.42 139.08c-20.92-7.4-37.8-2.06-37.8-2.06-2.87 8.58-5.61 12.15-5.61 12.15s31.6-18.18 55.44 5.07c0 0-2.95-5.23-6.4-9.46-3.45-4.22-5.63-5.7-5.63-5.7z"/><linearGradient id="n" gradientUnits="userSpaceOnUse" x1="179.164" y1="1015.342" x2="359.666" y2="1015.342" gradientTransform="matrix(1 0 0 -1 78 1027)"><stop offset="0" stop-color="#754C29"/><stop offset="1" stop-color="#8B5E3C"/></linearGradient><path fill="url(#n)" d="M-79.45 151.58h333.03c8.5 0 12 18.08 12 18.08.52-1.04.53-2.63.95-3.71.81-2.09 1.73-4.2 2.46-6.3.78-2.24 1.87-4.26 1.73-6.67-.32-5.51-.27-11.14-.01-16.74.01-.28.24-.45.22-.75-.02-.29-.32-.61-.3-.87l.41-1.19c.03-.53-.34-.88-.3-1.41.03-.38.36-.86.41-1.32.27-2.58.4-5.19.84-7.78.43-2.49.71-4.8 1.32-7.24.32-1.28.34-2.63.54-3.95.12-.82.06-2.17.65-2.61l1.35-.12c-.75-1.75-1.19-6.75-1.19-6.75.56.62 2.56 1.94 2.56 1.94-1.19-3.75-1.44-10.38-1.44-10.38l.02-.01c2.03 3.61 4.79 5.95 4.79 5.95-1.81-4.38-1.5-10.56-1.5-10.56 1 2.12 3 4.12 3 4.12-.38-2.56.5-6.62.5-6.62 2.19 6.6 5.68 9.56 5.68 9.56-1.01-4.25-.41-8.85-.28-9.77 2.05 5.92 5.65 9.4 5.65 9.4-4.75-9.88-.81-19.75-.81-19.75-.25 3.62 1.38 7.56 1.38 7.56-.25-9.88 9-14.88 17.06-12.69 8.06 2.19 11.88.88 11.88.88l.1-.08c4.21 2.31 8.46 2.52 8.46 2.52l-.01-.01c-4.62 3.41-7.18 7.14-7.18 7.14 8.56-7.69 19.38-5.75 23.31-4.38 3.94 1.38 5.88.62 8-.44l5.45-1.66.42.15c6.07 2.28 11.86 1.73 13.29 1.55 5.15 3.04 10.28 3.04 13.15 2.39l.78-.17c5.77 3.11 12.71 1.91 12.71 1.91-.79.86-1.43 3.15-1.73 4.51.57-1.9 2.17-3.71 3.45-5.23-.55 2.61-.1 5.17-.09 7.82.21-1.64 1.7-2.46 2.16-3.93.43 1.16 1.08 2.59 1.07 3.82.52-.75 1.33-1.26 1.63-2.09.05.72.65 1.14 1 1.77.36.66.54 1.35.75 2.08.4 1.39.35 2.89.1 4.28.5-.96 1.37-1.7 1.93-2.62-.05 1.74-.42 3.77.12 5.45.72-.18 1.31-.35 2.13-.18-.12.3-.15.75-.07 1.13l.17-.18c.05.73-.29 2.16.87 1.63.03.52-.22.96-.18 1.48.51.05.49 1.73.66 2.31.32 1.14.58 2.32.95 3.46.74 2.31 1.26 4.91 1.73 7.34.53 2.67.57 5.44.97 8.11.08.56.33.95.46 1.48.2.87.03 1.83.19 2.71.24 1.29.34 2.58.54 3.88.46 3-.35 6.17.54 9.07.5 1.61.25 3.77.23 5.45-.03 2.47-.18 4.94-.33 7.4-.09 1.53-.37 2.76-.13 4.3.17 1.1-.15 2.04-.08 3.16.05.93.44 1.63.62 2.51.1.51-.16.99-.09 1.46.06.41.42.78.55 1.21.62 2.07.35 4.9.33 7.08l.16-.88c1.45-4.39 4.65-12.23 9.55-14.07h339.15v-304.72h-850.39v299.78z"/><linearGradient id="o" gradientUnits="userSpaceOnUse" x1="201.14" y1="884.854" x2="256.676" y2="884.854" gradientTransform="matrix(1 0 0 -1 78 1027)"><stop offset="0" stop-color="#603913"/><stop offset=".141" stop-color="#603913" stop-opacity=".859"/><stop offset="1" stop-color="#603913" stop-opacity="0"/></linearGradient><path fill="url(#o)" d="M291.54 136.31c21.25-6.38 37.86-.23 37.86-.23 2.45 8.71 5.02 12.41 5.02 12.41s-30.69-19.69-55.62 2.38c0 0 3.2-5.08 6.85-9.14 3.64-4.04 5.89-5.42 5.89-5.42z"/><linearGradient id="p" gradientUnits="userSpaceOnUse" x1="179.164" y1="1015.342" x2="359.666" y2="1015.342" gradientTransform="matrix(1 0 0 -1 78 1027)"><stop offset="0" stop-color="#603913"/><stop offset=".141" stop-color="#603913" stop-opacity=".859"/><stop offset="1" stop-color="#603913" stop-opacity="0"/></linearGradient><path fill="url(#p)" d="M-79.45 151.58h333.03c8.5 0 12 18.08 12 18.08.52-1.04.53-2.63.95-3.71.81-2.09 1.73-4.2 2.46-6.3.78-2.24 1.87-4.26 1.73-6.67-.32-5.51-.27-11.14-.01-16.74.01-.28.24-.45.22-.75-.02-.29-.32-.61-.3-.87l.41-1.19c.03-.53-.34-.88-.3-1.41.03-.38.36-.86.41-1.32.27-2.58.4-5.19.84-7.78.43-2.49.71-4.8 1.32-7.24.32-1.28.34-2.63.54-3.95.12-.82.06-2.17.65-2.61l1.35-.12c-.75-1.75-1.19-6.75-1.19-6.75.56.62 2.56 1.94 2.56 1.94-1.19-3.75-1.44-10.38-1.44-10.38l.02-.01c2.03 3.61 4.79 5.95 4.79 5.95-1.81-4.38-1.5-10.56-1.5-10.56 1 2.12 3 4.12 3 4.12-.38-2.56.5-6.62.5-6.62 2.19 6.6 5.68 9.56 5.68 9.56-1.01-4.25-.41-8.85-.28-9.77 2.05 5.92 5.65 9.4 5.65 9.4-4.75-9.88-.81-19.75-.81-19.75-.25 3.62 1.38 7.56 1.38 7.56-.25-9.88 9-14.88 17.06-12.69 8.06 2.19 11.88.88 11.88.88l.1-.08c4.21 2.31 8.46 2.52 8.46 2.52l-.01-.01c-4.62 3.41-7.18 7.14-7.18 7.14 8.56-7.69 19.38-5.75 23.31-4.38 3.94 1.38 5.88.62 8-.44l5.45-1.66.42.15c6.07 2.28 11.86 1.73 13.29 1.55 5.15 3.04 10.28 3.04 13.15 2.39l.78-.17c5.77 3.11 12.71 1.91 12.71 1.91-.79.86-1.43 3.15-1.73 4.51.57-1.9 2.17-3.71 3.45-5.23-.55 2.61-.1 5.17-.09 7.82.21-1.64 1.7-2.46 2.16-3.93.43 1.16 1.08 2.59 1.07 3.82.52-.75 1.33-1.26 1.63-2.09.05.72.65 1.14 1 1.77.36.66.54 1.35.75 2.08.4 1.39.35 2.89.1 4.28.5-.96 1.37-1.7 1.93-2.62-.05 1.74-.42 3.77.12 5.45.72-.18 1.31-.35 2.13-.18-.12.3-.15.75-.07 1.13l.17-.18c.05.73-.29 2.16.87 1.63.03.52-.22.96-.18 1.48.51.05.49 1.73.66 2.31.32 1.14.58 2.32.95 3.46.74 2.31 1.26 4.91 1.73 7.34.53 2.67.57 5.44.97 8.11.08.56.33.95.46 1.48.2.87.03 1.83.19 2.71.24 1.29.34 2.58.54 3.88.46 3-.35 6.17.54 9.07.5 1.61.25 3.77.23 5.45-.03 2.47-.18 4.94-.33 7.4-.09 1.53-.37 2.76-.13 4.3.17 1.1-.15 2.04-.08 3.16.05.93.44 1.63.62 2.51.1.51-.16.99-.09 1.46.06.41.42.78.55 1.21.62 2.07.35 4.9.33 7.08l.16-.88c1.45-4.39 4.65-12.23 9.55-14.07h339.15v-304.72h-850.39v299.78z"/><linearGradient id="q" gradientUnits="userSpaceOnUse" x1="255.375" y1="884.855" x2="200.489" y2="884.855" gradientTransform="matrix(1 0 0 -1 78 1027)"><stop offset="0" stop-color="#fff" stop-opacity=".1"/><stop offset=".141" stop-color="#fff" stop-opacity=".086"/><stop offset="1" stop-color="#fff" stop-opacity="0"/></linearGradient><path fill="url(#q)" d="M291.54 136.31c21.25-6.38 37.86-.23 37.86-.23 2.45 8.71 5.02 12.41 5.02 12.41s-30.69-19.69-55.62 2.38c0 0 3.2-5.08 6.85-9.14 3.64-4.04 5.89-5.42 5.89-5.42z"/><linearGradient id="r" gradientUnits="userSpaceOnUse" x1="330.414" y1="882.3" x2="275.707" y2="882.3" gradientTransform="matrix(1 0 0 -1 78 1027)"><stop offset="0" stop-color="#fff" stop-opacity=".3"/><stop offset="1" stop-color="#fff" stop-opacity="0"/></linearGradient><path fill="url(#r)" d="M397.42 139.08c-20.92-7.4-37.8-2.06-37.8-2.06-2.87 8.58-5.61 12.15-5.61 12.15s31.6-18.18 55.44 5.07c0 0-2.95-5.23-6.4-9.46-3.45-4.22-5.63-5.7-5.63-5.7z"/><linearGradient id="s" gradientUnits="userSpaceOnUse" x1="166.997" y1="1015.342" x2="364.045" y2="1015.342" gradientTransform="matrix(1 0 0 -1 78 1027)"><stop offset="0" stop-color="#fff" stop-opacity="0"/><stop offset="1" stop-color="#fff" stop-opacity=".3"/></linearGradient><path fill="url(#s)" d="M-79.45 151.58h333.03c8.5 0 12 18.08 12 18.08.52-1.04.53-2.63.95-3.71.81-2.09 1.73-4.2 2.46-6.3.78-2.24 1.87-4.26 1.73-6.67-.32-5.51-.27-11.14-.01-16.74.01-.28.24-.45.22-.75-.02-.29-.32-.61-.3-.87l.41-1.19c.03-.53-.34-.88-.3-1.41.03-.38.36-.86.41-1.32.27-2.58.4-5.19.84-7.78.43-2.49.71-4.8 1.32-7.24.32-1.28.34-2.63.54-3.95.12-.82.06-2.17.65-2.61l1.35-.12c-.75-1.75-1.19-6.75-1.19-6.75.56.62 2.56 1.94 2.56 1.94-1.19-3.75-1.44-10.38-1.44-10.38l.02-.01c2.03 3.61 4.79 5.95 4.79 5.95-1.81-4.38-1.5-10.56-1.5-10.56 1 2.12 3 4.12 3 4.12-.38-2.56.5-6.62.5-6.62 2.19 6.6 5.68 9.56 5.68 9.56-1.01-4.25-.41-8.85-.28-9.77 2.05 5.92 5.65 9.4 5.65 9.4-4.75-9.88-.81-19.75-.81-19.75-.25 3.62 1.38 7.56 1.38 7.56-.25-9.88 9-14.88 17.06-12.69 8.06 2.19 11.88.88 11.88.88l.1-.08c4.21 2.31 8.46 2.52 8.46 2.52l-.01-.01c-4.62 3.41-7.18 7.14-7.18 7.14 8.56-7.69 19.38-5.75 23.31-4.38 3.94 1.38 5.88.62 8-.44l5.45-1.66.42.15c6.07 2.28 11.86 1.73 13.29 1.55 5.15 3.04 10.28 3.04 13.15 2.39l.78-.17c5.77 3.11 12.71 1.91 12.71 1.91-.79.86-1.43 3.15-1.73 4.51.57-1.9 2.17-3.71 3.45-5.23-.55 2.61-.1 5.17-.09 7.82.21-1.64 1.7-2.46 2.16-3.93.43 1.16 1.08 2.59 1.07 3.82.52-.75 1.33-1.26 1.63-2.09.05.72.65 1.14 1 1.77.36.66.54 1.35.75 2.08.4 1.39.35 2.89.1 4.28.5-.96 1.37-1.7 1.93-2.62-.05 1.74-.42 3.77.12 5.45.72-.18 1.31-.35 2.13-.18-.12.3-.15.75-.07 1.13l.17-.18c.05.73-.29 2.16.87 1.63.03.52-.22.96-.18 1.48.51.05.49 1.73.66 2.31.32 1.14.58 2.32.95 3.46.74 2.31 1.26 4.91 1.73 7.34.53 2.67.57 5.44.97 8.11.08.56.33.95.46 1.48.2.87.03 1.83.19 2.71.24 1.29.34 2.58.54 3.88.46 3-.35 6.17.54 9.07.5 1.61.25 3.77.23 5.45-.03 2.47-.18 4.94-.33 7.4-.09 1.53-.37 2.76-.13 4.3.17 1.1-.15 2.04-.08 3.16.05.93.44 1.63.62 2.51.1.51-.16.99-.09 1.46.06.41.42.78.55 1.21.62 2.07.35 4.9.33 7.08l.16-.88c1.45-4.39 4.65-12.23 9.55-14.07h339.15v-304.72h-850.39v299.78z"/></g><g><linearGradient id="t" gradientUnits="userSpaceOnUse" x1="244.774" y1="848.463" x2="237.962" y2="854.088" gradientTransform="matrix(1 0 0 -1 78 1027)"><stop offset="0" stop-color="#fff" stop-opacity="0"/><stop offset="1" stop-color="#fff"/></linearGradient><path fill="url(#t)" d="M326.99 161.67c-2.1-.81-4.58-1.97-7.08-3.59-6.42-4.17-10.38-4.21-10.38-4.21s-13.75-1.79-20.58 17.04c0 0 2.96 3.21 10.88 5 0 0 2.96.98 10.5.98s14.04-.61 16.5-3.15 2.88-5.04 1.77-7.48c-1.1-2.43-1.61-4.59-1.61-4.59z"/><g><path fill="none" d="M322.36 177.92h-25.45l3.92-25.6 18.71 3.78z"/><path fill="#11485B" d="M316.32 174.88l.25-.37c2-2.25 3.26-5.56 3.26-9.26 0-6.79-4.25-12.29-9.5-12.29s-9.5 5.5-9.5 12.29c0 3.4 1.07 6.47 2.79 8.69.09.22.26.48.54.81 1.47 1.72-1 1.79-1 1.79s1.84.29 5.32.36h.12c1.37.03 2.98.02 4.83-.05 1.39-.05 2.91-.14 4.57-.27 0 0-2.77-.2-1.68-1.7z"/><path fill="#fff" d="M305.2 162.58c-1.61.64-1.55 3.74-1.55 3.74-.24-.84-.37-1.75-.37-2.71 0-3.82 2.14-6.74 4.78-7.45 1.28-.35 2.03.59 2.42 1.47.39.88.64 2.19-.94 3.58-1.58 1.4-2.73.74-4.34 1.37zm8.86 11.16s-1.24.61-1.11-1.02c.14-1.63 1.06-3.1 3.03-3.48l1.23 1.01c-.73 1.6-1.84 2.85-3.15 3.49z"/><linearGradient id="u" gradientUnits="userSpaceOnUse" x1="222.83" y1="862.06" x2="241.83" y2="862.06" gradientTransform="matrix(1 0 0 -1 78 1027)"><stop offset="0" stop-color="#27AAE1"/><stop offset="1" stop-color="#27AAE1" stop-opacity="0"/></linearGradient><path fill="url(#u)" d="M316.32 174.88l.25-.37c2-2.25 3.26-5.56 3.26-9.26 0-6.79-4.25-12.29-9.5-12.29s-9.5 5.5-9.5 12.29c0 3.4 1.07 6.47 2.79 8.69.09.22.26.48.54.81 1.47 1.72-1 1.79-1 1.79s1.84.29 5.32.36h.12c1.37.03 2.98.02 4.83-.05 1.39-.05 2.91-.14 4.57-.27 0 0-2.77-.2-1.68-1.7z"/><radialGradient id="v" cx="237.289" cy="864.438" r="12.729" gradientTransform="matrix(1 0 0 -1 78 1027)" gradientUnits="userSpaceOnUse"><stop offset="0" stop-color="#67A4BA"/><stop offset="1" stop-color="#67A4BA" stop-opacity="0"/></radialGradient><path fill="url(#v)" d="M316.32 174.88l.25-.37c2-2.25 3.26-5.56 3.26-9.26 0-6.79-4.25-12.29-9.5-12.29s-9.5 5.5-9.5 12.29c0 3.4 1.07 6.47 2.79 8.69.09.22.26.48.54.81 1.47 1.72-1 1.79-1 1.79s1.84.29 5.32.36h.12c1.37.03 2.98.02 4.83-.05 1.39-.05 2.91-.14 4.57-.27 0 0-2.77-.2-1.68-1.7z"/><radialGradient id="w" cx="228.914" cy="867.251" r="14.346" gradientTransform="matrix(1 0 0 -1 78 1027)" gradientUnits="userSpaceOnUse"><stop offset="0" stop-color="#fff"/><stop offset="1" stop-color="#fff" stop-opacity="0"/></radialGradient><path fill="url(#w)" d="M316.32 174.88l.25-.37c2-2.25 3.26-5.56 3.26-9.26 0-6.79-4.25-12.29-9.5-12.29s-9.5 5.5-9.5 12.29c0 3.4 1.07 6.47 2.79 8.69.09.22.26.48.54.81 1.47 1.72-1 1.79-1 1.79s1.84.29 5.32.36h.12c1.37.03 2.98.02 4.83-.05 1.39-.05 2.91-.14 4.57-.27 0 0-2.77-.2-1.68-1.7z"/><g fill="#756F67"><path d="M309.55 153.09l.09.01-.09-.01zM331.08 163.23c.52.07 1.06.14 1.59.15l-2.94-1.13c-.98-.36-1.93-.77-2.9-1.15-.94-.44-1.91-.81-2.81-1.32l-1.38-.72-1.32-.81-2.67-1.66c-.44-.29-.89-.55-1.38-.8l-1.44-.76-1.48-.65c-.49-.22-1.01-.38-1.52-.56-.51-.19-1.05-.31-1.58-.46-.55-.11-1.05-.23-1.7-.27-.66-.06-1.24-.08-1.85-.04-.63.02-1.25.11-1.88.2-.62.12-1.24.22-1.83.41l-.9.25-.88.33c-.6.2-1.16.48-1.72.76-.28.14-.57.27-.84.42l-.8.5c-.54.33-1.06.66-1.54 1.06s-1.01.74-1.45 1.19l-1.34 1.3c-.44.44-.8.95-1.21 1.42-.4.48-.8.95-1.12 1.48l-1.02 1.55c-.36.51-.6 1.08-.9 1.61l-.86 1.63-1.42 3.39-.24.58.45.46c.27.25.47.37.7.55l.69.44c.46.29.93.51 1.4.77l1.43.63c.48.21.98.35 1.46.53.48.18.97.33 1.47.45l1.48.39c.24.07.5.1.75.15l.75.13 1.5.27-1.43-.51-.71-.26c-.23-.09-.48-.16-.7-.27l-1.37-.62c-.46-.19-.9-.42-1.33-.67-.43-.25-.88-.46-1.29-.73l-1.22-.81c-.38-.3-.78-.58-1.13-.9l-.5-.46 1.09-2.68.8-1.54c.28-.51.5-1.05.83-1.53l.94-1.45c.29-.5.66-.94 1.03-1.39.37-.44.7-.91 1.1-1.33l1.21-1.22c.39-.42.87-.74 1.3-1.11.43-.38.91-.69 1.39-1l.71-.47c.25-.15.5-.27.75-.4.5-.27 1.01-.53 1.54-.72l.79-.32.82-.25c.54-.19 1.1-.28 1.66-.41.56-.09 1.12-.19 1.69-.22.55-.05 1.15-.05 1.64-.02l.09.01c.4.01.93.1 1.4.18.49.12.98.21 1.46.37s.97.29 1.44.48l1.42.57 1.37.67c.46.21.92.46 1.37.73l2.73 1.57 1.39.79 1.44.69c.95.49 1.95.84 2.93 1.26l.1.03.43 1.27c.12.4.35.85.55 1.33.19.49.47.98.72 1.48.52.99 1.1 1.93 1.57 2.62.47.69.81 1.12.81 1.12s-.3-.47-.68-1.2c-.39-.73-.86-1.73-1.25-2.75-.19-.51-.4-1.02-.53-1.51-.14-.49-.31-.94-.38-1.34l-.14-.64c.61.2 1.22.39 1.84.53.51.18 1.03.28 1.56.36z"/></g><linearGradient id="x" gradientUnits="userSpaceOnUse" x1="380.458" y1="845.477" x2="373.646" y2="851.102" gradientTransform="matrix(-.999 -.049 .049 -.999 703.085 1042.662)"><stop offset="0" stop-color="#fff" stop-opacity="0"/><stop offset="1" stop-color="#fff"/></linearGradient><path fill="url(#x)" d="M360.78 162.66c2.14-.71 4.67-1.75 7.24-3.24 6.61-3.85 10.57-3.7 10.57-3.7s13.82-1.12 19.73 18.02c0 0-3.11 3.06-11.1 4.47 0 0-3 .84-10.54.47-7.53-.37-14-1.29-16.33-3.95-2.33-2.66-2.63-5.18-1.41-7.56 1.23-2.38 1.84-4.51 1.84-4.51z"/><g><path fill="none" d="M364.62 179.12l25.41 1.23-2.66-25.76-18.87 2.87z"/><path fill="#11485B" d="M370.8 176.37l-.23-.38c-1.89-2.34-2.99-5.71-2.81-9.41.33-6.78 4.85-12.07 10.09-11.82s9.22 5.96 8.89 12.74c-.17 3.39-1.38 6.41-3.21 8.54-.1.21-.29.47-.58.79-1.55 1.65.91 1.84.91 1.84s-1.85.2-5.33.1h-.12c-1.36-.04-2.97-.13-4.82-.29-1.39-.12-2.9-.28-4.55-.5 0 .01 2.78-.06 1.76-1.61z"/><path fill="#fff" d="M372.18 164.21c-1.66.49-1.88 3.59-1.88 3.59-.16-.86-.21-1.78-.13-2.73.34-3.8 2.74-6.52 5.43-6.99 1.31-.23 1.97.77 2.28 1.68.32.91.44 2.23-1.26 3.48-1.69 1.25-2.78.49-4.44.97zm7.82 11.91s-1.29.5-1.01-1.12 1.33-2.99 3.33-3.19l1.14 1.11c-.87 1.54-2.08 2.68-3.46 3.2z"/><linearGradient id="y" gradientUnits="userSpaceOnUse" x1="358.515" y1="859.07" x2="377.517" y2="859.07" gradientTransform="matrix(-.999 -.049 .049 -.999 703.085 1042.662)"><stop offset="0" stop-color="#27AAE1" stop-opacity="0"/><stop offset="1" stop-color="#27AAE1"/></linearGradient><path fill="url(#y)" d="M370.8 176.37l-.23-.38c-1.89-2.34-2.99-5.71-2.81-9.41.33-6.78 4.85-12.07 10.09-11.82s9.22 5.96 8.89 12.74c-.17 3.39-1.38 6.41-3.21 8.54-.1.21-.29.47-.58.79-1.55 1.65.91 1.84.91 1.84s-1.85.2-5.33.1h-.12c-1.36-.04-2.97-.13-4.82-.29-1.39-.12-2.9-.28-4.55-.5 0 .01 2.78-.06 1.76-1.61z"/><radialGradient id="z" cx="305.647" cy="863.065" r="15.956" gradientTransform="matrix(1 0 0 -1 78 1027)" gradientUnits="userSpaceOnUse"><stop offset="0" stop-color="#67A4BA"/><stop offset="1" stop-color="#67A4BA" stop-opacity="0"/></radialGradient><path fill="url(#z)" d="M370.8 176.37l-.23-.38c-1.89-2.34-2.99-5.71-2.81-9.41.33-6.78 4.85-12.07 10.09-11.82s9.22 5.96 8.89 12.74c-.17 3.39-1.38 6.41-3.21 8.54-.1.21-.29.47-.58.79-1.55 1.65.91 1.84.91 1.84s-1.85.2-5.33.1h-.12c-1.36-.04-2.97-.13-4.82-.29-1.39-.12-2.9-.28-4.55-.5 0 .01 2.78-.06 1.76-1.61z"/><radialGradient id="A" cx="298.413" cy="866.251" r="15.853" gradientTransform="matrix(1 0 0 -1 78 1027)" gradientUnits="userSpaceOnUse"><stop offset="0" stop-color="#fff"/><stop offset="1" stop-color="#fff" stop-opacity="0"/></radialGradient><path fill="url(#A)" d="M370.8 176.37l-.23-.38c-1.89-2.34-2.99-5.71-2.81-9.41.33-6.78 4.85-12.07 10.09-11.82s9.22 5.96 8.89 12.74c-.17 3.39-1.38 6.41-3.21 8.54-.1.21-.29.47-.58.79-1.55 1.65.91 1.84.91 1.84s-1.85.2-5.33.1h-.12c-1.36-.04-2.97-.13-4.82-.29-1.39-.12-2.9-.28-4.55-.5 0 .01 2.78-.06 1.76-1.61z"/><g fill="#756F67"><path d="M378.62 154.94h-.09.09zM356.62 164.02c-.53.05-1.06.09-1.59.07l2.99-.99c.99-.31 1.97-.68 2.95-1 .96-.39 1.95-.72 2.87-1.18l1.41-.65 1.36-.74 2.75-1.53c.45-.26.92-.51 1.42-.73l1.47-.69 1.51-.58c.5-.2 1.03-.33 1.55-.49.52-.16 1.06-.25 1.6-.38.56-.09 1.06-.18 1.71-.19.66-.03 1.25-.02 1.85.05.63.05 1.25.17 1.86.29.61.15 1.22.28 1.81.5l.89.3.86.37c.58.23 1.13.53 1.68.84.27.15.55.3.82.46l.77.53c.52.35 1.03.71 1.49 1.14.46.42.97.79 1.39 1.26l1.28 1.37c.42.46.75.99 1.13 1.48.37.5.75.99 1.05 1.54l.95 1.6c.33.52.54 1.1.82 1.65l.78 1.67 1.25 3.46.21.59-.47.44c-.28.24-.48.35-.73.52l-.7.41c-.47.27-.96.47-1.43.7l-1.46.56c-.49.18-.99.3-1.49.46-.49.16-.99.28-1.49.38l-1.5.31c-.25.06-.5.07-.76.11l-.76.1-1.5.19 1.45-.44.72-.22c.24-.08.48-.13.72-.23l1.4-.55c.47-.17.92-.37 1.37-.6.44-.23.9-.42 1.32-.67l1.26-.75c.39-.29.8-.54 1.17-.84l.52-.43-.96-2.73-.72-1.58c-.26-.52-.45-1.08-.76-1.56l-.87-1.5c-.27-.51-.62-.97-.96-1.43-.35-.46-.66-.95-1.03-1.38l-1.14-1.28c-.37-.44-.83-.78-1.25-1.17-.41-.4-.87-.74-1.34-1.07l-.69-.5-.73-.44c-.49-.29-.98-.58-1.51-.8l-.77-.36-.81-.29c-.53-.21-1.09-.34-1.63-.49-.55-.12-1.11-.25-1.67-.3-.55-.08-1.15-.1-1.64-.1h-.09c-.4-.01-.93.06-1.41.12-.49.1-.99.16-1.48.3-.49.14-.99.24-1.47.41l-1.45.5-1.4.6c-.47.19-.94.41-1.4.66l-2.8 1.44-1.43.72-1.47.62c-.97.44-1.99.75-2.98 1.11l-.1.03-.5 1.25c-.14.4-.39.83-.61 1.3-.22.48-.52.95-.79 1.44-.56.96-1.2 1.88-1.7 2.54-.5.67-.87 1.08-.87 1.08s.32-.45.74-1.17c.42-.71.94-1.68 1.39-2.68.21-.51.45-1 .61-1.48.16-.48.35-.92.45-1.32l.17-.64c-.61.17-1.23.33-1.86.44-.54.11-1.07.18-1.6.24z"/></g></g><g><path opacity=".05" fill="#231F20" enable-background="new" d="M303.98 830.2h-383.43v-978.4h421.37v151.46c3.82 12.66 11.08 18.28 11.08 18.28l-3.33-1.75c-4.42 1.5-10.89 7.11-10.89 7.11-2.61 1.85-5 4.3-6.62 7.6-5.75 11.79 17.08 16.58 17.08 16.58-10.33-1.12-18.28-6.44-18.28-6.44s-11.22-7.23-14.55-20.52c0 0-1.5 10.96 1.75 18.06 0 0-4.5-2.52-8.81-8.88 0 0 .98 4.81 3.94 12.31 0 0-6.58-3.75-10.81-6.38 0 0 2.6 2.54 8.1 12.96 2.21 4.19 4.66 7.57 6.8 10.13 0 0-3.8-.97-7.91-1.47 0 0 4.29 2.29 7.77 5.75 3.47 3.46 2.46 3.05 6.03 5.17 0 0-.52.69-5.98.35 0 0-6.44 18.97-7.81 40.44-1.22 19.16-5.88 9.12-12.35 22.23 0 0 2.92-.56 8.79-1.19 0 0-1.29 1.87-1.79 6.85 0 0 1.37-.06 3.37 0 0 0-.33 6.79.21 11.61 0 0 9.34.54 15.78 3.37 0 0-6.61-1.58-10.36-.88 0 0-3.76-1.21-6.48-.62 0 0-4.83 6.92-.26 22.87 0 0 4.7.27 11.61-.25 2.7-.2 5.63.14 8.35.71 0 0-4.75-.64-9.06.44-4.31 1.08-16.62 4.89-16.62 13.67 0 8.78 7.22 8.66 8.09 22.97s.41 21.14 3.71 21.92c0 0 21.75 5.93 41.6 5.93 0 0-16.44.55-28.88-.63-12.44-1.19-13.38 3.56-12.53 11.16 0 0 2.06 22.12 8.12 28.12 6.06 6 17.11 14.55 39.4 8.59 0 0-8.21 4.06-23.52 3.14 0 0-3.94 13.24-12.62 21.49s-21.44-.5-21.44 20.69c0 8.2 1.07 15.99 2.34 22.61 0 0 17.22 6.16 26.22 24.61 0 0 14-11.58 29.54-20.88s28.56-21.37 34.18-34.15c0 0-1.36 11.19-29.13 37.6 0 0 2.85-3.95 15.48 1.17s33.44 8.87 43.88 6.56c0 0-1.5 6.44-9.69 6.44-4.35 0-14.32-.36-31.47-8.09-17.15-7.73-18.73-5.58-18.73-5.58s-9.92 8.89-17.51 15.31c-7.59 6.42-23.33 20.42-31.18 47.81-7.83 27.32-9.53 44.55-10.01 69.97l21.33.32 6.75 1.1s-9.84.75-18.34 1.58-9.67.25-9.67 3.42v6.13s25.02-.18 34.08 1.21c0 0-4.09.02-11.34.95-7.25.94-24.91.78-24.91 4.09 0 3.31.47 9.16-.91 11.97-1.38 2.81-3.78 7.72-.62 11.97 3.16 4.25 3.31 5.81 2.38 8.41-.94 2.59-3.16 6.09-1.81 11.91 1.34 5.81 2.19 8.16 1.62 12.03s-1.09 10.06-1.09 14.97c0 0-.65 13.45 2.35 25.45 0 0 7.33 27.33 5.33 44.33s-8 20.5-5.5 37.5 5 23.5 1.5 37 5 22 1.5 32.5 7.5 23 5 30.5 11.12 34.73-10.19 34.73z"/><path opacity=".1" fill="#231F20" enable-background="new" d="M435.62 172.71s-.88-3.27-2.29-5.18c0 0 .46 2.68 0 4.76 0 0-1-2.83-2.46-4.42 0 0 .46 2.1-.04 4.05 0 0-.93-2.45-1.92-3.34 0 0-.04 2.11-.29 2.93 0 0-.72-2.02-1.38-2.48 0 0-.04 1.17-.21 1.88 0 0-.08-.69-.89-1.47 0 0 2.35-5.57 6.06-7.16.01.01 4.6 1.16 3.42 10.43zM435.3 199.43s-1.96 3.01-3.67 4.1c0 0 .68-1.94.92-3.45 0 0-1.74 2.15-3 3.07 0 0 .41-1.23.51-2.59 0 0-1.55 1.96-2.29 2.41 0 0 .25-.36.42-2.14 0 0-.43.77-.84 1.08 0 0 .64 4.72 3.02 4.72 2.39 0 4.78-5.06 4.93-7.2zM251.33 168.2s1.05-3.22 2.57-5.05c0 0-.6 2.65-.26 4.76 0 0 1.15-2.77 2.69-4.28 0 0-.57 2.08-.18 4.05 0 0 1.06-2.4 2.1-3.23 0 0-.07 2.11.13 2.94 0 0 .82-1.98 1.51-2.4 0 0-.02 1.17.1 1.88 0 0 .11-.68.97-1.42 0 0-2.05-5.69-5.66-7.47.01 0-4.64.9-3.97 10.22zM250.44 194.89s1.8 3.07 3.42 4.22c0 0-.6-1.97-.78-3.48 0 0 1.61 2.21 2.81 3.17 0 0-.35-1.24-.41-2.61 0 0 1.44 2.01 2.14 2.48 0 0-.23-.37-.33-2.15 0 0 .39.78.78 1.11 0 0-.78 4.7-3.1 4.62-2.31-.07-4.46-5.21-4.53-7.36z"/><linearGradient id="B" gradientUnits="userSpaceOnUse" x1="114.488" y1="600.521" x2="106.559" y2="677.276" gradientTransform="matrix(.995 -.097 -.097 -.995 131.761 1038.703)"><stop offset="0" stop-color="#231F20"/><stop offset="1" stop-color="#231F20" stop-opacity="0"/></linearGradient><path opacity=".1" fill="url(#B)" enable-background="new" d="M173.58 399.57s10.04 9.9 18.43 29.76c0 0-4.03-50.04-13.32-75.54 0 0 7.06 21.92 9.64 61.94 0-.01-4.72-8.89-14.75-16.16z"/><linearGradient id="C" gradientUnits="userSpaceOnUse" x1="388.678" y1="626.274" x2="427.345" y2="666.275" gradientTransform="matrix(1 0 0 -1 78 1027)"><stop offset="0" stop-color="#231F20"/><stop offset="1" stop-color="#231F20" stop-opacity="0"/></linearGradient><path opacity=".1" fill="url(#C)" enable-background="new" d="M504.62 364s-17.12 7-38.38 38.75c0 0 13.53-17.44 27.88-29.25 2.13-1.75 4.13-5 10.5-9.5z"/><linearGradient id="D" gradientUnits="userSpaceOnUse" x1="444.084" y1="130.622" x2="482.752" y2="170.622" gradientTransform="matrix(.195 -.981 .981 .195 232.587 971.07)"><stop offset="0" stop-color="#231F20"/><stop offset="1" stop-color="#231F20" stop-opacity="0"/></linearGradient><path opacity=".1" fill="url(#D)" enable-background="new" d="M490.86 530.93s-10.21 15.43-45.5 30.07c0 0 19.74-9.87 34.13-21.63 2.13-1.73 5.71-3.06 11.37-8.44z"/><linearGradient id="E" gradientUnits="userSpaceOnUse" x1="453.366" y1="176.81" x2="478.926" y2="203.251" gradientTransform="matrix(-.171 -.985 .985 -.171 375.921 1049.36)"><stop offset="0" stop-color="#231F20"/><stop offset="1" stop-color="#231F20" stop-opacity="0"/></linearGradient><path opacity=".1" fill="url(#E)" enable-background="new" d="M492.26 543.53s-2.62 11.94-20.9 29.37c0 0 9.83-10.78 15.9-21.46.9-1.58 2.79-3.25 5-7.91z"/><linearGradient id="F" gradientUnits="userSpaceOnUse" x1="454.751" y1="184.223" x2="493.417" y2="224.222" gradientTransform="matrix(-.195 -.981 -.981 .195 515.393 971.07)"><stop offset="0" stop-color="#231F20"/><stop offset="1" stop-color="#231F20" stop-opacity="0"/></linearGradient><path opacity=".1" fill="url(#F)" enable-background="new" d="M202.47 530.93s10.21 15.43 45.5 30.07c0 0-19.74-9.87-34.13-21.63-2.13-1.73-5.71-3.06-11.37-8.44z"/><linearGradient id="G" gradientUnits="userSpaceOnUse" x1="444.021" y1="230.657" x2="469.58" y2="257.098" gradientTransform="matrix(.171 -.985 -.985 -.171 372.061 1049.36)"><stop offset="0" stop-color="#231F20"/><stop offset="1" stop-color="#231F20" stop-opacity="0"/></linearGradient><path opacity=".1" fill="url(#G)" enable-background="new" d="M201.07 543.53s2.62 11.94 20.9 29.37c0 0-9.83-10.78-15.9-21.46-.9-1.58-2.79-3.25-5-7.91z"/><linearGradient id="H" gradientUnits="userSpaceOnUse" x1="408.821" y1="542.4" x2="448.686" y2="608.342" gradientTransform="matrix(.998 .07 .07 -.998 45.316 993.646)"><stop offset="0" stop-color="#231F20"/><stop offset="1" stop-color="#231F20" stop-opacity="0"/></linearGradient><path opacity=".1" fill="url(#H)" enable-background="new" d="M500.55 456.07c-3.94 12.3-4.65 29.03-4.65 29.03 3.49-9.91 10.18-17.55 22.58-32.15 12.39-14.6 21.32-30.19 21.32-30.19s-16.04 22.73-28.98 35.71c-5.09 5.11-8.95 9.65-11.74 13.29 0 0 .06-3.3.33-6.63.28-3.34 1.14-9.06 1.14-9.06z"/><path opacity=".1" fill="#231F20" enable-background="new" d="M267.57 390.45"/><path opacity=".1" fill="#231F20" enable-background="new" d="M281.29 382.88c7.06-7.12 16.21-16.39 23.64-18.94l11.36.67s-13.56-6.02-31.32 20.14c-10.73 15.79-15.05 12.96-17.4 5.7 0 0 6.66-.45 13.72-7.57zM327.23 450.5c2.11-6.52 7.72-4 3.61-5.88-2.77-.95-7.56 3.03-8.25 8.03-.69 5 1.34 8.59 4.2 9.03 0 0 1.25.38 3.16.19 0 0 2.76-.23 4.38-3.14-4.57 2.58-9.21-1.72-7.1-8.23z"/><g opacity=".1" fill="#231F20"><path d="M335.66 392l-2.75-5.75s-4.71 3.71-10.06 13.69c.01-.32-.94 6.62-8.04 5.54 0 0-7.86-2.53-4.31-11.78-2.16 1.09-3.43 4.11-2.92 7.41.54 3.46 3.61 5.99 6.17 6.29 2 .24 4.42-.25 6.26-1.65-5.89 13.25-11.69 34.36-12.23 66.59.01 0 3.22-54.34 27.88-80.34zM310.52 393.64l-.02.06.03-.02-.01-.04zM335.66 392l-2.75-5.75s-4.71 3.71-10.06 13.69c.01-.32-.94 6.62-8.04 5.54 0 0-7.86-2.53-4.31-11.78-2.16 1.09-3.43 4.11-2.92 7.41.54 3.46 3.61 5.99 6.17 6.29 2 .24 4.42-.25 6.26-1.65-5.89 13.25-11.69 34.36-12.23 66.59.01 0 3.22-54.34 27.88-80.34zM310.52 393.64l-.02.06.03-.02-.01-.04z"/></g><path opacity=".1" fill="#231F20" enable-background="new" d="M335.54 76s-4.41 3.62-6.92 13.12c0 0 5.56-10.45 17.5-9.46 12.54 1.03 11.42-4.37 18.41-4.16 0 0-3.98-1.67-9.7 1.08s-11.88-1.87-19.29-.58zM281.41 165.04s-11.38-.92-17.08-.67l-1.29-3.17h18.62l-.25 3.84zM405.96 168.89s10.99-.65 16.5-.29l1.31-3.03-17.97-.39.16 3.71zM343.81 161.21l-8.56.84s-.08 2.04.63 3.69c0 0 .25-.92.23-1.33-.03-.63.75-.95 7.66-.77 6.91.19 7.68.55 7.61 1.18-.04.41.16 1.34.16 1.34.8-1.61.83-3.65.83-3.65l-8.56-1.3zM348.81 394.83s0 4.06-5.43 8.6c-3.09.16 2.36-9.96 5.43-8.6z"/><path opacity=".1" fill="#1F1B0A" enable-background="new" d="M201.33 527.55c.93 23.25 3.28 34.05 6.71 46.08 4 14 6 21.25 6.5 40s-1.62 22.62.75 39.5.75 17.62-2.12 27-9.5 25.62 6.62 43.62c0 0-4.38-1.38-8.62-4s-3.62-2.75-3.25 5.88-1.76 23.84-2.38 32.5c-1.25 17.62 12.38 47.12 10.12 57.5h-32.5v-222.93l12.75-62.45c2.61-13.51 10-41.75 10-41.75s-4.42 19.35-4.58 39.05zM182.41 490.19"/><path opacity=".1" fill="#1F1B0A" enable-background="new" d="M490.72 514.38c-.92 22.1 2.95 31.77-.5 48.02-3.44 16.25-2.31 24.36-2.31 24.36 1.28 13-1.42 28.42-1.58 40.25s-10.33 22.83-8.83 42.83-3.59 40.52 0 54.17 4.25 29.61 6.1 41.36c1.86 11.75 19.15 35.8 19.15-18.2v-183l-7.54-34.01c-.01 0-3.45-9.35-4.49-15.78z"/></g><g><linearGradient id="I" gradientUnits="userSpaceOnUse" x1="326.091" y1="919.451" x2="316.758" y2="892.618" gradientTransform="matrix(1 0 0 -1 78 1027)"><stop offset="0" stop-color="#fff"/><stop offset="1" stop-color="#fff" stop-opacity="0"/></linearGradient><path opacity=".6" fill="url(#I)" enable-background="new" d="M392.79 109.62s2 6.37 2.42 11.25 3 6.04 6.33 9.08 7.67 7.46 5.79 1.08-8.79-20.04-11.42-23.5-5.49-3.91-3.12 2.09z"/><linearGradient id="J" gradientUnits="userSpaceOnUse" x1="270.694" y1="848.001" x2="270.694" y2="824.109" gradientTransform="matrix(1 0 0 -1 78 1027)"><stop offset="0" stop-color="#fff"/><stop offset="1" stop-color="#fff" stop-opacity="0"/></linearGradient><path opacity=".6" fill="url(#J)" enable-background="new" d="M343.92 182.75v10.58s-.29 3.62 1.08 4.38 3.5 2.04 5.08 3.79 3.42 1.46 3.42-1.5-2.04-9.58-4.12-14.38-1.92-7.08-3.79-7.08-1.67 2.67-1.67 4.21z"/><linearGradient id="K" gradientUnits="userSpaceOnUse" x1="327.683" y1="848.159" x2="327.683" y2="832.555" gradientTransform="matrix(-1 0 0 -1 663.317 1027)"><stop offset="0" stop-color="#231F20"/><stop offset="1" stop-color="#231F20" stop-opacity="0"/></linearGradient><path opacity=".05" fill="url(#K)" enable-background="new" d="M338.76 181.29v6.91s.19 2.37-.71 2.86c-.9.49-2.29 1.33-3.32 2.48-1.03 1.14-2.23.95-2.23-.98s1.33-6.26 2.69-9.39c1.36-3.13 1.25-4.63 2.48-4.63 1.22 0 1.09 1.74 1.09 2.75z"/><linearGradient id="L" gradientUnits="userSpaceOnUse" x1="283.053" y1="763.331" x2="276.886" y2="745.664" gradientTransform="matrix(1 0 0 -1 78 1027)"><stop offset="0" stop-color="#fff"/><stop offset="1" stop-color="#fff" stop-opacity="0"/></linearGradient><path opacity=".6" fill="url(#L)" enable-background="new" d="M360.12 264.44s-2.85-.42-5.26 3.08c-2.41 3.51-3.55 7.32-2.24 10.85 1.31 3.53 3.97 4.72 7.32 1.03 3.34-3.69 3.93-8.58 3.93-10.54-.01-1.96-1.32-4.42-3.75-4.42z"/><linearGradient id="M" gradientUnits="userSpaceOnUse" x1="293.912" y1="709.232" x2="286.911" y2="680.732" gradientTransform="matrix(1 0 0 -1 78 1027)"><stop offset="0" stop-color="#fff"/><stop offset="1" stop-color="#fff" stop-opacity="0"/></linearGradient><path opacity=".6" fill="url(#M)" enable-background="new" d="M368.92 319.52s-.51 3.32-1.64 5.83c-1.13 2.51-1.74 4.41-.74 7.22s.48 4.51-.52 6.83-2.83 8.22.13 5.19c2.96-3.03 4.7-8.02 4.83-11.73.13-3.71.64-15.21-1-15.21-.93 0-1.06 1.87-1.06 1.87z"/></g><g><g><linearGradient id="N" gradientUnits="userSpaceOnUse" x1="-76.336" y1="475.313" x2="129.661" y2="475.313" gradientTransform="matrix(1 0 0 -1 78 1027)"><stop offset="0" stop-color="#FFDEC5"/><stop offset="1" stop-color="#FFDEC5"/></linearGradient><path fill="url(#N)" d="M187.02 573.76c0 8.15.1 103.49.1 103.49h-186.42v-251.13h120.54v11.3s-4.37 25.61.11 34.26c4.48 8.65-1.94 8.86-3.52 21.46 0 0 37.81.81 63 15.77 27.17 18.76 9.92 30.51 6.19 64.85z"/></g><g fill="#1F1B0A"><path opacity=".1" enable-background="new" d="M99.91 468.67l1.5-34.36c2.42-45.11-78.08 6.05-52.77 6.05s41.94 22.72 32.36 35.39l-10.75 22.99c6-6.5 11.42-8.79 11.42-8.79l3.25-1.46s7.04-2.94 13.68.69c0 0-1.35-4.94-5.86-6.5l6.63-9.65s2.62-1.66 7.87.34c-.01.01-2.7-3.38-7.33-4.7zM35.16 526.33v149.5c15.92 0 104 2.67 72.06-18.37-14.4-9.48-24.34-34.72-32.01-56.09l-18.08-58.54c1.39-.58 3.03-2 3.03-2-1.58.17-3.92-.58-3.92-.58 1.92-.75 5.58-3.33 5.58-3.33-4.08.33-8.14-.75-8.14-.75 4.52-.92 10.23-4.64 10.23-4.64-2.58.27-7.89.43-7.89.43s-12.44.12-20.86-5.63zM146.62 670.17s3.42-.08 2.67.67-3.58 5.12 3.54 2.71 14.12 6.67-5.5 6.67-33.08-11.42-14.12-11.42c2.37.78 13.41 1.37 13.41 1.37zM74.38 530.45s13.01.3 21.16-2.13c0 0-3.06 2.88-6.25 3.62 0 0 4 .79 9.06-.31 0 0-1.18 1.62-3.5 2.5 0 0 3.06.31 5.12-.12 0 0 22.35 20.4 36.99 39.92 0 0 4.76 5.89-.55-1.54l-6.99-10.4s-3.13-25.82-.45-46.73c0 0 1.38-15 8.75-15.12s29.17 2.71 45.43 11.76c0 0-4.74-7.97-29.81-13.88-13.1-4-35.33-4.83-35.33-4.83s.96 11.35-2.55 14.43l2.9 41.72-20-27.91s-4.19 2.7-9.2 4.77c-5 2.05-14.78 4.25-14.78 4.25z"/></g><g><linearGradient id="O" gradientUnits="userSpaceOnUse" x1="39.333" y1="592.761" x2="35.056" y2="575.349" gradientTransform="matrix(1 0 0 -1 78 1027)"><stop offset="0" stop-color="#fff" stop-opacity=".7"/><stop offset="1" stop-color="#fff" stop-opacity="0"/></linearGradient><path opacity=".6" fill="url(#O)" enable-background="new" d="M113.82 434.5s2.39-1.41 4.8 1.09c1.17 1.21-.8 5.24-1.05 13.49s-2.5-2.42-2.67-7.08-4.16-5.5-1.08-7.5z"/><linearGradient id="P" gradientUnits="userSpaceOnUse" x1="2.858" y1="527.051" x2="-2.975" y2="503.3" gradientTransform="matrix(1 0 0 -1 78 1027)"><stop offset="0" stop-color="#fff" stop-opacity=".7"/><stop offset="1" stop-color="#fff" stop-opacity="0"/></linearGradient><path fill="url(#P)" d="M93.83 512.92c0-5.57-5.5-15.75-13.83-9.5s-18.5 3.93-18.5 9.5 3.67 9.25 13.17 9.08 19.16-3.52 19.16-9.08z"/><linearGradient id="Q" gradientUnits="userSpaceOnUse" x1="-31.477" y1="517.025" x2="-34.363" y2="505.273" gradientTransform="matrix(1 0 0 -1 78 1027)"><stop offset="0" stop-color="#fff" stop-opacity=".7"/><stop offset="1" stop-color="#fff" stop-opacity="0"/></linearGradient><path fill="url(#Q)" d="M54.91 516.04c0 3.06-3.25 8.29-9.92 5.54s-9.92-2.48-9.92-5.54 4.92-3.38 11.5-4.62 8.34 1.56 8.34 4.62z"/><linearGradient id="R" gradientUnits="userSpaceOnUse" x1="100.578" y1="498.897" x2="88.105" y2="448.113" gradientTransform="matrix(1 0 0 -1 78 1027)"><stop offset="0" stop-color="#fff" stop-opacity=".7"/><stop offset="1" stop-color="#fff" stop-opacity="0"/></linearGradient><path opacity=".5" fill="url(#R)" enable-background="new" d="M174.83 527.83s5.83 1.67 5.33 7-6.83 29.5-7 39.83-3 .33-1.67-11.5-2.5-17.5 1.33-22.5-5.32-15.33 2.01-12.83z"/><linearGradient id="S" gradientUnits="userSpaceOnUse" x1="53.078" y1="469.703" x2="40.271" y2="417.564" gradientTransform="matrix(1 0 0 -1 78 1027)"><stop offset="0" stop-color="#fff" stop-opacity=".7"/><stop offset="1" stop-color="#fff" stop-opacity="0"/></linearGradient><path opacity=".5" fill="url(#S)" enable-background="new" d="M106.16 552.83s22.83 19.17 35.5 49.83-4.5-6-11.83-11.5-6-15-12.5-18.67-20-27.66-11.17-19.66z"/><path opacity=".3" fill="#fff" enable-background="new" d="M119.86 454.66c.83-1.38 1.53-3.86 1.82-6.1.84-8.18.08-10.51.05-10.6l-.95.32c.01.02.58 2.1-.22 9.96-.27 2.11-.59 3.95-1.22 5.19l.52 1.23z"/></g></g><g><g><linearGradient id="T" gradientUnits="userSpaceOnUse" x1="417.331" y1="475.139" x2="613.447" y2="475.139" gradientTransform="matrix(1 0 0 -1 78 1027)"><stop offset="0" stop-color="#FFDEC5"/><stop offset="1" stop-color="#FFEFD4"/></linearGradient><path fill="url(#T)" d="M504.62 573.76c0 8.15-6.91 103.83-6.91 103.83l193.22-.35v-251.12h-120.54v11.3s4.37 25.61-.11 34.26c-4.48 8.65 1.94 8.86 3.52 21.46 0 0-37.81.81-63 15.77-27.16 18.76-9.91 30.51-6.18 64.85z"/></g><g><path opacity=".1" fill="#1F1B0A" enable-background="new" d="M591.72 468.67l-1.5-34.36c-2.42-45.11 78.08 6.05 52.77 6.05-25.31 0-41.94 22.73-32.36 35.39l10.75 22.99c-6-6.5-11.42-8.79-11.42-8.79l-3.25-1.46s-7.04-2.94-13.68.69c0 0 1.35-4.94 5.86-6.5l-6.63-9.65s-2.62-1.66-7.87.34c.02.01 2.71-3.38 7.33-4.7zM658.04 525.25s-.73 46.46-.73 84.38c-13.46 0-39.53 2.33-33.04-15.75l14.46-52.61c-1.17-.49-2.56-1.69-2.56-1.69 1.34.14 3.31-.49 3.31-.49-1.62-.63-4.72-2.82-4.72-2.82 3.45.28 6.89-.63 6.89-.63-3.83-.77-8.65-3.93-8.65-3.93 2.25.58 7.33-.02 7.33-.02s10.59-1.58 17.71-6.44zM548.12 670c-10.88 1.05-20.82-28.79-26.62-55.67-5.91-27.4-7-47.17-14.17-77.33l47-41.5s-55.58 3.42-59.67 37.83c16.59 54.34 26.34 146.88 26.34 146.88h23.31c19.62 0 33.44-11.27 14.49-11.27-2.13 0-10.68 1.06-10.68 1.06zM555.22 572.38c-5.61 7.22-.55 1.54-.55 1.54 14.64-19.52 36.99-39.92 36.99-39.92 2.06.44 5.12.12 5.12.12-2.31-.88-3.5-2.5-3.5-2.5 5.06 1.09 9.06.31 9.06.31-3.19-.75-6.25-3.62-6.25-3.62 8.15 2.44 21.16 2.13 21.16 2.13s-9.78-2.2-14.79-4.26c-5.01-2.07-9.2-4.77-9.2-4.77s-23.3 32.01-38.04 50.97z"/><path opacity=".1" fill="#231F20" enable-background="new" d="M580.5 433.42s-6.75-.92-6.5 4.67 3.83 17 3.25 27.75-2.92 10-.58 15.17 5.33 9.17 5.33 16.42 2.33 14.08 14 23.5-15.4-8.97-20.16-13.32c0 0-3.01-3.1-2.17-15.18s-10.17-10.81-3.83-20.25c7.67-11.42-3.25-37.75 2.92-39.42 7.49-2.04 9.99.41 7.74.66"/></g><g><linearGradient id="U" gradientUnits="userSpaceOnUse" x1="549.692" y1="526.727" x2="522.358" y2="503.395" gradientTransform="matrix(1 0 0 -1 78 1027)"><stop offset="0" stop-color="#fff" stop-opacity=".7"/><stop offset="1" stop-color="#fff" stop-opacity="0"/></linearGradient><path fill="url(#U)" d="M597.8 512.92c0-5.57 5.5-15.75 13.83-9.5s18.5 3.93 18.5 9.5-3.67 9.25-13.17 9.08-19.16-3.52-19.16-9.08z"/><linearGradient id="V" gradientUnits="userSpaceOnUse" x1="576.89" y1="519.774" x2="558.89" y2="501.774" gradientTransform="matrix(1 0 0 -1 78 1027)"><stop offset="0" stop-color="#fff" stop-opacity=".7"/><stop offset="1" stop-color="#fff" stop-opacity="0"/></linearGradient><path fill="url(#V)" d="M636.72 516.04c0 3.06 3.25 8.29 9.92 5.54 6.67-2.75 9.92-2.48 9.92-5.54s-4.92-3.38-11.5-4.62c-6.59-1.25-8.34 1.56-8.34 4.62z"/><linearGradient id="W" gradientUnits="userSpaceOnUse" x1="1180.775" y1="401.659" x2="1167.969" y2="349.52" gradientTransform="matrix(.543 .84 .84 -.543 -347.161 -183.369)"><stop offset="0" stop-color="#fff" stop-opacity=".7"/><stop offset="1" stop-color="#fff" stop-opacity="0"/></linearGradient><path opacity=".5" fill="url(#W)" enable-background="new" d="M621.48 566.82s-3.7 29.58-22.57 56.87c-18.88 27.29 2.59-7.04 3.23-16.18.64-9.14 9.34-13.18 8.89-20.63-.45-7.46 12.37-31.82 10.45-20.06z"/><path opacity=".3" fill="#fff" enable-background="new" d="M571.68 454.25c-1.04-1.65-1.44-3.45-1.73-5.69-.84-8.18-.08-10.51-.05-10.6l.95.32c-.01.02-.58 2.28.23 10.13.27 2.11.58 3.78 1.21 5.01l-.61.83z"/><linearGradient id="X" gradientUnits="userSpaceOnUse" x1="483.099" y1="524.894" x2="494.623" y2="477.974" gradientTransform="matrix(1 0 0 -1 78 1027)"><stop offset="0" stop-color="#fff" stop-opacity=".7"/><stop offset="1" stop-color="#fff" stop-opacity="0"/></linearGradient><path fill="url(#X)" d="M568.66 505s.33 34-1 40.5-3 4.5-4-5.17-5.33-8.83-.83-19.17-.17-17 2.83-19.17 3 .01 3 3.01z"/></g></g></g></g><path fill="#fff" d="M437.23 453.88c-1.01.24-1.11.11-1.96-.43-.53-.33-1.15-.57-1.78-.6.13-1.14-.04-2.49-.9-3.33.49-.88-.55-2.38.17-3.13.37-.39 1.17-.41 1-1.17-.1-.47-.45-.68-.67-1.08-.21-.37-.27-.99-.66-1.24-.68-.43-1.86-.25-2.32-1.02.03-.01.28-.07.18-.36-.04-.12-.14-.39-.3-.67l7.22-5.18.43.82.63-.44-1.38-2.07-.42.19c.1.3.27.59.42.87l-7.23 5.34c-.26-.27-.6-.46-1.03-.4-1.06.15-.67 1.23-1.14 1.85-.28.48-.95.59-1.22.97-.14.19-.78.22-.51.8.23.49.5 1.03 1.03 1.53-.2.28-.54.39-.76.64-.27.31-.25.74-.43 1.09-.33.65-1.5 1.37-1.26 2.18.13.45.72.96 1.37.68.07 1.49.34 2.99.71 4.44.12.5.26 1 .42 1.49-.1.42-.17.84-.19 1.27-.04 1 .08 2.19.5 3.11-.7.79-1.09 1.7-1.67 2.57-.51.77-.36 2.4-.51 3.34-.1.6-.05 1.24.13 1.83.1.34.55.63.55.95 0 .58 1.54 2.17 1.89 1.68.19-.28.15-1.4-.22-1.55-.31-.12-.83-.17-.94-.41-.3-.69-.36-1.94-.24-2.67.07-.45.38-.8.32-1.27-.04-.33-.14-.61.08-.88.7-.86 1.86-1.2 2.63-2.05.3.13.64.24 1.03.3.26 1.25-.32 2.24-.6 3.41-.13.56.06 2 .41 2.45.1.14.28.19.47.27-.29.61-.37 1.31-.69 1.91-.28.51-1.46 1.72-1.02 2.25.1.12.75-.1 1.22-.24.43-.12.48-1.11.67-1.51.24-.52.51-1.07.7-1.61.12.04.26-.06.52-.14.42-.14.85-.73.61-.93-.1-.08-.3-.2-.5-.31.2-.45.3-.88.59-1.28.21-.29-.07-1.24-.04-1.63.09-1.4.15-2.33.79-3.6.37 1.05 0 .52-.17 1.55-.19 1.12.49.87 1 .53.19-.13.45-.54.74-.98.06 1.58-.15 3.29-.76 4.77-.26.65-.41 1.51-.46 2.21-.04.48-.89 1.07-.71 1.61.1.31 1.24.05 1.36-.16.16-.29.16-.74.12-1.06-.05-.44.36-.74.46-1.15.08-.38.37-2.25.65-2.37.67-.29.49-1.38.62-1.92.17-.7 1.1-1.38.85-2.17-.23-.71.05-1.34.39-2 .81-1.6.53-3.03-.43-4.54.05-.16.12-.26.2-.28.7-.17.44.88 1.51.61 1.05-.32-.69-1.86-1.47-1.68-.43.11.78-.18 0 0zm-9.33-11.02c.38.12.27.85.64.8-.3.22-.62.96-.74 1.32-.29-.59-.65-.77-.74-1.42-.05-.36.36-.94.7-1.08-.04.14-.08.31.14.38zm-.99 6.76c.05.28.12.72.18 1.26-.2-.31-.51-.73-.88-1l-.02-.31c.25-.02.5 0 .72.05.05.28-.22-.05 0 0zm-.64.9c1.14 1.18 1.06 2.74.76 4.26-.19-.77-.58-2.47-.76-4.26.22.24.18 1.79 0 0zm4.62 16.01c-.15-.35.12-1.19.32-1.78.17.68.02 1.34-.21 1.99l-.11-.21z"/></g></g><g><linearGradient id="Y" gradientUnits="userSpaceOnUse" x1="38.81" y1="528.507" x2="497.357" y2="528.507" gradientTransform="matrix(1 0 0 -1 78 1027)"><stop offset="0" stop-color="#104351"/><stop offset=".5" stop-color="#175E77"/><stop offset="1" stop-color="#238AC4"/></linearGradient><path fill="url(#Y)" d="M338.33 498.46c-9.8-1.66-20.33-1.78-30.17-.29 11.59 2.03 23.94 1.85 35.67 1.42-1.81-.49-3.65-.83-5.5-1.13-1.67-.28 1.66.27 0 0z"/><linearGradient id="Z" gradientUnits="userSpaceOnUse" x1="37.669" y1="628.135" x2="498.519" y2="628.135" gradientTransform="matrix(1 0 0 -1 78 1027)"><stop offset="0" stop-color="#104351"/><stop offset=".5" stop-color="#175E77"/><stop offset="1" stop-color="#238AC4"/></linearGradient><path fill="url(#Z)" d="M347.63 397.44c.52-.66 1.79-2.38.89-3.19-1.53-1.14-4.2 2.52-4.92 3.47-.7.97-1.36 2.04-1.77 3.17-.24.67-.67 2.31.2 2.69 1.4.61 2.52-1.18 2.96-2.28-.62.38-1.21 1.27-1.9 1.19s1.13-2.92 1.97-4.15c.71-1.03 2.52-3.71 2.97-3.34s-.18 1.68-.4 2.44zm-4.9 4.99z"/><linearGradient id="aa" gradientUnits="userSpaceOnUse" x1="38.81" y1="643.773" x2="497.357" y2="643.773" gradientTransform="matrix(1 0 0 -1 78 1027)"><stop offset="0" stop-color="#104351"/><stop offset=".5" stop-color="#175E77"/><stop offset="1" stop-color="#238AC4"/></linearGradient><path fill="url(#aa)" d="M484.19 346.46c3.86 1.03 8.05.87 11.81 2.02 1.02.34 2.05.63 3.1.87 3.15.56 6.39-.19 9.52.53.47.12.93.26 1.38.44 2.64.83 5.77 2.25 8.17 3.59.38.21.79.62 1.13.9.88.97 1.62 2.09 2.24 3.25 1.01 1.92 2.66 4.13 4.5 5.69 5.35 4.66 11.36 8.31 16.49 13.31 3.4 3.28 6.48 6.93 9.13 10.88 2.61 3.98 4.76 8.27 6.33 12.78 4.16 11.64 8.33 23.39 11.96 35.2l2-1.61c-3.44-11.59-7.73-22.97-11.57-34.43-1.64-4.71-3.9-9.19-6.64-13.33-2.77-4.11-5.98-7.9-9.5-11.27-5.17-5.02-11.25-8.66-16.62-13.36-1.69-1.48-2.86-2.98-4.02-5.09-.73-1.33-1.58-2.62-2.62-3.73-.46-.39-1-.91-1.51-1.2l-.83-.46c-2.28-1.22-5.27-2.47-7.76-3.28-.57-.23-1.15-.4-1.74-.54-3.19-.7-6.45.09-9.65-.47-.98-.22-1.95-.48-2.91-.8-4.22-1.24-8.91-1.16-13.24-2.28-6.43-1.67-12.66-4.07-18.92-6.27-11.08-3.89-22.12-7.86-33.13-11.96-1.32-3.97-3.5-7.53-6.2-10.27-2.78-2.95-6.09-5.33-8.9-8.25-2.47-2.38-4.05-5.47-6.38-7.97-2.08-2.3-4.21-4.02-6.08-5.23-1.66-1.09-3.43-2.04-5.28-2.75.18-10.87 1.27-21.73 2.23-32.55l-.99-.1c-.87 7.47-1.73 14.94-2.33 22.43-.85 11.42-.12 22.68-.56 34.08-.14 3.22-.55 6.49-1.48 9.69-.93 3.2-2.4 6.29-4.35 9.16-7.55 10.68-16.16 20.1-25.57 29.12-9.69 9.02-20.46 16.96-29.44 26.71-3.26-7.27-6.96-14.04-12.18-20.11-2.59-2.84-5.7-5.68-9.42-8.05-8.05-5.23-17.04-7.56-23.71-14.76-3.34-3.59-5.8-8.05-7.13-12.85-3.94-13.8-.69-28.93-.94-43.03-.23-12.5-.4-24.99-.57-37.49l-1.85.04c.4 12.24.8 24.47 1.15 36.71-.24.18-.66.52-1.28 1.08-3.49 3.22-5.51 7.44-7.64 11.59-3.73 7.04-9.84 12.22-12.88 19.8-.48 1.2-.9 2.45-1.27 3.72-11.83 4.31-23.66 8.55-35.56 12.65-6.17 2.14-12.34 4.41-18.76 5.69-3.69.74-7.3.73-10.92 1.83-.82.22-1.74.33-2.71.37-1.93.08-4.08-.2-6.42.06-1.16.12-2.37.4-3.51.88-2.76 1.43-5.82 2.16-8.5 3.72-.52.4-1.02.81-1.52 1.24l-1.23 1.46c-2.33 2.89-3.61 5.83-6.56 8.26-5.75 4.25-11.42 8.37-16.5 13.45-6.89 6.83-12.47 15.38-15.55 24.85-3.44 10.8-7.41 21.43-10.81 32.24 2.03 1.36 1.77 4.07 1.77 4.07 3.59-11.92 8.14-23.53 11.99-35.36 2.9-8.98 8.14-17.09 14.75-23.68 4.37-4.39 9.17-8.29 14.23-11.84 4.17-2.93 5.94-6.49 9.07-10.28.31-.37.62-.74.92-1.11l.53-.44c2.31-2 5.85-2.55 8.55-3.99.85-.36 1.76-.59 2.71-.7 1.91-.24 3.99-.01 6.21-.11 1.1-.05 2.25-.2 3.4-.53 2.91-.92 5.65-1.07 8.66-1.49 6.38-1.19 12.51-3.33 18.59-5.54 12.3-4.48 24.52-9.13 36.71-13.93-4.7 18.56-1.01 39.02 3.27 57.33.25.68.42 1.36.78 2.02.62 1.31 1.62 2.65 3.12 3.41 1.49.79 3.17.78 4.55.51 1.42-.26 2.7-.76 3.87-1.35 6.23-3.13 10.87-8.43 15.76-13.26 21.47 40.14 15.91 87.85 14.82 131.53l.01-.09c-.07.72.07 1.37.49 1.99.44.6 1.14.93 1.75 1.03 5.37.82 11.38.15 16.85.31 7.7.23 15.81 1.58 23.47.91.31-.03.68-.12 1.05-.31.38-.2.7-.58.87-.94.31-.74.29-1.35.28-1.92-.91-29.52.76-59.81 7.21-88.71 4-19.36 10.72-40.06 25.47-53.92 13.77 5.16 29.16 8.48 43.88 6.26 1.34-.27 2.63-.83 3.68-1.71 2.07-1.79 3.23-4.27 3.93-6.74.34-1.24.61-2.52.69-3.83.9-10.68.47-22.91-1.82-33.39 17.2 6.7 34.58 14.19 52.43 19 .48.12-.95-.26 0 0zm-201.02 32.94c-1.63 1.58-3.3 3.18-5.08 4.67-1.74 1.44-3.77 2.74-5.86 3.77-.83.45-2.18.99-3.19 1.08-1.07.2-2.08.13-2.88-.27-.82-.39-1.48-1.19-1.97-2.18-.28-.47-.43-1.05-.64-1.59-3.64-16.06-7-31.22-6.03-47.87.43-4.9 1.42-9.57 3.05-13.75 2.96-7.58 9.1-12.67 12.88-19.67 2.07-3.98 4.13-8.05 7.55-11.08l.37-.32c.38 13.9-2.77 28.64 1.14 42.25 1.39 4.94 3.95 9.55 7.34 13.29 6.53 7.14 15.13 9.53 23.07 14.7-.83-.15-1.76-.23-2.8-.22-2.43.08-5.35.77-8.33 2.26-2.99 1.47-6.04 3.63-9.14 6.19-3.11 2.57-6.24 5.57-9.48 8.74-1.63 1.58 3.24-3.17 0 0zm94.48-12.55c-14.71 13.45-20.58 36.74-24.42 55.43-5.86 28.51-7.35 58.23-6.23 87.25.03.45-.01.9-.11 1.12-.06.09-.07.13-.15.18-.09.04-.22.1-.42.11-7.1.78-14.81-.57-21.97-.73-5.82-.13-12.13.5-17.88-.21-.4-.06-.68-.23-.86-.46-.18-.22-.27-.64-.24-.94.51-43.72 5.99-92.79-14.67-133.16 3.62-3.5 7.46-6.96 11.93-9.34 2.73-1.52 5.37-2.29 7.56-2.47 2.2-.13 3.93.24 5.05.63.25.07.47.15.66.24 9.09 6.97 14.26 16.81 18.45 27.21-1.91 2.18-3.69 4.43-5.31 6.77-14.61 20.76-19.69 49.01-21.25 73.89 2.45-18.56 6.53-37.23 13.61-54.61 2.47-6 5.56-12.13 9.67-17.85 9.9-13.88 24.15-23.49 36.33-35.16.85-.47 2.36-.79 4.39-.59 1.93.18 4.28.8 6.92 1.71l-1.06.98zm54.3-24.75c.35 6.14.67 12.45.11 18.58-.07 1.19-.33 2.38-.66 3.53-.66 2.3-1.76 4.49-3.46 5.94-.85.71-1.88 1.13-2.92 1.35-9.08 1.32-18.07.05-27.03-1.59-8.85-1.72-17.11-6.79-26.03-7.69-.65-.07-1.27-.09-1.87-.07 8.5-8.16 16.09-17.08 22.8-26.78 2.04-3.07 3.59-6.42 4.54-9.84.96-3.43 1.35-6.89 1.46-10.22.24-7.62-.59-15.24-.47-22.86 1.66.67 3.24 1.55 4.73 2.54 1.8 1.18 3.84 2.85 5.84 5.09 2 2.18 3.44 4.79 5.39 7.01 2.98 3.4 6.74 6.01 9.81 9.32 2.95 3.04 5.17 6.99 6.33 11.44.88 4.74 1.16 9.43 1.43 14.25z"/><linearGradient id="ab" gradientUnits="userSpaceOnUse" x1="38.809" y1="505.08" x2="497.356" y2="505.08" gradientTransform="matrix(1 0 0 -1 78 1027)"><stop offset="0" stop-color="#104351"/><stop offset=".5" stop-color="#175E77"/><stop offset="1" stop-color="#238AC4"/></linearGradient><path fill="url(#ab)" d="M185.6 513.84c4.94 4.25 10.78 11.08 9.48 24.9-1.55 4.82-1.79 7.58-2.83 12.54.71-1.94 1.37-2.72 2.37-6.86 3.11-9.71 5.58-19.84 6.31-30.05-.69 5.65-2.02 11.19-3.51 16.67-1.54-8.21-5.16-12.55-5.16-12.55l.02.04c-3.78-5.32-9.08-9.04-14.62-12.32-18.43-10.24-40.15-12.31-60.78-13.66l-.06 1.04c20.35 1.59 41.92 3.82 60.04 14.03 3.07 1.85 6 3.89 8.74 6.22z"/><linearGradient id="ac" gradientUnits="userSpaceOnUse" x1="38.81" y1="335.298" x2="497.357" y2="335.298" gradientTransform="matrix(1 0 0 -1 78 1027)"><stop offset="0" stop-color="#104351"/><stop offset=".5" stop-color="#175E77"/><stop offset="1" stop-color="#238AC4"/></linearGradient><path fill="url(#ac)" d="M215.39 719.7c-5.03-4.57-9.44-10.65-11.64-17.13-.53-1.73-.76-3.62-.38-5.56.31-2.04.98-3.99 1.61-5.96 1.39-4.22 1.61-8.88 1.45-13.61-.48-9.48-3.56-17.89-5.98-26.94-3.02-9.15-2.38-19.69-3.25-29.2-1.48-16.27-4.19-32.27-10.18-47.55l-.7 3.42c5.37 14.92 7.79 30.34 9.37 46.05.74 9.27.68 19.19 3.51 28.12 2.74 8.64 5.47 17.03 6.01 26.15.21 4.63.01 9.19-1.28 13.2-.76 2.49-1.69 5.06-1.77 7.7l.04 1.54c0 .63.42 2.3.44 2.34-.28.5-.58 1.06-.89 1.73-1.3 2.81-2.65 7.15-2.71 12.49.05 5.91.68 11.8-.45 17.66-2.79 14.68-6.71 27.92-4.44 43.03 1.62 10.81 3.48 21.54 4.4 32.44l1-.03c-.56-11-2.18-21.78-3.74-32.66-2.15-14.94 1.83-27.96 4.36-42.49 1.07-5.96.39-11.93.26-17.93-.05-5.14 1.16-9.33 2.35-12.05.12-.29.25-.55.37-.81 2.8 7.75 8.95 13.66 15.19 18.7-1-.88-1.98-1.76-2.95-2.65z"/><linearGradient id="ad" gradientUnits="userSpaceOnUse" x1="38.81" y1="341.281" x2="497.357" y2="341.281" gradientTransform="matrix(1 0 0 -1 78 1027)"><stop offset="0" stop-color="#104351"/><stop offset=".5" stop-color="#175E77"/><stop offset="1" stop-color="#238AC4"/></linearGradient><path fill="url(#ad)" d="M501.41 561.67c-1.8 16.33-6.79 31.88-8.54 48.13-.89 8.25-3.02 16.15-4.12 24.34-1.18 8.79-.92 18.71-4.3 27.01-3.89 9.41-4.35 18.82-4.34 28.96.01 15.55.25 31.17.93 46.7.6 13.48 3.06 26.84 3.27 40.33.18 11.91-.91 23.6-3.39 35.24l.97.24c2.38-10.98 3.71-22.12 3.58-33.37-.17-14.22-2.57-28.28-3.14-42.5-.59-14.64-.69-29.33-.75-43.99-.05-10.76.13-21.01 4.32-31.01 3.21-7.77 3.26-16.93 4.33-25.17 1.17-8.95 3.59-17.58 4.64-26.57 1.76-15.1 6.73-29.44 8.53-44.6.21-1.87-1.7-6.61-1.7-6.61s-.1 1.01-.29 2.87c-.21 1.85.19-1.86 0 0z"/><linearGradient id="ae" gradientUnits="userSpaceOnUse" x1="38.81" y1="505.084" x2="497.357" y2="505.084" gradientTransform="matrix(1 0 0 -1 78 1027)"><stop offset="0" stop-color="#104351"/><stop offset=".5" stop-color="#175E77"/><stop offset="1" stop-color="#238AC4"/></linearGradient><path fill="url(#ae)" d="M574.77 492.55c-20.63 1.35-42.35 3.42-60.78 13.66-3.46 2.05-6.63 4.2-9.69 6.83-1.78 1.64-3.48 3.45-4.93 5.49l.02-.04s-3.62 4.34-5.16 12.55c-1.48-5.49-2.82-11.02-3.51-16.67.88 12.62 4.36 25.07 8.67 36.91-1.04-4.96-2.3-7.81-2.64-12.87-1.05-15.33 5.35-21.39 10.28-25.41 2.46-2 5.04-3.76 7.75-5.39 18.12-10.21 39.7-12.44 60.04-14.03l-.05-1.03z"/><linearGradient id="af" gradientUnits="userSpaceOnUse" x1="167.809" y1="776.178" x2="365.541" y2="776.178" gradientTransform="matrix(1 0 0 -1 78 1027)"><stop offset="0" stop-color="#996E50"/><stop offset=".5" stop-color="#C2B59B"/><stop offset="1" stop-color="#DDC8A4"/></linearGradient><path fill="url(#af)" d="M440.9 165.69c-.26-1.49-.59-2.94-1.05-4.35-.47-1.4-1.04-2.78-1.98-3.98-.47-.6-.95-1.58-2.94-1.99-1.89-.39-4 .48-5.08 1.19-2.17 1.49-3.49 3.42-4.49 5.12-1.58 2.75-2.76 5.73-3.57 8.79l.95.32c1.14-2.84 2.37-5.68 4.03-8.25 1.02-1.54 2.29-3.29 4.08-4.47.89-.59 2.43-1.25 3.78-.95s1.53.85 1.91 1.31c1.51 1.92 2.33 4.72 3 7.53 2.65 11.63 3.14 25.26-.7 36.66-.95 2.79-2.15 5.42-3.77 7.57-1.61 2.15-3.7 3.76-5.92 4.38-2.21.65-4.41.43-6.18-.14-1.78-.57-3.2-1.42-4.28-2.21-1.23-.9-2.31-1.96-3.34-3.09.6-2.73.92-4.22.92-4.22-2.4 7.98-4.65 16-6.88 24.03-2.74 9.86-4.15 21.45-10.67 29.68-4.83 6.09-11.21 11.21-17.39 15.87-9.02 6.94-18.49 14.26-29.97 16.27-13.16 2.34-26.95.07-37.93-7.71-7.1-5.03-13.81-10.6-20.13-16.59-5.77-5.46-10.9-10.94-13.77-18.48-3.16-8.46-4.16-17.69-5.96-26.51-1.47-7.2-2.94-14.39-4.56-21.56.26 1.88.52 3.75.8 5.62-1.15 1-2.23 2.01-3.5 2.86-1.17.73-2.68 1.54-4.54 1.98-1.85.43-4.16.53-6.36-.38-2.21-.88-4.18-2.76-5.65-5.1-1.46-2.36-2.5-5.15-3.27-8.1-1.75-6.79-1.78-13.66-1.17-20.61.6-6.83 1.28-15.03 4.87-21.05.34-.6 1.15-2.38 3.43-2.66s4.29 1.98 5.04 2.84c3.38 4.03 5.12 9.43 6.45 14.44l.98-.19c-.48-3.22-1.4-6.4-2.63-9.41-.78-1.87-1.78-3.98-3.43-5.99-.83-.99-1.84-1.98-3.17-2.66-.66-.34-1.39-.6-2.17-.73-.73-.18-1.74-.11-2.42.16-1.8.64-2.75 2.02-3.53 3.37-.75 1.38-1.29 2.84-1.73 4.35-3.26 11.68-3.84 26.47-.87 38.25.75 2.98 1.79 5.8 3.27 8.23 1.43 2.44 3.43 4.46 5.77 5.46 2.22 1 4.43.96 6.76.61 2.04-.39 3.67-1.17 4.95-1.89 1.11-.68 2.16-1.43 3.16-2.25 1.07 7.26 2.23 14.5 3.46 21.73 1.45 8.53 2.53 17.22 6.65 24.97.36 11.15.73 22.3 1.08 33.45.45 14.49-2.02 30.02 1.21 44.25.6 2.68 1.46 5.14 2.49 7.29 2.33 4.87 5.87 8.75 9.92 12.23-3.95-3.56-7.38-7.49-9.59-12.39-.98-2.15-1.76-4.6-2.29-7.25-2.5-12.42-.18-25.48-.35-38.04l-.51-36.3c7.3 10.81 18.98 19.91 29.47 27.47 8.26 5.95 17.78 9.42 28.03 9.41 4.03.11 8.16-.09 12.17-.82 10.5-1.86 19.18-7.94 27.56-14.2 6.86-5.12 14.69-10.72 20-17.51-1.34 9.86-2.38 19.79-2.83 29.74-.52 11.31 1.91 23.22-1.65 34.2-3.25 9.94-10.71 17.46-17.11 25.43 7.26-7.27 14.78-15.18 18.27-25.04 4.05-11.5 2.11-24.02 2.63-35.95.36-10.04 1.25-20.06 1.99-30.07 5.32-6.44 6.57-15.56 8.44-23.41 2.03-8.52 4.03-17.04 5.93-25.58.96.89 1.98 1.7 3.06 2.43 1.18.79 2.73 1.62 4.66 2.14 1.92.49 4.24.7 6.6-.06 2.36-.73 4.5-2.5 6.08-4.73 1.62-2.24 2.84-4.89 3.78-7.72 3.73-11.36 3.67-25.31 1.7-37.04-.26-1.48 1 5.95 0 0z"/><linearGradient id="ag" gradientUnits="userSpaceOnUse" x1="168.164" y1="847.076" x2="365.198" y2="847.076" gradientTransform="matrix(1 0 0 -1 78 1027)"><stop offset="0" stop-color="#996E50"/><stop offset=".5" stop-color="#C2B59B"/><stop offset="1" stop-color="#DDC8A4"/></linearGradient><path fill="url(#ag)" d="M263.74 191.94c-1.75-1.06-3.37-2.34-4.53-4.05-.33-.52-.59-1.08-.68-1.61-.12-.37-.02-1.04.06-1.39l.13-.42c.36-1.19 1.2-2.56 2.17-3.74 1.04-1.32 2.41-2.38 3.37-3.76.16-.19.28-.56.38-.85.04-.31.1-.67.05-.91-.42-5.2-3.07-12.25-6.83-15.88-.73-.82-1.88-1.65-2.96-1.91-1.05-.32-2.01-.24-2.71.08-.71.29-1.38.72-1.98 1.2.64-.38 1.34-.71 2.06-.91.3-.11.75-.15 1.13-.15.39.04.83.12 1.23.29-.15.05-.3.1-.48.19-.4.21-.87.51-1.29.98-3.2 3.91-4 13.5-2.55 18.13.28.95.8 1.88 1.56 2.56 1.36 1.35 3.9 1.8 5.7 2.17-.71 1.28-1.52 3.15-1.13 4.7.19.94.6 1.71 1.06 2.38.92 1.33 2.09 2.23 3.18 2.97.31.2.62.37.93.53-4.2 2.03-3.22 4.63-5.24 8.31-.4.68-.88 1.07-1.68.81-.67-.18-1.34-.81-1.84-1.45-.52-.66-.91-1.42-1.27-2.16-1.24-2.73-1.82-5.71-2.23-8.67.23 3.01.64 6.05 1.73 8.88.32.79.68 1.6 1.2 2.36.53.74 1.14 1.51 2.19 1.88.32.11.44.11.77.15.29-.02.58-.05.84-.18.53-.25.9-.67 1.16-1.08 1.15-1.84 1.22-4.17 2.57-5.88 1.17-.96 2.53-1.63 4-2.03.8.28 1.68.56 2.41 1.01.63.33 1.06.68 1.36.93.29.25.41.43.41.43s-.05-.21-.25-.56c-.19-.36-.54-.85-1.09-1.37-.83-.86-1.89-1.41-2.91-1.98zm-5.67-11.96c-1.5-.21-3.92-.43-5.07-1.51-.5-.4-.91-1.01-1.17-1.76-1.59-4.23-1.2-13.4 1.53-17.19.33-.43.72-.7 1.05-.9.34-.18.63-.27.83-.32l.13-.02c.66.48 1.33.99 1.82 1.66 3.2 3.86 5.33 10.4 5.61 15.39.02.31-.01.37-.17.6-1.07 1.53-2.71 2.67-3.85 4.18-.19-.05-.42-.08-.71-.13-.41-.05.29.05 0 0z"/><linearGradient id="ah" gradientUnits="userSpaceOnUse" x1="168.163" y1="788.144" x2="365.199" y2="788.144" gradientTransform="matrix(1 0 0 -1 78 1027)"><stop offset="0" stop-color="#996E50"/><stop offset=".5" stop-color="#C2B59B"/><stop offset="1" stop-color="#DDC8A4"/></linearGradient><path fill="url(#ah)" d="M372.16 239.72c-1.5.7-8.33 3.13-30.79 1.43 0 0-20.37-2.47-29.84-5.1 0 0-2.94-1.03-3.44-.29s1.19 1.31 2.5 2.1 5.62.84 8.88 1.26c3.25.42 19.94 2.61 28 2.98 8.06.37 20.19-.14 23.12-.56 2.95-.42 3.07-2.52 1.57-1.82z"/><linearGradient id="ai" gradientUnits="userSpaceOnUse" x1="168.162" y1="813.191" x2="365.2" y2="813.191" gradientTransform="matrix(1 0 0 -1 78 1027)"><stop offset="0" stop-color="#996E50"/><stop offset=".5" stop-color="#C2B59B"/><stop offset="1" stop-color="#DDC8A4"/></linearGradient><path fill="url(#ai)" d="M332.75 214.88c1.08 0 .58-1.08 2.25-.67 0 0 5.42.59 7.08.62 3.58.08 9.12-.12 9.83-.21s.17 1.21 2 1.21 1.96-.38 2.33-1 1.21-2.17-3.21-1.08l-10.92.71s-5.96.12-10.04-2.12c0 0-1.96-1.04-2.25-.25s.14 2.79 2.93 2.79z"/><linearGradient id="aj" gradientUnits="userSpaceOnUse" x1="168.164" y1="873.588" x2="365.198" y2="873.588" gradientTransform="matrix(1 0 0 -1 78 1027)"><stop offset="0" stop-color="#996E50"/><stop offset=".5" stop-color="#C2B59B"/><stop offset="1" stop-color="#DDC8A4"/></linearGradient><path fill="url(#aj)" d="M292.42 153.91c10.23-2.23 21.13-1.54 31.12 1.53-10.43-5.27-23.62-5.26-34.25-.75 1.05-.25 2.09-.51 3.13-.78.65-.14-.64.16 0 0z"/><linearGradient id="ak" gradientUnits="userSpaceOnUse" x1="168.164" y1="842.564" x2="365.197" y2="842.564" gradientTransform="matrix(1 0 0 -1 78 1027)"><stop offset="0" stop-color="#996E50"/><stop offset=".5" stop-color="#C2B59B"/><stop offset="1" stop-color="#DDC8A4"/></linearGradient><path fill="url(#ak)" d="M418.11 199.26c.31-.24.76-.57 1.4-.86.74-.4 1.66-.67 2.46-.89 1.44.51 2.76 1.19 3.9 2.22 1.27 1.77 1.22 4.11 2.28 6 .25.42.59.86 1.11 1.13.26.14.55.19.83.22.33-.02.45-.01.77-.11 1.07-.32 1.71-1.05 2.28-1.77.56-.73.95-1.53 1.31-2.29 1.22-2.78 1.78-5.79 2.15-8.79-.55 2.93-1.28 5.88-2.65 8.55-.39.72-.82 1.46-1.37 2.09-.53.62-1.23 1.22-1.91 1.36-.81.23-1.27-.19-1.64-.89-1.83-3.76-.72-6.35-4.83-8.56.32-.15.64-.3.95-.49 1.13-.68 2.34-1.52 3.32-2.81.48-.64.94-1.4 1.17-2.33.47-1.53-.26-3.44-.9-4.75 1.81-.28 4.38-.6 5.79-1.89.79-.64 1.35-1.55 1.68-2.48 1.66-4.53 1.35-14.19-1.67-18.23-.39-.49-.85-.82-1.24-1.04-.17-.09-.33-.15-.47-.21.41-.15.85-.21 1.25-.23.38.02.82.08 1.12.21.71.23 1.39.6 2.01 1-.58-.5-1.23-.96-1.92-1.29-.68-.35-1.63-.49-2.7-.22-1.09.21-2.28.98-3.05 1.77-3.93 3.44-6.92 10.36-7.59 15.53-.06.23-.02.6.01.91.09.29.19.67.34.87.89 1.43 2.21 2.55 3.18 3.92.9 1.23 1.68 2.63 1.98 3.84l.11.42c.05.31.05.66.06.98l-.07.41c-.12.53-.4 1.08-.76 1.58-2.11 2.81-5.27 3.42-7.73 5.65-.58.5-.95.97-1.16 1.32-.21.34-.28.55-.28.55s.17-.16.48-.4zm7.4-17.52c-.55-.6-1.21-1.23-1.51-1.7-.14-.24-.17-.29-.14-.61.48-4.95 2.98-11.41 6.34-15.1.52-.65 1.22-1.12 1.9-1.57l.12.03c.2.06.48.16.82.36.32.21.7.5 1.01.95 2.56 3.91 2.49 13.11.7 17.25-.3.74-.75 1.33-1.26 1.7-1.38 1.17-4.13 1.15-5.86 1.34-.63-.93-1.33-1.83-2.12-2.65-.55-.61.59.62 0 0z"/><linearGradient id="al" gradientUnits="userSpaceOnUse" x1="168.164" y1="871.528" x2="365.198" y2="871.528" gradientTransform="matrix(1 0 0 -1 78 1027)"><stop offset="0" stop-color="#996E50"/><stop offset=".5" stop-color="#C2B59B"/><stop offset="1" stop-color="#DDC8A4"/></linearGradient><path fill="url(#al)" d="M369.83 155.54c9.86-1.75 19.36-.67 28.9 2-10.4-5.03-23.57-5.65-34.25-.91 1.77-.45 3.55-.8 5.35-1.09.8-.14-1.62.26 0 0z"/><g fill="#58595B"><path d="M338.09 451.84c-.04-2.42-1.16-5.13-3.45-6.22-1.06-.71-2.35-1.08-3.62-1.14l.11.01c-7.43-1.14-9.46 10.34-4.88 14.44.67.62 1.55 1.06 2.48 1.16l-.05-.01c5.28 1.17 9.6-2.98 9.41-8.24-.01-.57.02.57 0 0zm-9.19 7.46c-.76-.18-1.37-.56-1.88-1.15-2.67-3.13-1.87-11.49 3.05-12.16-4.03 2.58-5.09 10.41-.95 13.38l-.22-.07zm7.81-6.29c-.36 2.69-1.67 6.14-4.94 6.28-.97.06-1.92-.3-2.7-1.02-1.71-1.57-2.13-4.12-1.86-6.32.41-2.3 1.82-4.5 3.71-5.39 3.87-1.92 6.26 3.25 5.79 6.45zM322.86 395.72c-.81-3.15-3.55-6.19-7.08-5.65l.11-.01c-1.27.07-2.56.43-3.62 1.14-2.99 1.42-3.96 5.45-3.26 8.46.79 4.49 4.95 6.93 9.23 5.98l-.05.01c.92-.09 1.8-.54 2.48-1.16 2.36-2.09 3.07-5.8 2.19-8.77-.11-.44.13.44 0 0zm-6.86-3.57c1.89.89 3.3 3.08 3.71 5.39.27 2.21-.16 4.75-1.86 6.32-.78.71-1.73 1.08-2.7 1.02-.66.01-2.38-.76-3.27-1.78-3.43-3.91-1.87-13.9 4.12-10.95zm5.34 7.4c-.07 1.46-.48 3.05-1.45 4.18-.57.66-1.28 1-2.1 1.22 4.16-2.95 3.07-10.8-.95-13.38 3.44.53 4.73 5.04 4.5 7.98-.04.76.03-.37 0 0zM330.93 452.89c-1.63-1.21-3.15 1.77-2.02 3.09.22.28.56.51.96.55 1.64.06 2.41-2.71 1.06-3.64zm.01 2.34c-.27.45-.5.6-.96.59-.31-.1-.49-.5-.51-.87.14-2.25 2.31-1.52 1.47.28zM334.06 453.54c-1.63-1.21-3.15 1.77-2.02 3.09.22.28.56.51.96.55 1.64.05 2.41-2.71 1.06-3.64zm0 2.34c-.27.45-.5.6-.96.59-.31-.1-.49-.5-.51-.87.15-2.26 2.31-1.52 1.47.28zM335.02 449.24c-.36-.56-1.28-.49-1.74-.17-.99.62-1.47 3.58.29 3.58.29.09.68.02.95-.14 1.01-.6 1.29-2.41.5-3.27-.08-.12.22.24 0 0zm.01 1.65c-.07.28-.12.5-.28.68-.13.19-.31.34-.5.39-.19.05-.33.06-.48-.03-.85-.29-.23-2.67.45-2.4.14.01.27.05.38.14.16.1.29.3.36.52.1.21.08.49.07.7-.07.28.01-.21 0 0zM331.92 448.71c-.36-.56-1.28-.49-1.74-.17-.99.62-1.47 3.58.29 3.58.29.09.68.02.95-.14 1.02-.6 1.3-2.41.5-3.27-.08-.12.23.24 0 0zm.02 1.65c-.07.28-.12.5-.28.68-.13.19-.31.34-.5.39-.19.05-.33.06-.48-.03-.85-.29-.23-2.67.45-2.4.14.01.27.05.38.14.16.1.29.3.36.52.1.21.07.49.07.7-.07.28 0-.21 0 0zM314.62 396.04c.11.68.7 1.82 1.54 1.74.3.04.69-.1.94-.33.8-.67.85-2.01.29-2.82-.6-.86-1.91-1.19-2.53-.13-.28.45-.34 1.03-.24 1.54zm.57-.41c.02-.17.09-.48.28-.71.79-1 1.71 1.27 1.06 1.92-.68.69-1.44-.63-1.34-1.21zM316.95 398.26c-.34-.07-.69.01-.97.22-1.35.93-.58 3.69 1.06 3.65.39-.04.74-.28.96-.55.86-1.03.36-3.11-1.05-3.32zm.5 2.27c-.03.38-.21.77-.51.87-2.6.09.26-4.69.51-.87-.03.38-.01-.09 0 0zM313.01 394.4c-.34-.07-.69.01-.97.22-1.35.93-.58 3.69 1.06 3.65.39-.04.74-.28.96-.55.86-1.03.36-3.11-1.05-3.32zm.5 2.27c-.03.38-.21.77-.51.87-2.6.09.26-4.69.51-.87-.03.38-.01-.09 0 0zM312.03 400.93c.11.68.7 1.82 1.54 1.74.3.04.69-.1.94-.33.8-.67.85-2.01.29-2.82-.6-.86-1.91-1.19-2.53-.13-.28.45-.34 1.03-.24 1.54zm.58-.41c.02-.17.09-.48.28-.71.79-1 1.71 1.27 1.06 1.92-.69.69-1.44-.63-1.34-1.21z"/></g><linearGradient id="am" gradientUnits="userSpaceOnUse" x1="175.784" y1="938.371" x2="363.381" y2="938.371" gradientTransform="matrix(1 0 0 -1 78 1027)"><stop offset="0" stop-color="#1F1B0A"/><stop offset=".5" stop-color="#603913"/><stop offset="1" stop-color="#966432"/></linearGradient><path fill="url(#am)" d="M437.8 113.23c.29.5.36 3.79.99 5.77-.15-.46-.82-.51-1.24-.75l.26 1.13c.62 2 .17 3.46.32 5.4l-.11-.1-.18-.23c-.28 5.53-1.08 11.08-2.32 16.21s-3.07 10.36-4.8 15.39c.8-.4 1.71-.67 2.67-.74 1.36-4.57 1.38-6.29 3.16-13.97s2.65-12.11 2.17-15.28l.69.39c-1.2-1.88-.18-4.09-.46-6.15l.64.42 1.78 1.12c-1.42-2.38-2.67-4.73-3.02-7.53.46.41 1.02.86 1.55 1.11-.02-1.67-1.2-2.75-1.02-4.93s.92-2.55.5-3.56c-.09-.26-.24-.48-.43-.66l.02-.03c.11-.2.16-.46.12-.68-.05-.25-.14-.44-.25-.61.23-.31.32-.76.3-1.15.17-.17.28-.39.28-.64l.53-.04c.1-.56-.29-1.27-.63-1.73-3.81-5.12-4.42-11.34-6.33-17.23-1.08-3.89-3.5-7.74-5.4-11.29-1.73-3.24-3.38-7.33-6.02-9.94.55-.19 1-.4 1.43-.82l.29-.27c-1.3-.53-2.65-.96-3.98-1.42.68-.88 1.08-1.93 1.66-2.88l.61-.76c-1.2.43-2.46.72-3.61 1.28.3-3.3.27-6.68.13-9.99-.64 2.37-1.07 5.08-2.5 7.11-1.37-2.28-2.36-4.93-2.64-7.58-.37 1.19-.48 2.41-.5 3.65-6.83-14.15-19.08-24.78-33.66-30.35-1.63-1.67-3.25-3.34-4.87-5.02.38 1.74-.44 3.49-1.27 4.99-3.86-3.21-8.16-5.76-12.54-8.2l-1.65-.86c.94 1.46 1.9 2.9 2.72 4.43-7.02-3.37-15.36-5.58-19.27-12.98.71 2.85 1.68 5.56 3 8.19-3.71-1.44-6.15-3.81-8.82-6.64l1.42 2.93c.66 1.28 1.47 2.75 1.65 4.2-1.54 0-3.09-.22-4.49-.9l.38.43c.59.65 1.13 1.28 1.61 2-4.33-.49-8.66-.98-12.98-1.48.75.97 1.67 1.83 2.24 2.92-3.56-.49-6.73 0-10.03 1.27 2.1-.04 4.45.82 6.32 1.68-3.62.23-6.56-.29-9.96-1.22 1.31 1.33 2.59 2.7 3.6 4.27-1.77-.48-3.41-1.17-5.08-1.9l.62.59c.94 1.08 1.86 2.17 2.59 3.41-5.3.48-10.03-.25-15.08-1.68l2.45 1.71 3.89 2.27c-3.33.4-6.39 2.1-8.63 4.56-2.01.04-4.57-.11-6.21-1.41 0 0 2.22 2.54 3.58 3.38-3.9 2.52-6.88 4.7-11.81 4.83l.94 1.79-1.7.01c.11.71.48 1.17.98 1.65-2.78 2.18-5.36 6.16-7.37 9.01-2.79 3.95-5.03 7.55-8.29 11.12-.11.12-.24.33-.21.55.08.64.68 1.42 1.03 1.93-2.14 2.63-5.09 4.31-6.94 7.18 1.68-.77 3.28-1.34 5.17-1.37-1.33 1.74-2.56 2.97-4.73 3.41 1.02 1.13 2.43 1.58 3.56 2.54-1.54.35-2.86 1.21-4.26 1.69l-.24.05c.15.5.36.99.64 1.42-.52 1.09-1.59 1.77-2.09 2.86l.26.69.03.02c-2.21 5.01-1.7 11.94-2.53 17.43-1.13 7.47-1.88 15.11-1.77 22.61-.04 1.73-.15 3.52-.1 5.73.01.43-.25.82-.5 1.2l-.3.58.72.19.01.01s1.79 16.33 4.2 23.86c1.29 1.16 2.32 2.59 3.17 4.09-1.64-4.79-3.33-9.51-4.32-14.47-.47-2.36-.84-4.74-1.22-7.12-.25-1.58-.15-4.06-.81-5.46l.15-.35-.02.02s-.14-.37-.13-.38l.04-.25 1.27-.61-1.6-.23c.52-1.45.21-4.13.14-5.7-.21-2.28.15-4.1-.03-8.61-.09-2.5.22-4.99.53-7.47.43-3.34.96-6.67 1.53-9.99.53-3.1.76-6.85 1.23-9.55s1.5-4.17 1.21-6.15c.72-.99 1.51-1.64 2.03-2.76 0 0-.8-1.13-.99-1.34 1.51-.64 2.9-1.5 4.53-1.8 0 0-1.18-1.39-2.39-2.23 1.87-.85 2.99-2.96 4.07-4.59-1.23-.08-2.46-.17-3.69-.01 1.63-1.67 3.26-3.16 4.57-5.12 0 0-1.27-1.9-.74-2.23 4.26-2.61 5.92-7.8 9.11-11.91 1.85-2.46 4.54-6.41 7.17-8.05 0 0-.18-.96-.2-.99l.42-.01.14-.52.9-.06c-.35-.8-.77-2.1-1.63-1.96 7.48-1.22 7.46-2.55 11.3-4.9.97.56 2 .98 3.08 1.26-1.75-1.1-3.46-2.1-5.06-3.42 1.45.57 3.05.88 4.6.91 2.42-2.74 5.42-5.13 9.28-5.27-.86-.66-1.71-1.32-2.57-1.97 3.7.49 7.46.39 11.15-.17-.73-1.19-1.58-2.25-2.53-3.27 1.74 1 3.6 1.74 5.5 2.37-.69-1.46-1.53-2.82-2.57-4.06 2.63.28 5.21.18 7.82-.18 1 .53 1.86 1.2 2.76 1.88-1.64-2.97-5.14-4.23-8.39-4.28 2.81-1.03 6.29-1.12 9.17-.4-.22-.8-.51-1.58-.91-2.31l11.42.9.6.03c-.56-.85-1.21-1.57-1.94-2.26 1.19.59 2.55.92 3.86 1.08l.53.02c.01-1.28-.34-2.37-.84-3.56 1.77 1.28 3.84 2.16 5.92 2.8 1.53 2.81 3.39 5.42 5.58 7.75-2.22-1.28-4.42-2.6-6.56-4.01 6.27 6.35 15.2 10.7 24.06 11.69-4.86-1.65-9.59-3.42-14.14-5.84-3.49-2.75-6.34-6.17-8.6-10l.02-.06-.06-.02c-1.23-2.21-2.31-4.5-3.06-6.93 4.26 7.16 13.72 10.02 20.78 13.64l-.59-1.29c-.44-.97-.96-1.89-1.51-2.8 3.97 1.91 10.52 6.25 11.19 6.89s1.8 1.07 2.55 1.78c-.55-.59-1.16-1.14-1.77-1.67.64-1.4 1.25-2.98 1.17-4.54 3.16 4.06 7.01 7.71 10.98 10.95-1.86-2.06-3.81-4.03-5.74-6.02 16.33 6.28 28.09 19.65 34.31 35.7-.24-2.28-.63-4.55-.83-6.83.44 2.22 1.21 4.4 2.42 6.31.62-.65 1.13-1.38 1.54-2.18-.12 1.92-.14 3.76-.44 5.67 1.07-.93 1.92-1.7 3.24-2.29-.72 1.02-1.49 1.96-2.39 2.82 1.53.34 3.05.73 4.58 1.08-.96.28-2.03.29-3.02.4l1.3.84c3.22 2.18 6.3 8.65 7.46 11.08 1.78 3.61 3.93 6.99 5.03 10.89 1.43 5.05 2.54 12.49 5.44 16.69l-2.31-.17c.81.45 1.82.83 2.53 1.45-.31.34 0 .52-.24 1l-.75.51c.2.18.71.69.69.96 0 .2-.58.52-.72.59 0 0 1.14.08 1.28 1.32s-1.23 3.18.2 6.1l-1.13-.45zm.7-10.06zm-1.38 35.89v-.01.01zm-102.69 8.46c-1.87-3.93-3.08-7.95-4.29-12.12-10.24-3.83-23.52-3.01-34-.49-8.85 1.71-14.13 10.88-19.08 17.73l1.97-1.5c9.27-7.38 19.59-11.24 31.62-10.06 9.03.88 17.62 4.17 25.29 8.95-.51-.83-1.03-1.66-1.51-2.51zm-6.47-2.84c-15.64-6.55-34.03-6.79-47.68 4.49 3-4.59 6.62-9.72 11.32-12.73 12.03-3.06 25.21-4.01 37.09.35 1.24 3.49 2.38 7.12 4.3 10.31-1.63-.89-3.32-1.68-5.03-2.42zm80.47 7.33c-2.17-3.4-4.63-6.73-7.37-9.7-2.83-3.46-6.3-4.43-10.5-5.49-9.42-2.81-22.31-3.51-31.66-.52-1.75 5.07-3.48 9.87-6.5 14.33 7.88-4.41 16.62-7.28 25.69-7.72 12.07-.59 22.19 3.76 31.09 11.58l1.9 1.59c-.87-1.34-1.76-2.71-2.65-4.07zm-4.53-2.81c-13.94-10.27-33.56-8.52-48.41-1.35 2.07-3.1 3.39-6.67 4.8-10.09 12.06-3.8 25.22-2.19 37.07 1.45 4.54 3.25 7.92 8.52 10.69 13.26-1.3-1.18-2.68-2.31-4.15-3.27-1.01-.74 1.05.69 0 0zm-92.09-105.24l.42.26c-1.71-4.63-2.98-9.31-4.23-14.07 2.83 4.62 5.77 8.77 10.16 12.04-2.9-1.86-5.44-3.94-7.69-6.59.83 3.22 1.95 6.37 3.14 9.46 2.38 1.48 4.52 3.4 6.43 5.44-5.05-3.08-10.36-5.86-15.3-9.1 1.77 2.82 3.29 5.79 4.74 8.79-2.91-5.01-5.85-9.21-10.08-13.08 4.21 2.16 8.34 4.44 12.41 6.85zm12.1 9.79c7.33 3.88 14.84 1.38 22.63 1.32 8.05.17 15.38 1.97 22.81 5.05-7.61-1.98-14.87-3.54-22.78-3.48-7.5.35-16.54 3.13-22.66-2.89zm71.65 10.81c4.24 2.74 8.58 6.09 11.11 10.57-12.37-10.78-26.57-16.98-42.25-21.25 10.86 1.48 21.95 4.45 31.14 10.68.6.38-1.19-.81 0 0zm-.34-18.95c.96.54 1.89 1.12 2.82 1.71-7.43-4.53-15.82-8.18-24.24-10.39-7.77-2.03-17.14-3.35-23.46-8.58.09 1.81.35 3.57.71 5.35-.99-2.78-1.63-5.58-2.03-8.51 4.96 6.67 14.26 8.25 21.88 10.4 8.5 2.39 16.6 5.68 24.32 10.02.96.53-.96-.54 0 0zm-63.93-1.47c5.27 3.58 11.83 5.62 17.99 6.99-9.42-.19-19.74-4.55-25-12.56 2.23 2.04 4.44 3.96 7.01 5.57.69.46-.7-.44 0 0zm7.06-18.32l-.13.81c-2.58 2.2-4.68 4.87-6.12 7.93 1.5-2.46 3.4-4.52 5.68-6.28.28 2.65.85 5.24 1.7 7.78-.23-1.4-.4-2.81-.47-4.23 2.72 4.27 7.37 7.65 12.1 9.35-2.74-1.93-5.37-4.04-7.75-6.4.63-5.16 2.88-9.51 4.6-14.29-3.03 1.47-5.88 3.06-8.54 5.13.3-1.36.63-2.72.95-4.08-1.96 1.21-3.81 2.58-5.45 4.2 1.26-.86 2.58-1.61 3.97-2.25-.18.77-.4 1.55-.54 2.33zm2.02.67c1.28-.81 2.63-1.52 4-2.15-1.04 3.06-1.76 6.23-2 9.46-1.25-1.33-2.34-2.74-3.46-4.17l-1.05-1.4c.81-.62 1.64-1.22 2.51-1.74.65-.42-.33.2 0 0zm84.89 138.49l1.23-2.09c-1.69 3.67-3.37 7.33-4.81 11.1l-.09-2.48c.04-3-.38-5.42-.87-8.19-.84-4.58-.42-9.36-.18-14.06.51-7.38-.12-14.95-.98-22.28-.48-4.06-.96-8.17-1.6-12.23-.45-2.84-1.65-5.52-1.9-8.38-.39-4.53-1.6-5.76-1.6-5.76 0-.32.04-.63.11-.93-.07-.01-.6-.35-.67-.51-.09-.21-.37-1.73-.32-2.23-.55-.01-1.32.19-1.91.37-.43-1.71-.29-3.46-.03-5.2-1.04 1.58-1.66 3.15-2.34 4.9.22-3.58.81-6.97-1.27-10.14-.73.83-1.45 1.61-2.06 2.54.12-1.69-.18-3.18-.56-4.83-.57 1.35-1.58 2.59-2.31 3.86 0-2.26-.61-4.41-.45-6.7-.91 1.12-2.05 2.46-2.7 3.76.43-1.45.3-3.14 1.24-4.42-3.96.56-8.29.25-11.94-1.49-5.37 1.22-10.07.37-14.9-2.27-4.39.76-8.9-.1-13.03-1.58-4.59.83-8.24 3.6-13.01 2.05-4.99-1.62-10.15-2.17-15.28-.76-3.08.85-5.96 2.41-8.39 4.52l-.79.98c1.44-3.22 3.68-5.79 6.51-7.89-2.48-.37-4.85-1.13-7.07-2.29-6.25 1.68-12.22-2.63-18.27-1.14-2.91.52-5.69 1.97-7.57 4.25-2.52 3.3-2.68 6.71-2.82 10.69-.9-2.35-1.71-4.64-2.15-7.14-1.42 5.8-.76 11.29 1.33 16.78l.41.8c-2.56-2.12-4.61-4.97-5.93-8.02-.19 3.02-.03 6.08.85 8.98-3.17-2.35-5.37-5.69-6.51-9.47-.33 1.91-.54 3.88-.24 5.8-1.02-.9-2.05-1.9-2.81-3.04.05 2.97.44 5.91 1.47 8.71l.76 1.74c-2.15-1.58-4.05-3.3-5.46-5.61.4 3.55 1.21 6.89 2.26 10.29-1.41-.86-2.5-1.67-3.61-2.93.31 2.14.59 4.42 1.59 6.38-.63.05-1.26.11-1.89.17-1.17 1.5-.87 5.3-1.36 7.13-.73 2.9-1.2 5.92-1.53 8.9-.18 1.68-.04 3.86-.57 5.5-.21.64-.51 3-.33 3.58.03.15.4.52.28 1.04-1.37 5.11.1 11.78.39 17.01.16 2.94-1.15 5.67-2.24 8.33-1.29 3.16-2.18 6.8-3.79 9.75-1.13-2.28-1.53-4.71-2.33-7.12 1.05 1.34 1.64 2.81 2.22 4.39.78-5.11 4.51-10.12 4.38-15.3-.15-5.59-.45-11.75.79-17.21.08-.16-.09-.33-.24-.78-.15-.73.25-3.1.48-3.81.8-1.93.45-4.9.76-6.92.38-2.48.67-5.01 1.2-7.47.41-1.89-.13-6.6 1.37-7.89l.1-.08.9-.08c-.54-2.03-.65-4.2-.76-6.29l-.15-.54c.57.42 1.16.76 1.81 1.08-.53-2.9-.66-5.88-.69-8.82-.7-1.34-1.07-2.89-1.32-4.36 1.54 2.97 3.08 5.53 5.33 8.09-.79-3.36-1.08-6.87-.67-10.31.92 1.82 1.78 3.57 3.05 5.19-.11-1.93.12-3.87.47-5.76-.39-1.38-.6-2.84-.73-4.27 1.65 4.15 3.02 8.4 5.92 11.91-.36-2.61-.31-5.31.05-7.92-1.69-4.65-1.55-9.62-.15-14.31-.74 8.13.62 15.79 5.59 22.42-3.04-6.8-2.21-14.38.37-21.14.04 2.55-.01 5.04.61 7.53.73-5.6 5.3-9.62 10.64-10.76 5.87-1.25 11.49 2.2 17.44 1.31-2.87-1.71-4.72-4.63-7.34-6.64-2.81-2.25-5.78-3.82-9.01-5.36 3.67.74 7.51 1.23 11.11 2.27-1.39-1.78-2.57-3.68-3.71-5.63 1.36 2.05 2.76 4.09 4.47 5.87 2.81 1.06 5.5 2.41 8.22 3.7-4.57-1.85-8.88-3.4-13.78-4.09 6.95 4.48 10.61 11.34 19.68 12.07 1.25-.78 2.52-1.43 3.92-1.92-2.86 2.48-5.81 4.79-8.55 7.42 4.92-3.36 10.99-4.46 16.85-3.68 2.4.32 4.66 1.37 7.06 1.56 2.84.23 5.22-1.6 7.86-2.36-2.97-.99-6.04-1.77-9.16-2.06 7.79-.98 15.38 3.12 23.15 3.44-6.04-4.31-12.24-7.89-19.28-10.37 7.6 1.35 14.19 4.9 20.54 9.11 7.35 4.88 13.93 2.59 22.08 2.89-1.77.5-3.56.95-5.34 1.41 3.54 1.54 7.6 1.81 11.38 1.33-.35.36-.59.75-.79 1.23.89-1.17 1.86-2.29 2.81-3.41-.43 2.6-.59 4.99-.45 7.65.55-.67 1.24-1.26 1.57-2.09l.07-.41c.6.99 1.16 2.01 1.48 3.13.78-.83 1.15-1.87 1.52-2.93.4 3.08 2.56 5.23 2.35 8.55.62-.61 1.05-1.04 1.42-1.75-.01 1.83-.21 3.79.26 5.57.78-.19 1.6-.18 2.38.03 0 0-.43 1.56.03 2.57-.12-.26.57-.28.81-.42.08.7-.05 1.35-.13 2.04.96.95 1 3.86 1.36 5.14.78 2.72 1.53 5.46 1.97 8.25.7 4.45 1.15 8.92 1.77 13.36 1.67 12.03-.09 24.18 1.13 36.09.26 2.11.99 3.98.94 6.34.94-1.48 1.71-3.04 2.62-4.53zm-130.51-112.47l.35-.58c-1.7.85-3.46 1.42-5.36 1.61 3.66-1.69 6.76-3.94 9.96-6.36-3.93 6.3-7.9 12.43-10.5 19.44 1.16-4.79 3.01-9.83 5.55-14.11z"/><g><linearGradient id="an" gradientUnits="userSpaceOnUse" x1="-75.67" y1="511.637" x2="131.178" y2="511.637" gradientTransform="matrix(1 0 0 -1 78 1027)"><stop offset="0" stop-color="#AD8B73"/><stop offset="1" stop-color="#C2B59B"/></linearGradient><path fill="url(#an)" d="M83.72 489.42c2.53-1.45 5.21-2.81 8.01-3.69 2.06-1.65 3.34-4.91 4.8-7.23 1.35-2.18 3.8-4.84 4.38-7.28.58-2.43-.17-6.02-.17-8.49.02-7.7 1.59-20.23 6.87-26.15 2.72-3.25 5.99-4.81 10.14-3.27 3.63 1.49 2.33 5.06 1.94 8.08-1.06 8.34-2.35 16.81-1.22 25.21.58 3.59 4.24 7.82 3.31 11.37-.93 3.56-3.5 6.39-4.59 9.89-1.5 4.82.01 9.63-.82 14.46-1.02 5.95-7.06 8.24-11.44 11.33-4.79 3.38-8.95 7.64-14.14 10.41-5.21 2.78-10.78 4.64-16.4 6.39 8.01-.88 17.06-3 23.52-8.08 8.94 14.29 19.58 27.15 30.23 40.16 8.9 10.87 19.18 23.48 22.54 37.47-3.79-18.26-18.2-34.16-29.32-48.38-3.13-4.01-2.7-10.23-3.24-15.21-.6-5.59-1-11.19-1.39-16.8-.17-2.38-.24-4.75-.32-7.13-.12-3.53.58-3.86 1.92-6.95 2.45-5.59-.27-11.87 1.79-17.59 1.27-3.54 3.91-6.45 4.45-10.28.49-3.49-1.76-5.34-2.95-8.27-3.74-7.48-.95-20.24 0-28.14.3-2.57 1.36-5.97-.74-8.07-2.09-2.19-6.56-3.15-9.3-1.9-8.22 3.77-10.1 14.62-11.82 22.46-3.05-6.88-7.99-13.17-16.11-13.17 5.69 0 10.1 4.86 12.4 9.57 1.07 2.19 2.2 4.69 3.08 6.97-.51 3.7-.67 7.44-.76 11.17-.09 3.59-2.19 5.76-4.1 8.8-1.31 2.05-2.55 4.14-3.82 6.22-1.83.6-3.62 1.38-5.33 2.26-5.81 2.83-11.4 7.67-14.88 13.18 4.17-3.47 8.75-6.65 13.48-9.32zm33.02 56.09c-5.91-8.06-11.56-16.32-16.56-24.98 4.61-3.72 10.14-6.41 14.58-10.26.13 11.8.98 23.5 1.98 35.24-1.12-1.53-.18-2.09 0 0z"/><linearGradient id="ao" gradientUnits="userSpaceOnUse" x1="-75.662" y1="468.82" x2="130.83" y2="468.82" gradientTransform="matrix(1 0 0 -1 78 1027)"><stop offset="0" stop-color="#AD8B73"/><stop offset="1" stop-color="#C2B59B"/></linearGradient><path fill="url(#ao)" d="M188.65 516.78c8.54 9.5 5.96 19.88 3.1 31.43-4.72 18.56-7.64 37.29-11.55 55.99-3.24 15.47-7.13 30.59-13.62 45.06-3.19 7.11-6.44 17.56-12.09 23.04-5.71 5.54-14.37-.11-20.29-2.19-.51-.14-.97-.37-1.37-.69.34.95 12.53.74 13.67.74-14.83-1.38-29.09-5.06-41.22-14.1-13.74-10.29-22.81-25.42-28.65-41.33-5.66-14.89-11.01-29.87-16.17-44.93-4.18-12.2-6.98-29.69-16.64-38.95 3.93 1.08 8.16 1.31 12.21 1.1-15.91-2.53-28.57-8.78-34.07-24.97-2.66-7.84-2.84-17.32-3.5-25.54-.53-6.57-.24-13.35 1.8-19.66 4.02-12.49 15.8-21.1 28.9-21.44-21.04.07-31.87 15.4-32.2 35.15-.32 18.61 1.98 42.27 19.64 52.36h-.01c11.92 6.31 14.53 20.31 18.5 32.05 5.57 16.48 11.38 32.9 17.65 49.13 6.56 16.95 14.04 33.29 28.23 45.29 9.32 7.88 21.91 13.41 33.52 17.3 5.89 2.17 11.46 5.9 17.92 3.78 5.75-1.85 8.4-10.14 10.81-15.02 7.59-15.33 13.14-30.72 17.21-47.33 3.77-18.02 6.42-36.25 10.69-54.17 3.39-14.33 8.8-29.8-2.47-42.1 1.85 2.06 4.69 5.12 0 0z"/></g><g><linearGradient id="ap" gradientUnits="userSpaceOnUse" x1="416.013" y1="468.837" x2="621.607" y2="468.837" gradientTransform="matrix(1 0 0 -1 78 1027)"><stop offset="0" stop-color="#C2B59B"/><stop offset="1" stop-color="#DDC8A4"/></linearGradient><path fill="url(#ap)" d="M642.48 440.33c13.11.34 24.88 8.95 28.9 21.44 1.83 5.69 2.25 11.75 1.93 17.69-.43 7.98-.8 17.27-2.87 24.99-4.71 17.57-17.97 24.82-34.84 27.5 4.05.21 8.29-.02 12.21-1.1-9.2 8.83-11.87 25.04-15.86 36.67-5.43 15.83-11.01 31.58-16.96 47.22-5.59 15.23-14.11 29.74-26.91 39.99-12.42 9.95-27.38 14-42.96 15.45 4.07 0 9.68-1.77 13.56-.85.6.14-1.59.93-1.25.8-5.83 2.05-12.43 6.53-18.65 3.39-6.27-3.26-9.98-16.08-12.8-22.2-6.97-15.1-11.15-30.88-14.55-47.1-3.74-17.84-6.43-35.75-10.91-53.46-3.08-12.18-6.69-23.78 2.46-33.96-10.63 11.59-6.37 25.89-3.07 39.53 4.37 18.08 7.06 36.44 10.87 54.63 3.44 16.42 8.97 32.04 16.46 47.04 2.68 5.41 5.47 14.55 11.41 17.22 6.71 2.42 12.36-1.33 18.5-3.59 10.86-3.65 22.83-8.78 31.76-15.85 14.55-11.53 22.62-27.69 29.18-44.64 6.25-16.16 12.08-32.5 17.67-48.9 4.34-12.74 6.84-27.05 19.28-34.37h-.01c17.62-9.71 19.7-33.18 19.65-51.43-.04-20.07-10.7-36.03-32.2-36.11 2.72.08 40.86.14 0 0z"/><linearGradient id="aq" gradientUnits="userSpaceOnUse" x1="415.664" y1="511.617" x2="621.655" y2="511.617" gradientTransform="matrix(1 0 0 -1 78 1027)"><stop offset="0" stop-color="#C2B59B"/><stop offset="1" stop-color="#DDC8A4"/></linearGradient><path fill="url(#aq)" d="M541.26 598.88c3.99-13.6 13.42-25.58 22.25-36.36 10.65-13 21.33-25.85 30.23-40.16 6.46 5.08 15.51 7.2 23.52 8.08-5.62-1.75-11.19-3.61-16.4-6.39-5.19-2.77-9.35-7.03-14.14-10.41-4.39-3.1-10.42-5.39-11.44-11.33-1.06-6.21.88-11.94-2.26-17.85-1.5-3.14-4.82-6.79-2.72-10.41 2.36-4.15 3.14-7.82 3.28-12.65.22-7.75-1.96-15.27-2.03-22.92-.97-6.73 6.76-7.03 10.7-3.59 3.21 2.72 4.54 6.63 5.7 10.57 2.48 8.44 3.11 16.47 2.81 25.22-.09 2.67 3.01 5.63 4.36 7.81 1.94 3.09 2.76 6.4 6.14 7.71 7.25 2.75 14.24 7.6 20.14 12.54-3.17-5.04-8.26-9.69-13.48-12.47-3.04-1.62-6.18-2.07-7.99-5.05-2.04-3.36-6.53-7.97-6.62-11.9-.07-2.86-.15-5.71-.4-8.57-.36-4.22.27-6.09 2.62-10.08 2.72-4.62 6.51-10.1 12.48-10.1-8.15 0-13.04 6.3-16.11 13.18-1.73-7.91-3.46-16.97-10.6-21.78-2.82-1.9-6.5-1.39-9.33.28-3.18 1.87-2.4 5.31-2.01 8.35 1.09 8.58 3.37 20.19.17 28.54-.76 2.31-2.79 3.96-3.07 6.49-.49 4.67 3.01 8.2 4.49 12.31 1.86 5.17-.13 10.57 1.18 15.78.47 1.87 1.41 3.56 2.66 5.03l-.28 8.46c-.75 10.76-1.5 21.55-3.11 32.23-11.53 15.04-27.02 31.34-31 50.56.06-.38.16-.75.26-1.12zm34.2-59.96c.82-9.54 1.31-19.07 1.41-28.64 4.45 3.84 9.97 6.54 14.58 10.26-4.99 8.66-10.65 16.92-16.55 24.98.18-2.1.36-4.31.56-6.6.19-2.29-.2 2.29 0 0z"/></g></g></g><g><path opacity=".5" fill="#00AEEF" enable-background="new" d="M333.83 169.96c-.63 1.61-1.54 2.77-2.03 2.59-.49-.18-.47-1.17.1-3.06.49-1.65.88-3.24 1.94-2.86 1.34.49.62 1.72-.01 3.33z"/><path fill="#58595B" d="M335.61 163.42c-.61.71-1.21 1.41-1.87 2.08-.66.66-1.82 1.09-2.2 1.98-.07.16-.05.29-.01.37.12.38.79.53 1.13.58.48.11.78.59.67 1.07-.42 1.86-2.97-.45-3-1.5-.09-1.45 1.4-1.89 2.34-2.56.92-.65 1.69-1.53 2.28-2.49.11-.19.36-.26.55-.15s.26.36.15.55l-.04.07z"/><path opacity=".2" fill="#00AEEF" enable-background="new" d="M334.79 162.85c.04.74.02 1.53-.04 2.42-.32 4.23-2.38 9.67-9.59 11.3-7.21 1.64-26.67-.36-33.19-1.16s-7.1-1.8-9.16-4.13c-.71-.79-1.08-1.88-1.29-2.96.08 1.5.43 3.32 1.47 4.5 2.07 2.33 2.65 3.33 9.16 4.13s25.98 2.8 33.19 1.16c7.21-1.64 9.27-7.08 9.59-11.3.11-1.54.1-2.85-.14-3.96zM282.52 158.05l-.93 7.66s-.68 4.8 1.39 7.13 2.65 3.33 9.16 4.13 25.98 2.8 33.19 1.16c7.21-1.64 9.27-7.08 9.59-11.3.47-6.19-1.24-8.4-10.17-10.36-8.93-1.96-23.11-3.36-35.18-2.9-6.96.26-6.71 2.3-7.05 4.48z"/><linearGradient id="ar" gradientUnits="userSpaceOnUse" x1="203.484" y1="860.891" x2="256.998" y2="860.891" gradientTransform="matrix(1 0 0 -1 78 1027)"><stop offset="0" stop-color="#27AAE1" stop-opacity=".5"/><stop offset="1" stop-color="#27AAE1" stop-opacity="0"/></linearGradient><path fill="url(#ar)" d="M282.52 158.05l-.93 7.66s-.68 4.8 1.39 7.13 2.65 3.33 9.16 4.13 25.98 2.8 33.19 1.16c7.21-1.64 9.27-7.08 9.59-11.3.47-6.19-1.24-8.4-10.17-10.36-8.93-1.96-23.11-3.36-35.18-2.9-6.96.26-6.71 2.3-7.05 4.48z"/><path opacity=".5" fill="#00AEEF" enable-background="new" d="M353.3 170.52c.53 1.64 1.37 2.85 1.87 2.71.5-.15.54-1.15.08-3.06-.4-1.67-.69-3.29-1.77-2.97-1.36.4-.72 1.68-.18 3.32z"/><path fill="#58595B" d="M352.58 163.46c.47.88 1.1 1.72 1.84 2.38.93.83 2.67 1.38 2.48 2.93-.09.95-1 1.55-1.76 1.96-.43.25-.98.1-1.22-.33s-.1-.98.33-1.22c.42-.24 1.24-.08 1.46-.62.04-.08.07-.21.01-.37-.32-.91-1.46-1.4-2.08-2.1-.62-.7-1.18-1.44-1.75-2.18-.14-.18-.1-.43.08-.56.18-.14.43-.1.56.08l.05.03z"/><path opacity=".2" fill="#00AEEF" enable-background="new" d="M352.76 163.37c-.08.73-.11 1.53-.1 2.42.07 4.24 1.81 9.79 8.92 11.84 7.1 2.06 26.65 1.19 33.2.78 6.55-.42 7.19-1.39 9.39-3.59.75-.75 1.19-1.81 1.46-2.88-.17 1.5-.62 3.29-1.73 4.4-2.2 2.2-2.84 3.17-9.39 3.59s-26.1 1.28-33.2-.78c-7.11-2.06-8.84-7.6-8.92-11.84-.03-1.54.07-2.85.37-3.94zM405.22 161.62l.48 7.7s.4 4.83-1.8 7.04c-2.2 2.2-2.84 3.17-9.39 3.59s-26.1 1.28-33.2-.78c-7.11-2.06-8.84-7.6-8.92-11.84-.11-6.2 1.73-8.32 10.76-9.75 9.03-1.44 23.26-2.01 35.29-.84 6.93.67 6.56 2.69 6.78 4.88z"/><linearGradient id="as" gradientUnits="userSpaceOnUse" x1="274.379" y1="858.707" x2="327.724" y2="858.707" gradientTransform="matrix(1 0 0 -1 78 1027)"><stop offset="0" stop-color="#27AAE1" stop-opacity=".3"/><stop offset="1" stop-color="#27AAE1" stop-opacity="0"/></linearGradient><path fill="url(#as)" d="M405.22 161.62l.48 7.7s.4 4.83-1.8 7.04c-2.2 2.2-2.84 3.17-9.39 3.59s-26.1 1.28-33.2-.78c-7.11-2.06-8.84-7.6-8.92-11.84-.11-6.2 1.73-8.32 10.76-9.75 9.03-1.44 23.26-2.01 35.29-.84 6.93.67 6.56 2.69 6.78 4.88z"/><linearGradient id="at" gradientUnits="userSpaceOnUse" x1="183.881" y1="863.889" x2="347.415" y2="863.889" gradientTransform="matrix(1 0 0 -1 78 1027)"><stop offset="0" stop-color="#231F20"/><stop offset="1" stop-color="#58595B"/></linearGradient><path fill="url(#at)" d="M405.82 158.94c-.19-.44-.47-.86-.82-1.2-1.86-1.91-5.27-2.06-7.76-2.24-3.14-.22-6.31-.58-9.46-.55-6.45.05-12.89.01-19.31.81-3 .37-6.01.69-8.95 1.41-2.44.6-4.59 1.9-7.08 2.27-5.15.76-10.49.66-15.62-.21-1.86-.32-3.53-.77-5.2-1.66-1.99-1.06-4.19-1.6-6.36-2.15-4.89-1.17-9.96-1.77-14.95-2.34-5.07-.58-10.24-.77-15.34-.73-2.36.02-4.79-.11-7.13.19-2.12.22-4.72.69-5.79 2.79-15.77.14-20.19 1.56-20.19 1.56 1.23 2.05 2.42 5.61 2.42 5.61 5.81-.01 13.21.62 16.81.96-.04 1.66-.01 3.28.4 4.9-.19-3.4.6-6.95 1.01-10.31.35-2.18.1-4.22 7.06-4.49 12.07-.47 26.25.94 35.18 2.9s10.64 4.18 10.17 10.36c-.17 2.31-.87 4.49-2.1 6.46 2.68-2.53 3.34-6.33 3-9.87-.05-.6.41-.73.49-.74 4.84-.74 10.13-.59 14.92.43.08.02.54.18.45.77-.57 3.51-.11 7.37 2.42 10.03-1.12-2.02-1.68-4.26-1.72-6.57-.05-2.7.27-5.55 2.64-7.22 3.13-2.21 7.64-2.52 11.31-2.97 10.59-1.29 21.48-1.43 32.09-.39 6.94.67 6.57 2.7 6.79 4.89.21 3.38.8 6.97.41 10.34.41-1.64.62-3.18.68-4.87 3.62-.12 10.7-.35 16.53 0 0 0 .88-2.69 2.58-5.53.02-.01-3.84-1.59-19.58-2.64z"/><g><defs><path id="au" d="M352.66 165.79c.07 4.24 1.81 9.79 8.92 11.84 7.1 2.06 26.65 1.2 33.2.78 6.55-.42 7.19-1.39 9.39-3.59.75-.75 1.19-1.81 1.46-2.87.17-1.46.07-2.64.07-2.64l-.48-7.7c-.22-2.19.15-4.22-6.79-4.89-12.02-1.17-26.26-.6-35.29.84-6.76 1.07-9.49 2.53-10.39 5.8-.08.74-.11 1.54-.09 2.43z"/></defs><clipPath id="av"><use xlink:href="#au" overflow="visible"/></clipPath><g opacity=".3" clip-path="url(#av)" fill="#fff"><path d="M418.321 209.941l-11.205 3.947-38.562-109.487 11.205-3.947zM405.026 214.629l-2.942 1.038-38.612-109.484 2.942-1.038z"/></g><defs><path id="aw" d="M282.8 171.29c2.07 2.33 2.65 3.33 9.16 4.13s25.98 2.8 33.19 1.16c7.21-1.64 9.27-7.08 9.59-11.3.07-.89.08-1.69.04-2.42.12.54.18 1.13.2 1.77-.16-4.55-2.46-6.45-10.23-8.16-8.93-1.96-23.11-3.36-35.18-2.9-6.96.27-6.71 2.31-7.06 4.49l-.93 7.66s-.16 1.17-.08 2.63c.21 1.07.59 2.15 1.3 2.94z"/></defs><clipPath id="ax"><use xlink:href="#aw" overflow="visible"/></clipPath><g opacity=".3" clip-path="url(#ax)" fill="#fff"><path d="M351.699 233.394l-8.196 2.886-38.55-109.487 8.196-2.886zM353.898 232.628l-.82.29-38.704-109.45.82-.29zM336.19 238.873l-.82.29-38.643-109.452.82-.29zM341.963 236.841l-2.16.761-38.577-109.496 2.16-.761z"/></g></g></g></svg>