<?xml version="1.0" encoding="utf-8"?>
<!-- Generator: Adobe Illustrator 16.0.0, SVG Export Plug-In . SVG Version: 6.00 Build 0)  -->
<!DOCTYPE svg PUBLIC "-//W3C//DTD SVG 1.1//EN" "http://www.w3.org/Graphics/SVG/1.1/DTD/svg11.dtd">
<svg version="1.1" id="Layer_1" xmlns="http://www.w3.org/2000/svg" xmlns:xlink="http://www.w3.org/1999/xlink" x="0px" y="0px"
	 width="691.65px" height="113.39px" viewBox="0 0 691.65 113.39" enable-background="new 0 0 691.65 113.39" xml:space="preserve">
<g id="BGSIZE">
	<rect y="0" fill="#ED1C24" fill-opacity="0" width="691.65" height="113.39"/>
</g>
<g id="leftHandOVERLAY">
	<g id="Layer_60">
		<path opacity="0.1" fill="#1F1B0A" enable-background="new    " d="M77.91,53.06c0,0-62.91,0-70,0S5,66.94,6.83,74.11
			s0.5,15.75,4.08,17.94c3.58,2.19,7.84-0.2,7.84-0.2c0.79-0.51,1.55-1.22,2.09-2.21c0.87,4.6,1.4,8.74,1.91,12.47
			c0.78,5.69,6.48,4.44,8.35,4.17c1.54-0.22,6.05-0.76,7.92-5.08c2.06-3.78,0.98-14.14,2.2-1.61c0.14,1.51,0.27,2.97,0.4,4.38
			c0.57,6.19,6.42,5.17,8.33,4.99c1.59-0.15,6.21-0.48,8.28-5.07c1.26-2.44,1.78-7.61,1.5-5c-0.28,2.61,0.33,3.72,0.33,3.72
			c1.47,3.06,5.75,2.78,7.32,2.78c1.7,0,6.87,0.12,9.18-4.77C88.52,72.87,77.91,53.06,77.91,53.06z"/>
	</g>
	<g id="skin_copy_2">
		<g>
			<defs>
				<path id="SVGID_1_" d="M99.62,56.06c-4.93-9.42-10.96-13.64-12.31-16.81c-2.5-5.87-9.11-5.96-16.69-5.96
					c-2.68,0-4.37,1.33-5.44,3.29c-0.63-0.69-1.16-1.36-1.51-2.05c-3.08-6.16-7.86-4.39-15.41-3.68c-3.44,0.32-5.43,2.88-6.54,6.15
					c-2.96-3.63-6.53-3.61-12.94-2.71c-3.21,0.45-5.43,2.7-6.87,5.56c-2.92-2.43-9.92-1.18-12.49-0.41c-2.71,0.81-4.4,6.33-5.6,9.85
					c-1.09,3.21-0.8,7.39-0.8,7.39C3.4,60.11,5.82,68,8.46,73.03c2.73,5.23,3.48,10.16,4.6,14.21c1.12,4.05,5.33,2.55,6.72,2.17
					c1.01-0.28,3.73-0.98,5.06-3.39c0.87,4.51,1.4,8.57,1.91,12.23c0.78,5.58,6.48,4.36,8.35,4.09c1.86-0.26,8.05-0.96,8.7-8.1
					c0.23-2.58,0.27-5.67,0.2-8.67c0.81,5.41,1.21,10.21,1.61,14.51c0.57,6.08,6.42,5.07,8.33,4.9c1.91-0.18,8.23-0.58,9.19-8.27
					c0.19-1.5,0.32-3.16,0.41-4.88c0.01,1.56,0,3.05,0,4.48c0,5.58,5.92,5.17,7.83,5.17s8.25,0.17,9.92-6.75
					c0.44-1.81,2.76-23.58,3.07-25.7c1.12-4.94,2.94-12.31,2.94-12.31h10.96C98.25,56.69,99.46,56.82,99.62,56.06L99.62,56.06z"/>
			</defs>
			<clipPath id="SVGID_2_">
				<use xlink:href="#SVGID_1_"  overflow="visible"/>
			</clipPath>
			<g id="content_copy_2" clip-path="url(#SVGID_2_)">
				<g id="base_copy_2">
					
						<linearGradient id="SVGID_3_" gradientUnits="userSpaceOnUse" x1="-76.3364" y1="162.8821" x2="129.6611" y2="162.8821" gradientTransform="matrix(1 0 0 -1 78 230.3872)">
						<stop  offset="0" style="stop-color:#FFDEC5"/>
						<stop  offset="1" style="stop-color:#FFDEC5"/>
					</linearGradient>
					<rect x="0.66" y="27.94" fill="url(#SVGID_3_)" width="100.75" height="79.12"/>
				</g>
				<g id="shadow_copy_2">
					<path opacity="0.1" fill="#1F1B0A" enable-background="new    " d="M33.45,34.69c0,0,2.83,0,2.33,5.5s0.51,13.05,1.34,23.3
						s0.49,13.62,1.66,21.87s3.58,14.93-2.92,16.43c4.23,0.18,6.51-2.48,7.56-4.9c1.05-2.42,1.4-7.01,1.4-7.01l-4.1-22.28
						l0.72-36.82h-8V34.69z"/>
					<path opacity="0.1" fill="#1F1B0A" enable-background="new    " d="M56.83,30.82c0,0,4.06,1.69,3.5,6.12
						c-0.56,4.44-0.94,12.06-0.62,20.94s-0.56,14.31,0.88,33.31c0.79,10.51-2.73,13.04-6.31,13.38c0,0,2.67,0.73,5.88-1.73
						s3.27-5.46,3.27-5.46l-0.83-30.12L65,26.57h-8.11L56.83,30.82z"/>
					<path opacity="0.1" fill="#1F1B0A" enable-background="new    " d="M10.77,39.94c0,0,4.31-0.94,3.81,4.69
						s-1.19,10.56,0.25,17.19s3.12,10.5,4.38,16.88s2.94,9.94-1.5,10.94c0,0,6.6-0.58,7.12-3.98c-1.97-6.83-4.56-24.96-4.56-24.96
						l0.81-26.5H10.77V39.94z"/>
					<path opacity="0.1" fill="#1F1B0A" enable-background="new    " d="M87.58,52.51l-0.72,4.19h12.63
						c0.31-1.52,0.76-3.45,1.25-5.42l0.67-15.26H83.64c2.44,4.31,1.56,3.88,3,9.31C88.08,50.76,87.58,52.51,87.58,52.51z"/>
				</g>
				<g id="highlight_copy_2">
					
						<linearGradient id="SVGID_4_" gradientUnits="userSpaceOnUse" x1="4.9043" y1="193.3938" x2="-0.9431" y2="169.5865" gradientTransform="matrix(1 0 0 -1 78 230.3872)">
						<stop  offset="0" style="stop-color:#FFFFFF;stop-opacity:0.5"/>
						<stop  offset="1" style="stop-color:#FFFFFF;stop-opacity:0"/>
					</linearGradient>
					<path opacity="0.6" fill="url(#SVGID_4_)" enable-background="new    " d="M78.02,36.32c0,0,4.06-0.44,5.06,3.94
						s3.62,9.5,1.19,17.38s-4.94,1.31-4.69-3.94s-3.38-10.62-3.5-14.19C75.95,35.94,78.02,36.32,78.02,36.32z"/>
				</g>
			</g>
		</g>
	</g>
	<g id="nailsBase_copy_2">
		<path opacity="0.4" fill="#FFFFFF" enable-background="new    " d="M77.89,95.56c0,0,0.3,2.57-1.49,2.47
			c-3.14-0.18-7.98,0.24-9.62,0.53c-1.42,0.25-1.49-0.5-1.62-2.82c0,0-0.68-6.09,0.76-8.89c0.4-0.78,1.11-1.24,1.87-1.33
			c3.88-0.44,9.31-1.44,9.73,4.45C77.73,92.71,77.72,93.33,77.89,95.56z"/>
		<path opacity="0.4" fill="#FFFFFF" enable-background="new    " d="M40.61,95.54c0,0,0.65,2.52-1.1,2.67
			c-3.08,0.25-7.73,1.33-9.28,1.85c-1.34,0.45-1.52-0.3-1.97-2.59c0,0-1.52-5.99-0.51-9c0.28-0.84,0.91-1.4,1.64-1.59
			c3.72-0.97,8.85-2.72,10.09,3.12C40.05,92.72,40.14,93.34,40.61,95.54z"/>
		<path opacity="0.4" fill="#FFFFFF" enable-background="new    " d="M23.31,83.81c0,0,0.73,1.8-0.58,2.09
			c-2.31,0.5-5.74,1.78-6.86,2.32c-0.98,0.47-1.18-0.06-1.74-1.71c0,0-1.72-4.27-1.24-6.6c0.14-0.65,0.56-1.12,1.09-1.34
			c2.72-1.1,6.46-2.92,7.95,1.26C22.62,81.78,22.74,82.23,23.31,83.81z"/>
		<path opacity="0.4" fill="#FFFFFF" enable-background="new    " d="M59.83,97.93c0,0,0.56,2.77-1.23,2.82
			c-3.15,0.1-7.93,1-9.52,1.47c-1.39,0.41-1.54-0.41-1.9-2.92c0,0-1.3-6.56-0.14-9.75c0.32-0.89,0.98-1.46,1.73-1.62
			c3.82-0.84,9.12-2.44,10.14,3.94C59.38,94.85,59.44,95.52,59.83,97.93z"/>
	</g>
	<g id="nailWhites_copy_2">
		<path opacity="0.8" fill="#FFFFFF" enable-background="new    " d="M75.74,86.15c-1.34,1.15-3.35,1.88-5.61,1.88
			c-1.6,0-3.08-0.38-4.29-1c0.03-0.06,0.05-0.12,0.08-0.18c0.4-0.78,1.11-1.24,1.87-1.33C70.41,85.22,73.73,84.67,75.74,86.15z"/>
		<path opacity="0.8" fill="#FFFFFF" enable-background="new    " d="M29.38,86.88c2.48-0.65,5.58-1.63,7.75-0.49
			c-1.24,1.2-3.31,1.99-5.66,1.99c-1.22,0-2.37-0.22-3.37-0.59C28.42,87.34,28.87,87.02,29.38,86.88z"/>
		<path opacity="0.8" fill="#FFFFFF" enable-background="new    " d="M19.74,77.39c-0.96,1.38-2.8,2.31-4.91,2.31
			c-0.63,0-1.23-0.09-1.8-0.24c0.2-0.42,0.54-0.73,0.94-0.89C15.77,77.84,18,76.81,19.74,77.39z"/>
		<path opacity="0.8" fill="#FFFFFF" enable-background="new    " d="M48.76,87.94c2.63-0.58,5.97-1.52,8.12,0.04
			c-1.36,1.33-3.6,2.21-6.14,2.21c-1.34,0-2.6-0.25-3.69-0.67C47.38,88.66,48.02,88.1,48.76,87.94z"/>
	</g>
	<g id="strokesEditable_copy_3">
		
			<linearGradient id="SVGID_5_" gradientUnits="userSpaceOnUse" x1="-75.6621" y1="162.9631" x2="131.1689" y2="162.9631" gradientTransform="matrix(1 0 0 -1 78 230.3872)">
			<stop  offset="0" style="stop-color:#AD8B73"/>
			<stop  offset="1" style="stop-color:#C2B59B"/>
		</linearGradient>
		<path fill="url(#SVGID_5_)" d="M98.32,52.58c-1.84-3.23-4.27-5.99-6.65-8.81c-2.62-3.1-4.5-7.73-8.16-9.74
			c-4.21-2.35-15.25-3.4-18.55,1.02c-2.38-3.28-3.91-5.84-8.52-5.89c-5.75-0.06-12.51,0.22-15.15,6.15
			c-5.22-4.96-16.26-2.76-19.77,3.16c-3.59-1.87-8.6-0.99-12.32,0.09c-5.57,1.85-7.3,13.19-7.08,18.11
			c0.05,1.17,0.41,2.35,0.64,3.49C4.25,66.2,6.9,71.55,9.49,77.14c1.25,3.48,1.65,8.93,3.87,11.85c2.44,3.21,8.8,0.8,11.05-1.47
			c0.76,3.68,0.64,11.52,3.45,14.15c2.52,2.45,7.52,1.5,10.48,0.49c3.6-1.24,5.76-4.2,6.13-7.97c0.49,4.41,0.01,10.61,5.75,11.35
			c5.5,0.72,11.58-1.28,13.2-7.04c1.46,3.79,6.5,3.68,9.86,3.41c4.43-0.36,7.77-3.04,8.76-7.4c1.91-8.45,1.51-17.19,3.27-25.6
			c1.79-5.98,4.59-15.39,1.8-21.38c1.66,6.08-1.58,15.02-3.53,20.93l-0.01,0.03c-2.01,8.31-1.31,17.24-2.92,25.7
			c-1.09,5.74-6.11,7.01-11.27,6.73c-7.33-0.35-5.27-8.4-5.3-13.6c-0.04-7.77-1.68-15.71-0.32-23.41c0.29-4.66,0.4-9.33,0.55-14
			c0.15-4.56-0.84-15.49,6.11-15.63c6.12-0.38,12.27-0.42,15.95,5.13c3.94,5.94,8.92,10.63,11.85,17.28c0.6,0,0.83,0,1.24,0
			c0.08-0.39,0.17-0.81,0.26-1.25C99.32,54.47,98.86,53.51,98.32,52.58C97.54,51.2,98.86,53.51,98.32,52.58z M21.57,88.24
			c-2.54,1.2-7.12,2.53-8.06-1.25c-0.88-3.46-1.62-6.93-2.66-10.35C8.63,71.01,6.1,65.62,4.57,59.72c-0.18-0.86-0.79-2.25-0.62-3.16
			C3.73,52.5,5.08,42.49,9.44,40.43c0.09-0.05,0.19-0.08,0.28-0.11c3.19-0.9,7.84-1.81,10.95-0.17c-2.12,4.75-1.97,9.6-1.45,14.63
			c-0.35,1.3-0.56,2.65-0.48,4c0.06,2.15,0.98,4.41,1.5,6.48c0.43,7.32,2.34,13.71,3.9,20.82C23.52,87.04,22.59,87.77,21.57,88.24
			C20.84,88.59,22.29,87.91,21.57,88.24z M43.23,91.13c-0.03,1.24,0.03,2.59-0.21,3.82c-0.8,5.54-8.5,9.06-13.55,6.68
			c-2.98-1.4-2.72-7.28-3.1-10.18c-1.13-8.45-4.17-17.06-3.9-25.61c-0.55-6.77-2.56-14.64-1.06-21.37c0.82-3.67,2.8-8.07,6.82-9.07
			c3.93-0.99,9.39-1.57,12.42,1.65c-2.46,7.7-0.75,16.67-0.4,24.63c0.22,4.94-0.01,9.62,1.06,14.5c0.63,2.89,1.28,5.76,1.8,8.67
			C43.21,86.95,43.23,89.04,43.23,91.13z M62.89,40.19c-1.47,7.43-0.86,15.73-1.25,23.33c-0.26,5.07-0.28,9.64,0.4,14.68
			c0.79,5.85,1.04,11.73,0.48,17.61c-0.38,6.31-4.98,8.75-10.83,8.81c-7.01,0.2-5.84-8.27-6.29-13.17
			c-0.82-8.82-3.41-17.79-2.81-26.67c-0.35-8.59-2.7-19.38,0.18-27.62c2.06-5.9,7.83-6.03,13.31-6.2c4.36-0.13,5.52,2.33,7.78,5.28
			c0.08,0.09,0.16,0.17,0.23,0.26C63.49,37.7,63.14,38.96,62.89,40.19C62.57,41.8,63.14,38.96,62.89,40.19z"/>
	</g>
</g>
<g id="rightHandOVERLAY_copy">
	<g id="Layer_60_copy">
		<path opacity="0.1" fill="#1F1B0A" enable-background="new    " d="M606.09,100.62c1.6,5.17,7.48,4.77,9.18,4.77
			c1.58,0,5.85,0.28,7.32-2.78c0,0,0.6-1.11,0.33-3.72c-0.28-2.61,0.24,2.56,1.5,5c2.07,4.6,6.7,4.92,8.28,5.07
			c1.91,0.18,7.76,1.21,8.33-4.99c0.13-1.4,0.26-2.87,0.4-4.38c1.21-12.52,0.13-2.17,2.2,1.61c1.87,4.32,6.37,4.85,7.92,5.08
			c1.87,0.27,7.56,1.52,8.35-4.17c0.52-3.73,1.04-7.87,1.91-12.47c0.54,0.99,1.3,1.7,2.09,2.21c0,0,4.26,2.39,7.84,0.2
			c3.58-2.19,2.25-10.77,4.08-17.94s6-21.05-1.08-21.05s-70.78,2.11-70.78,2.11s-0.84,5.95,0.56,21.37
			C605.77,90.49,603.85,93.38,606.09,100.62z"/>
	</g>
	<g id="skin_copy_3">
		<g>
			<defs>
				<path id="SVGID_6_" d="M592.01,56.06c4.93-9.42,10.96-13.64,12.31-16.81c2.5-5.87,9.11-5.96,16.69-5.96
					c2.68,0,4.37,1.33,5.44,3.29c0.63-0.69,1.16-1.36,1.51-2.05c3.08-6.16,7.86-4.39,15.41-3.68c3.44,0.32,5.43,2.88,6.54,6.15
					c2.96-3.63,6.53-3.61,12.93-2.71c3.21,0.45,5.43,2.7,6.87,5.56c2.92-2.43,9.92-1.18,12.49-0.41c2.71,0.81,4.4,6.33,5.6,9.85
					c1.09,3.21,0.8,7.39,0.8,7.39c-0.36,3.41-2.79,11.3-5.42,16.34c-2.73,5.23-3.47,10.16-4.6,14.21c-1.12,4.05-5.33,2.55-6.72,2.17
					c-1.01-0.28-3.73-0.98-5.06-3.39c-0.87,4.51-1.4,8.57-1.91,12.23c-0.78,5.58-6.48,4.36-8.35,4.09c-1.87-0.26-8.05-0.96-8.7-8.1
					c-0.23-2.58-0.27-5.67-0.2-8.67c-0.81,5.41-1.21,10.21-1.61,14.51c-0.57,6.08-6.42,5.07-8.33,4.9
					c-1.91-0.18-8.23-0.58-9.19-8.27c-0.19-1.5-0.32-3.16-0.41-4.88c-0.01,1.56,0,3.05,0,4.48c0,5.58-5.92,5.17-7.83,5.17
					s-8.25,0.17-9.92-6.75c-0.43-1.81-2.76-23.58-3.06-25.7c-1.12-4.94-2.94-12.31-2.94-12.31h-10.96
					C593.38,56.69,592.17,56.82,592.01,56.06L592.01,56.06z"/>
			</defs>
			<clipPath id="SVGID_7_">
				<use xlink:href="#SVGID_6_"  overflow="visible"/>
			</clipPath>
			<g id="content_copy_5" clip-path="url(#SVGID_7_)">
				<g id="base_copy_5">
					
						<linearGradient id="SVGID_8_" gradientUnits="userSpaceOnUse" x1="417.3311" y1="162.8821" x2="613.4469" y2="162.8821" gradientTransform="matrix(1 0 0 -1 78 230.3872)">
						<stop  offset="0" style="stop-color:#FFDEC5"/>
						<stop  offset="1" style="stop-color:#FFEFD4"/>
					</linearGradient>
					<rect x="590.22" y="27.94" fill="url(#SVGID_8_)" width="100.75" height="79.12"/>
				</g>
				<g id="shadow_copy_5">
					<path opacity="0.1" fill="#231F20" enable-background="new    " d="M609.37,35.19c0,0-3.83,4-0.33,8s3,16.17,3.33,20.5
						s0.91,11.83,0.75,17.92s-1.83,19.67,7.5,19.5v10.92h-52.75V25.94h41.5V35.19L609.37,35.19z"/>
					<path opacity="0.1" fill="#231F20" enable-background="new    " d="M633.22,31.07c0,0-4.44,1.88-1.69,7.44
						c2.75,5.56,0.5,9.12,1.25,20.88s-1.19,20.44-1.62,25.81c-0.44,5.37-2.12,16.44,5.06,19.12v5.75h-8.75l2.35-40.78l-1.92-29.64
						l-4.37-11.14h9.69V31.07z"/>
					<path opacity="0.1" fill="#231F20" enable-background="new    " d="M651.1,29.32l-0.44,39.81l-5.22,40.56h9.47v-8.19
						c-6.69-3-5-8.81-3.94-17.31c1.06-8.5,2.62-15.19,2.5-22.75c-0.12-7.56,1.81-16.94,0.56-21.62c-1.25-4.69,1.44-5.06,1.44-5.06
						v-5.44L651.1,29.32L651.1,29.32z"/>
					<path opacity="0.1" fill="#231F20" enable-background="new    " d="M674.91,39.26c0,0-2.69,0.12-1.56,3.69
						c1.13,3.56,1.94,8.06,1.25,13.75c-0.69,5.69-4.12,14.31-5.19,19.69c-1.06,5.38-2.38,10,0.75,11.81v4.19h-4.06l4.69-25.06
						l1.31-21.31l-3.69-10.38h6.5V39.26z"/>
				</g>
				<g id="highlight_copy_5">
					
						<linearGradient id="SVGID_9_" gradientUnits="userSpaceOnUse" x1="543.1484" y1="194.3889" x2="540.7232" y2="184.5146" gradientTransform="matrix(1 0 0 -1 78 230.3872)">
						<stop  offset="0" style="stop-color:#FFFFFF"/>
						<stop  offset="1" style="stop-color:#FFFFFF;stop-opacity:0"/>
					</linearGradient>
					<path opacity="0.6" fill="url(#SVGID_9_)" enable-background="new    " d="M613.21,37.88c0,0,0.31-2.12,5.81-2
						s7,3.25,7.19,8.62c0.19,5.38-2.5,1.75-6-2.5S611.96,41.38,613.21,37.88z"/>
					
						<linearGradient id="SVGID_10_" gradientUnits="userSpaceOnUse" x1="565.6338" y1="197.5422" x2="563.1608" y2="187.474" gradientTransform="matrix(1 0 0 -1 78 230.3872)">
						<stop  offset="0" style="stop-color:#FFFFFF"/>
						<stop  offset="1" style="stop-color:#FFFFFF;stop-opacity:0"/>
					</linearGradient>
					<path opacity="0.6" fill="url(#SVGID_10_)" enable-background="new    " d="M635.65,34.82c0.38-1.44,0.79-2.25,5.91-2.12
						s6.92,3.56,7.09,8.94c0.17,5.38-2.73,1.44-5.99-2.81C639.41,34.57,634.96,37.46,635.65,34.82z"/>
					
						<linearGradient id="SVGID_11_" gradientUnits="userSpaceOnUse" x1="586.5156" y1="193.7249" x2="584.1937" y2="184.2708" gradientTransform="matrix(1 0 0 -1 78 230.3872)">
						<stop  offset="0" style="stop-color:#FFFFFF"/>
						<stop  offset="1" style="stop-color:#FFFFFF;stop-opacity:0"/>
					</linearGradient>
					<path opacity="0.6" fill="url(#SVGID_11_)" enable-background="new    " d="M657.46,37.88c0.42-1.52,1.7-1.69,4.02-1.62
						c4.8,0.15,6.75,3.03,7.34,8.38c0.59,5.34-2.43,1.64-5.82-2.35C659.62,38.29,656.84,40.13,657.46,37.88z"/>
					
						<linearGradient id="SVGID_12_" gradientUnits="userSpaceOnUse" x1="603.4424" y1="189.1614" x2="601.7499" y2="182.2709" gradientTransform="matrix(1 0 0 -1 78 230.3872)">
						<stop  offset="0" style="stop-color:#FFFFFF"/>
						<stop  offset="1" style="stop-color:#FFFFFF;stop-opacity:0"/>
					</linearGradient>
					<path opacity="0.6" fill="url(#SVGID_12_)" enable-background="new    " d="M676.02,42.08c0.31-1.12,1.25-1.25,2.96-1.19
						c3.53,0.11,5.48,2.23,5.92,6.17c0.44,3.94-2.31,1.21-4.8-1.73C677.61,42.38,675.56,43.73,676.02,42.08z"/>
				</g>
			</g>
		</g>
	</g>
	<g id="nailsBase_copy_3">
		<path opacity="0.4" fill="#FFFFFF" enable-background="new    " d="M613.75,95.56c0,0-0.3,2.57,1.49,2.47
			c3.14-0.18,7.98,0.24,9.62,0.53c1.42,0.25,1.49-0.5,1.62-2.82c0,0,0.68-6.09-0.76-8.89c-0.4-0.78-1.11-1.24-1.87-1.33
			c-3.88-0.44-9.31-1.44-9.73,4.45C613.91,92.71,613.91,93.33,613.75,95.56z"/>
		<path opacity="0.4" fill="#FFFFFF" enable-background="new    " d="M651.02,95.54c0,0-0.65,2.52,1.1,2.67
			c3.08,0.25,7.73,1.33,9.29,1.85c1.34,0.45,1.52-0.3,1.97-2.59c0,0,1.52-5.99,0.51-9c-0.28-0.84-0.91-1.4-1.64-1.59
			c-3.72-0.97-8.85-2.72-10.09,3.12C651.58,92.72,651.5,93.34,651.02,95.54z"/>
		<path opacity="0.4" fill="#FFFFFF" enable-background="new    " d="M668.32,83.81c0,0-0.74,1.8,0.58,2.09
			c2.31,0.5,5.74,1.78,6.86,2.32c0.98,0.47,1.18-0.06,1.74-1.71c0,0,1.72-4.27,1.24-6.6c-0.14-0.65-0.56-1.12-1.09-1.34
			c-2.72-1.1-6.46-2.92-7.95,1.26C669.01,81.78,668.89,82.23,668.32,83.81z"/>
		<path opacity="0.4" fill="#FFFFFF" enable-background="new    " d="M631.8,97.93c0,0-0.56,2.77,1.23,2.82
			c3.15,0.1,7.93,1,9.52,1.47c1.39,0.41,1.54-0.41,1.9-2.92c0,0,1.3-6.56,0.14-9.75c-0.32-0.89-0.98-1.46-1.73-1.62
			c-3.82-0.84-9.12-2.44-10.14,3.94C632.26,94.85,632.2,95.52,631.8,97.93z"/>
	</g>
	<g id="nailWhites_copy_3">
		<path opacity="0.8" fill="#FFFFFF" enable-background="new    " d="M615.89,86.15c1.34,1.15,3.35,1.88,5.61,1.88
			c1.61,0,3.08-0.38,4.29-1c-0.03-0.06-0.05-0.12-0.08-0.18c-0.4-0.78-1.11-1.24-1.87-1.33C621.22,85.22,617.91,84.67,615.89,86.15z
			"/>
		<path opacity="0.8" fill="#FFFFFF" enable-background="new    " d="M662.25,86.88c-2.48-0.65-5.58-1.63-7.75-0.49
			c1.24,1.2,3.31,1.99,5.66,1.99c1.22,0,2.37-0.22,3.37-0.59C663.21,87.34,662.76,87.02,662.25,86.88z"/>
		<path opacity="0.8" fill="#FFFFFF" enable-background="new    " d="M671.9,77.39c0.96,1.38,2.8,2.31,4.91,2.31
			c0.63,0,1.23-0.09,1.8-0.24c-0.2-0.42-0.54-0.73-0.94-0.89C675.87,77.84,673.64,76.81,671.9,77.39z"/>
		<path opacity="0.8" fill="#FFFFFF" enable-background="new    " d="M642.88,87.94c-2.63-0.58-5.97-1.52-8.12,0.04
			c1.36,1.33,3.6,2.21,6.14,2.21c1.34,0,2.6-0.25,3.69-0.67C644.26,88.66,643.61,88.1,642.88,87.94z"/>
	</g>
	<g id="strokesEditable_copy_5">
		
			<linearGradient id="SVGID_13_" gradientUnits="userSpaceOnUse" x1="415.6602" y1="162.9836" x2="621.6576" y2="162.9836" gradientTransform="matrix(1 0 0 -1 78 230.3872)">
			<stop  offset="0" style="stop-color:#C2B59B"/>
			<stop  offset="1" style="stop-color:#DDC8A4"/>
		</linearGradient>
		<path fill="url(#SVGID_13_)" d="M688.98,50.25c-0.87-3.61-2.56-10.36-6.55-11.68c-3.72-1.09-8.73-1.96-12.32-0.09
			c-3.51-5.93-14.53-8.1-19.77-3.16c-2.56-5.74-8.38-5.85-13.92-6.12c-5.18-0.26-7.02,2.1-9.74,5.86
			c-3.31-4.42-14.34-3.37-18.55-1.02c-3.66,2.01-5.54,6.64-8.16,9.74c-3.1,3.67-6.11,7.24-8.08,11.67c0.1,0.44,0.19,0.86,0.26,1.25
			c0.41,0,0.64,0,1.24,0c2.94-6.65,7.91-11.33,11.85-17.28c3.68-5.56,9.83-5.52,15.95-5.13c6.96,0.14,5.97,11.07,6.11,15.63
			c0.15,4.67,0.26,9.34,0.55,14c1.36,7.7-0.28,15.65-0.32,23.41c-0.02,4.42,2,12.52-4.06,13.48c-5.4,0.85-11.35-0.56-12.5-6.61
			c-1.6-8.46-0.91-17.39-2.92-25.7l-0.01-0.03c-1.95-5.91-5.19-14.86-3.53-20.93c-2.79,5.99,0.01,15.4,1.8,21.38
			c1.76,8.41,1.36,17.15,3.27,25.6c0.98,4.36,4.33,7.05,8.76,7.4c3.36,0.27,8.39,0.37,9.86-3.41c1.48,5.46,6.6,7.11,11.75,7.12
			c6.92,0.04,6.62-6.22,7.2-11.44c0.37,3.77,2.53,6.73,6.13,7.97c2.96,1.01,7.96,1.96,10.48-0.49c2.81-2.63,2.69-10.48,3.45-14.15
			c2.13,2.16,7.56,4.22,10.34,2.18c2.87-2.11,3.41-9.3,4.59-12.56c2.59-5.59,5.25-10.95,6.73-16.98c0.23-1.14,0.58-2.32,0.63-3.49
			C689.61,54.53,689.47,52.34,688.98,50.25C688.88,49.86,689.35,51.83,688.98,50.25z M646.74,86.69c-0.43,3.7-0.73,7.41-1.04,11.11
			c-0.25,2.81-0.37,5.85-3.65,6.63c-6.31,1.5-12.52-1.98-12.92-8.62c-0.56-5.88-0.31-11.76,0.48-17.61
			c0.7-5.19,0.65-9.89,0.37-15.11c-0.15-2.96-0.29-5.91-0.4-8.87c-0.22-5.76,0.58-12.45-2.03-17.72c0.08-0.09,0.16-0.17,0.23-0.26
			c1.83-2.39,2.8-4.99,6.32-5.26c5.67-0.43,12.66,0.13,14.77,6.17c2.88,8.25,0.52,19.04,0.18,27.62
			C649.56,72.23,647.59,79.35,646.74,86.69C646.31,90.4,646.96,84.84,646.74,86.69z M667,81c-1.06,5.12-1.68,10.29-2.41,15.47
			c-0.65,4.5-2.59,6.18-7.26,5.47c-4.26-0.65-8.03-2.24-8.72-6.99c-0.62-3.15-0.23-6.91-0.1-10.1c0.5-2.77,1.11-5.51,1.71-8.26
			c1-4.54,0.87-8.78,1.08-13.36c0.38-8.36,2.25-18.11-0.33-26.18c2.97-3.16,7.6-2.42,11.45-1.83c4.59,0.7,6.86,5.11,7.79,9.26
			c1.5,6.73-0.51,14.6-1.06,21.37C669.33,71.06,668.15,75.95,667,81z M687.7,56.28l-0.02,0.28c0.19,0.9-0.45,2.32-0.62,3.16
			c-1.53,5.89-4.07,11.28-6.29,16.91c-1.06,3.51-1.29,8.28-3.08,11.45c-1.89,3.34-8.66,0.41-10.19-2c1.55-7.11,3.47-13.49,3.9-20.82
			c0.89-3.59,2.02-6.78,1.02-10.48c0.52-5.03,0.67-9.89-1.45-14.63c3.12-1.65,7.77-0.74,10.95,0.17c0.09,0.03,0.18,0.06,0.28,0.11
			C686.46,42.44,687.88,52.28,687.7,56.28z"/>
	</g>
</g>
</svg>
