<svg xmlns="http://www.w3.org/2000/svg" xmlns:xlink="http://www.w3.org/1999/xlink" width="691.65" height="113.39" viewBox="0 0 691.65 113.39"><path fill="none" d="M0 0h691.65v113.39h-691.65z"/><g><path opacity=".1" fill="#1F1B0A" enable-background="new" d="M77.91 53.06h-70s-2.91 13.88-1.08 21.05.5 15.75 4.08 17.94c3.58 2.19 7.84-.2 7.84-.2.79-.51 1.55-1.22 2.09-2.21.87 4.6 1.4 8.74 1.91 12.47.78 5.69 6.48 4.44 8.35 4.17 1.54-.22 6.05-.76 7.92-5.08 2.06-3.78.98-14.14 2.2-1.61l.4 4.38c.57 6.19 6.42 5.17 8.33 4.99 1.59-.15 6.21-.48 8.28-5.07 1.26-2.44 1.78-7.61 1.5-5-.28 2.61.33 3.72.33 3.72 1.47 3.06 5.75 2.78 7.32 2.78 1.7 0 6.87.12 9.18-4.77 11.96-27.75 1.35-47.56 1.35-47.56z"/><g><defs><path id="a" d="M99.62 56.06c-4.93-9.42-10.96-13.64-12.31-16.81-2.5-5.87-9.11-5.96-16.69-5.96-2.68 0-4.37 1.33-5.44 3.29-.63-.69-1.16-1.36-1.51-2.05-3.08-6.16-7.86-4.39-15.41-3.68-3.44.32-5.43 2.88-6.54 6.15-2.96-3.63-6.53-3.61-12.94-2.71-3.21.45-5.43 2.7-6.87 5.56-2.92-2.43-9.92-1.18-12.49-.41-2.71.81-4.4 6.33-5.6 9.85-1.09 3.21-.8 7.39-.8 7.39.38 3.43 2.8 11.32 5.44 16.35 2.73 5.23 3.48 10.16 4.6 14.21 1.12 4.05 5.33 2.55 6.72 2.17 1.01-.28 3.73-.98 5.06-3.39.87 4.51 1.4 8.57 1.91 12.23.78 5.58 6.48 4.36 8.35 4.09 1.86-.26 8.05-.96 8.7-8.1.23-2.58.27-5.67.2-8.67.81 5.41 1.21 10.21 1.61 14.51.57 6.08 6.42 5.07 8.33 4.9 1.91-.18 8.23-.58 9.19-8.27.19-1.5.32-3.16.41-4.88.01 1.56 0 3.05 0 4.48 0 5.58 5.92 5.17 7.83 5.17s8.25.17 9.92-6.75c.44-1.81 2.76-23.58 3.07-25.7 1.12-4.94 2.94-12.31 2.94-12.31h10.96c-.01-.03 1.2.1 1.36-.66z"/></defs><clipPath id="b"><use xlink:href="#a" overflow="visible"/></clipPath><g clip-path="url(#b)"><g><linearGradient id="c" gradientUnits="userSpaceOnUse" x1="-76.336" y1="162.882" x2="129.661" y2="162.882" gradientTransform="matrix(1 0 0 -1 78 230.387)"><stop offset="0" stop-color="#FFDEC5"/><stop offset="1" stop-color="#FFDEC5"/></linearGradient><path fill="url(#c)" d="M.66 27.94h100.75v79.12h-100.75z"/></g><g fill="#1F1B0A"><path opacity=".1" enable-background="new" d="M33.45 34.69s2.83 0 2.33 5.5.51 13.05 1.34 23.3.49 13.62 1.66 21.87 3.58 14.93-2.92 16.43c4.23.18 6.51-2.48 7.56-4.9 1.05-2.42 1.4-7.01 1.4-7.01l-4.1-22.28.72-36.82h-8v3.91zM56.83 30.82s4.06 1.69 3.5 6.12c-.56 4.44-.94 12.06-.62 20.94s-.56 14.31.88 33.31c.79 10.51-2.73 13.04-6.31 13.38 0 0 2.67.73 5.88-1.73l3.27-5.46-.83-30.12 2.4-40.69h-8.11l-.06 4.25zM10.77 39.94s4.31-.94 3.81 4.69-1.19 10.56.25 17.19 3.12 10.5 4.38 16.88 2.94 9.94-1.5 10.94c0 0 6.6-.58 7.12-3.98-1.97-6.83-4.56-24.96-4.56-24.96l.81-26.5h-10.31v5.74zM87.58 52.51l-.72 4.19h12.63c.31-1.52.76-3.45 1.25-5.42l.67-15.26h-17.77c2.44 4.31 1.56 3.88 3 9.31 1.44 5.43.94 7.18.94 7.18z"/></g><g><linearGradient id="d" gradientUnits="userSpaceOnUse" x1="4.904" y1="193.394" x2="-.943" y2="169.587" gradientTransform="matrix(1 0 0 -1 78 230.387)"><stop offset="0" stop-color="#fff" stop-opacity=".5"/><stop offset="1" stop-color="#fff" stop-opacity="0"/></linearGradient><path opacity=".6" fill="url(#d)" enable-background="new" d="M78.02 36.32s4.06-.44 5.06 3.94 3.62 9.5 1.19 17.38-4.94 1.31-4.69-3.94-3.38-10.62-3.5-14.19c-.13-3.57 1.94-3.19 1.94-3.19z"/></g></g></g><g fill="#fff"><path opacity=".4" enable-background="new" d="M77.89 95.56s.3 2.57-1.49 2.47c-3.14-.18-7.98.24-9.62.53-1.42.25-1.49-.5-1.62-2.82 0 0-.68-6.09.76-8.89.4-.78 1.11-1.24 1.87-1.33 3.88-.44 9.31-1.44 9.73 4.45.21 2.74.2 3.36.37 5.59zM40.61 95.54s.65 2.52-1.1 2.67c-3.08.25-7.73 1.33-9.28 1.85-1.34.45-1.52-.3-1.97-2.59 0 0-1.52-5.99-.51-9 .28-.84.91-1.4 1.64-1.59 3.72-.97 8.85-2.72 10.09 3.12.57 2.72.66 3.34 1.13 5.54zM23.31 83.81s.73 1.8-.58 2.09c-2.31.5-5.74 1.78-6.86 2.32-.98.47-1.18-.06-1.74-1.71 0 0-1.72-4.27-1.24-6.6.14-.65.56-1.12 1.09-1.34 2.72-1.1 6.46-2.92 7.95 1.26.69 1.95.81 2.4 1.38 3.98zM59.83 97.93s.56 2.77-1.23 2.82c-3.15.1-7.93 1-9.52 1.47-1.39.41-1.54-.41-1.9-2.92 0 0-1.3-6.56-.14-9.75.32-.89.98-1.46 1.73-1.62 3.82-.84 9.12-2.44 10.14 3.94.47 2.98.53 3.65.92 6.06z"/></g><g fill="#fff"><path opacity=".8" enable-background="new" d="M75.74 86.15c-1.34 1.15-3.35 1.88-5.61 1.88-1.6 0-3.08-.38-4.29-1l.08-.18c.4-.78 1.11-1.24 1.87-1.33 2.62-.3 5.94-.85 7.95.63zM29.38 86.88c2.48-.65 5.58-1.63 7.75-.49-1.24 1.2-3.31 1.99-5.66 1.99-1.22 0-2.37-.22-3.37-.59.32-.45.77-.77 1.28-.91zM19.74 77.39c-.96 1.38-2.8 2.31-4.91 2.31-.63 0-1.23-.09-1.8-.24.2-.42.54-.73.94-.89 1.8-.73 4.03-1.76 5.77-1.18zM48.76 87.94c2.63-.58 5.97-1.52 8.12.04-1.36 1.33-3.6 2.21-6.14 2.21-1.34 0-2.6-.25-3.69-.67.33-.86.97-1.42 1.71-1.58z"/></g><g><linearGradient id="e" gradientUnits="userSpaceOnUse" x1="-75.662" y1="162.963" x2="131.169" y2="162.963" gradientTransform="matrix(1 0 0 -1 78 230.387)"><stop offset="0" stop-color="#AD8B73"/><stop offset="1" stop-color="#C2B59B"/></linearGradient><path fill="url(#e)" d="M98.32 52.58c-1.84-3.23-4.27-5.99-6.65-8.81-2.62-3.1-4.5-7.73-8.16-9.74-4.21-2.35-15.25-3.4-18.55 1.02-2.38-3.28-3.91-5.84-8.52-5.89-5.75-.06-12.51.22-15.15 6.15-5.22-4.96-16.26-2.76-19.77 3.16-3.59-1.87-8.6-.99-12.32.09-5.57 1.85-7.3 13.19-7.08 18.11.05 1.17.41 2.35.64 3.49 1.49 6.04 4.14 11.39 6.73 16.98 1.25 3.48 1.65 8.93 3.87 11.85 2.44 3.21 8.8.8 11.05-1.47.76 3.68.64 11.52 3.45 14.15 2.52 2.45 7.52 1.5 10.48.49 3.6-1.24 5.76-4.2 6.13-7.97.49 4.41.01 10.61 5.75 11.35 5.5.72 11.58-1.28 13.2-7.04 1.46 3.79 6.5 3.68 9.86 3.41 4.43-.36 7.77-3.04 8.76-7.4 1.91-8.45 1.51-17.19 3.27-25.6 1.79-5.98 4.59-15.39 1.8-21.38 1.66 6.08-1.58 15.02-3.53 20.93l-.01.03c-2.01 8.31-1.31 17.24-2.92 25.7-1.09 5.74-6.11 7.01-11.27 6.73-7.33-.35-5.27-8.4-5.3-13.6-.04-7.77-1.68-15.71-.32-23.41.29-4.66.4-9.33.55-14 .15-4.56-.84-15.49 6.11-15.63 6.12-.38 12.27-.42 15.95 5.13 3.94 5.94 8.92 10.63 11.85 17.28h1.24l.26-1.25c-.4-.97-.86-1.93-1.4-2.86-.78-1.38.54.93 0 0zm-76.75 35.66c-2.54 1.2-7.12 2.53-8.06-1.25-.88-3.46-1.62-6.93-2.66-10.35-2.22-5.63-4.75-11.02-6.28-16.92-.18-.86-.79-2.25-.62-3.16-.22-4.06 1.13-14.07 5.49-16.13l.28-.11c3.19-.9 7.84-1.81 10.95-.17-2.12 4.75-1.97 9.6-1.45 14.63-.35 1.3-.56 2.65-.48 4 .06 2.15.98 4.41 1.5 6.48.43 7.32 2.34 13.71 3.9 20.82-.62.96-1.55 1.69-2.57 2.16-.73.35.72-.33 0 0zm21.66 2.89c-.03 1.24.03 2.59-.21 3.82-.8 5.54-8.5 9.06-13.55 6.68-2.98-1.4-2.72-7.28-3.1-10.18-1.13-8.45-4.17-17.06-3.9-25.61-.55-6.77-2.56-14.64-1.06-21.37.82-3.67 2.8-8.07 6.82-9.07 3.93-.99 9.39-1.57 12.42 1.65-2.46 7.7-.75 16.67-.4 24.63.22 4.94-.01 9.62 1.06 14.5.63 2.89 1.28 5.76 1.8 8.67.1 2.1.12 4.19.12 6.28zm19.66-50.94c-1.47 7.43-.86 15.73-1.25 23.33-.26 5.07-.28 9.64.4 14.68.79 5.85 1.04 11.73.48 17.61-.38 6.31-4.98 8.75-10.83 8.81-7.01.2-5.84-8.27-6.29-13.17-.82-8.82-3.41-17.79-2.81-26.67-.35-8.59-2.7-19.38.18-27.62 2.06-5.9 7.83-6.03 13.31-6.2 4.36-.13 5.52 2.33 7.78 5.28l.23.26c-.6 1.2-.95 2.46-1.2 3.69-.32 1.61.25-1.23 0 0z"/></g></g><g><path opacity=".1" fill="#1F1B0A" enable-background="new" d="M606.09 100.62c1.6 5.17 7.48 4.77 9.18 4.77 1.58 0 5.85.28 7.32-2.78 0 0 .6-1.11.33-3.72-.28-2.61.24 2.56 1.5 5 2.07 4.6 6.7 4.92 8.28 5.07 1.91.18 7.76 1.21 8.33-4.99l.4-4.38c1.21-12.52.13-2.17 2.2 1.61 1.87 4.32 6.37 4.85 7.92 5.08 1.87.27 7.56 1.52 8.35-4.17.52-3.73 1.04-7.87 1.91-12.47.54.99 1.3 1.7 2.09 2.21 0 0 4.26 2.39 7.84.2s2.25-10.77 4.08-17.94 6-21.05-1.08-21.05l-70.78 2.11s-.84 5.95.56 21.37c1.25 13.95-.67 16.84 1.57 24.08z"/><g><defs><path id="f" d="M592.01 56.06c4.93-9.42 10.96-13.64 12.31-16.81 2.5-5.87 9.11-5.96 16.69-5.96 2.68 0 4.37 1.33 5.44 3.29.63-.69 1.16-1.36 1.51-2.05 3.08-6.16 7.86-4.39 15.41-3.68 3.44.32 5.43 2.88 6.54 6.15 2.96-3.63 6.53-3.61 12.93-2.71 3.21.45 5.43 2.7 6.87 5.56 2.92-2.43 9.92-1.18 12.49-.41 2.71.81 4.4 6.33 5.6 9.85 1.09 3.21.8 7.39.8 7.39-.36 3.41-2.79 11.3-5.42 16.34-2.73 5.23-3.47 10.16-4.6 14.21-1.12 4.05-5.33 2.55-6.72 2.17-1.01-.28-3.73-.98-5.06-3.39-.87 4.51-1.4 8.57-1.91 12.23-.78 5.58-6.48 4.36-8.35 4.09-1.87-.26-8.05-.96-8.7-8.1-.23-2.58-.27-5.67-.2-8.67-.81 5.41-1.21 10.21-1.61 14.51-.57 6.08-6.42 5.07-8.33 4.9-1.91-.18-8.23-.58-9.19-8.27-.19-1.5-.32-3.16-.41-4.88-.01 1.56 0 3.05 0 4.48 0 5.58-5.92 5.17-7.83 5.17s-8.25.17-9.92-6.75c-.43-1.81-2.76-23.58-3.06-25.7-1.12-4.94-2.94-12.31-2.94-12.31h-10.96c-.01-.02-1.22.11-1.38-.65z"/></defs><clipPath id="g"><use xlink:href="#f" overflow="visible"/></clipPath><g clip-path="url(#g)"><g><linearGradient id="h" gradientUnits="userSpaceOnUse" x1="417.331" y1="162.882" x2="613.447" y2="162.882" gradientTransform="matrix(1 0 0 -1 78 230.387)"><stop offset="0" stop-color="#FFDEC5"/><stop offset="1" stop-color="#FFEFD4"/></linearGradient><path fill="url(#h)" d="M590.22 27.94h100.75v79.12h-100.75z"/></g><g fill="#231F20"><path opacity=".1" enable-background="new" d="M609.37 35.19s-3.83 4-.33 8 3 16.17 3.33 20.5.91 11.83.75 17.92-1.83 19.67 7.5 19.5v10.92h-52.75v-86.09h41.5v9.25zM633.22 31.07s-4.44 1.88-1.69 7.44c2.75 5.56.5 9.12 1.25 20.88s-1.19 20.44-1.62 25.81c-.44 5.37-2.12 16.44 5.06 19.12v5.75h-8.75l2.35-40.78-1.92-29.64-4.37-11.14h9.69v2.56zM651.1 29.32l-.44 39.81-5.22 40.56h9.47v-8.19c-6.69-3-5-8.81-3.94-17.31 1.06-8.5 2.62-15.19 2.5-22.75-.12-7.56 1.81-16.94.56-21.62-1.25-4.69 1.44-5.06 1.44-5.06v-5.44h-4.37zM674.91 39.26s-2.69.12-1.56 3.69c1.13 3.56 1.94 8.06 1.25 13.75-.69 5.69-4.12 14.31-5.19 19.69-1.06 5.38-2.38 10 .75 11.81v4.19h-4.06l4.69-25.06 1.31-21.31-3.69-10.38h6.5v3.62z"/></g><g><linearGradient id="i" gradientUnits="userSpaceOnUse" x1="543.148" y1="194.389" x2="540.723" y2="184.515" gradientTransform="matrix(1 0 0 -1 78 230.387)"><stop offset="0" stop-color="#fff"/><stop offset="1" stop-color="#fff" stop-opacity="0"/></linearGradient><path opacity=".6" fill="url(#i)" enable-background="new" d="M613.21 37.88s.31-2.12 5.81-2 7 3.25 7.19 8.62c.19 5.38-2.5 1.75-6-2.5s-8.25-.62-7-4.12z"/><linearGradient id="j" gradientUnits="userSpaceOnUse" x1="565.634" y1="197.542" x2="563.161" y2="187.474" gradientTransform="matrix(1 0 0 -1 78 230.387)"><stop offset="0" stop-color="#fff"/><stop offset="1" stop-color="#fff" stop-opacity="0"/></linearGradient><path opacity=".6" fill="url(#j)" enable-background="new" d="M635.65 34.82c.38-1.44.79-2.25 5.91-2.12s6.92 3.56 7.09 8.94c.17 5.38-2.73 1.44-5.99-2.81-3.25-4.26-7.7-1.37-7.01-4.01z"/><linearGradient id="k" gradientUnits="userSpaceOnUse" x1="586.516" y1="193.725" x2="584.194" y2="184.271" gradientTransform="matrix(1 0 0 -1 78 230.387)"><stop offset="0" stop-color="#fff"/><stop offset="1" stop-color="#fff" stop-opacity="0"/></linearGradient><path opacity=".6" fill="url(#k)" enable-background="new" d="M657.46 37.88c.42-1.52 1.7-1.69 4.02-1.62 4.8.15 6.75 3.03 7.34 8.38.59 5.34-2.43 1.64-5.82-2.35-3.38-4-6.16-2.16-5.54-4.41z"/><linearGradient id="l" gradientUnits="userSpaceOnUse" x1="603.442" y1="189.161" x2="601.75" y2="182.271" gradientTransform="matrix(1 0 0 -1 78 230.387)"><stop offset="0" stop-color="#fff"/><stop offset="1" stop-color="#fff" stop-opacity="0"/></linearGradient><path opacity=".6" fill="url(#l)" enable-background="new" d="M676.02 42.08c.31-1.12 1.25-1.25 2.96-1.19 3.53.11 5.48 2.23 5.92 6.17.44 3.94-2.31 1.21-4.8-1.73-2.49-2.95-4.54-1.6-4.08-3.25z"/></g></g></g><g fill="#fff"><path opacity=".4" enable-background="new" d="M613.75 95.56s-.3 2.57 1.49 2.47c3.14-.18 7.98.24 9.62.53 1.42.25 1.49-.5 1.62-2.82 0 0 .68-6.09-.76-8.89-.4-.78-1.11-1.24-1.87-1.33-3.88-.44-9.31-1.44-9.73 4.45-.21 2.74-.21 3.36-.37 5.59zM651.02 95.54s-.65 2.52 1.1 2.67c3.08.25 7.73 1.33 9.29 1.85 1.34.45 1.52-.3 1.97-2.59 0 0 1.52-5.99.51-9-.28-.84-.91-1.4-1.64-1.59-3.72-.97-8.85-2.72-10.09 3.12-.58 2.72-.66 3.34-1.14 5.54zM668.32 83.81s-.74 1.8.58 2.09c2.31.5 5.74 1.78 6.86 2.32.98.47 1.18-.06 1.74-1.71 0 0 1.72-4.27 1.24-6.6-.14-.65-.56-1.12-1.09-1.34-2.72-1.1-6.46-2.92-7.95 1.26-.69 1.95-.81 2.4-1.38 3.98zM631.8 97.93s-.56 2.77 1.23 2.82c3.15.1 7.93 1 9.52 1.47 1.39.41 1.54-.41 1.9-2.92 0 0 1.3-6.56.14-9.75-.32-.89-.98-1.46-1.73-1.62-3.82-.84-9.12-2.44-10.14 3.94-.46 2.98-.52 3.65-.92 6.06z"/></g><g fill="#fff"><path opacity=".8" enable-background="new" d="M615.89 86.15c1.34 1.15 3.35 1.88 5.61 1.88 1.61 0 3.08-.38 4.29-1l-.08-.18c-.4-.78-1.11-1.24-1.87-1.33-2.62-.3-5.93-.85-7.95.63zM662.25 86.88c-2.48-.65-5.58-1.63-7.75-.49 1.24 1.2 3.31 1.99 5.66 1.99 1.22 0 2.37-.22 3.37-.59-.32-.45-.77-.77-1.28-.91zM671.9 77.39c.96 1.38 2.8 2.31 4.91 2.31.63 0 1.23-.09 1.8-.24-.2-.42-.54-.73-.94-.89-1.8-.73-4.03-1.76-5.77-1.18zM642.88 87.94c-2.63-.58-5.97-1.52-8.12.04 1.36 1.33 3.6 2.21 6.14 2.21 1.34 0 2.6-.25 3.69-.67-.33-.86-.98-1.42-1.71-1.58z"/></g><g><linearGradient id="m" gradientUnits="userSpaceOnUse" x1="415.66" y1="162.984" x2="621.658" y2="162.984" gradientTransform="matrix(1 0 0 -1 78 230.387)"><stop offset="0" stop-color="#C2B59B"/><stop offset="1" stop-color="#DDC8A4"/></linearGradient><path fill="url(#m)" d="M688.98 50.25c-.87-3.61-2.56-10.36-6.55-11.68-3.72-1.09-8.73-1.96-12.32-.09-3.51-5.93-14.53-8.1-19.77-3.16-2.56-5.74-8.38-5.85-13.92-6.12-5.18-.26-7.02 2.1-9.74 5.86-3.31-4.42-14.34-3.37-18.55-1.02-3.66 2.01-5.54 6.64-8.16 9.74-3.1 3.67-6.11 7.24-8.08 11.67.1.44.19.86.26 1.25h1.24c2.94-6.65 7.91-11.33 11.85-17.28 3.68-5.56 9.83-5.52 15.95-5.13 6.96.14 5.97 11.07 6.11 15.63.15 4.67.26 9.34.55 14 1.36 7.7-.28 15.65-.32 23.41-.02 4.42 2 12.52-4.06 13.48-5.4.85-11.35-.56-12.5-6.61-1.6-8.46-.91-17.39-2.92-25.7l-.01-.03c-1.95-5.91-5.19-14.86-3.53-20.93-2.79 5.99.01 15.4 1.8 21.38 1.76 8.41 1.36 17.15 3.27 25.6.98 4.36 4.33 7.05 8.76 7.4 3.36.27 8.39.37 9.86-3.41 1.48 5.46 6.6 7.11 11.75 7.12 6.92.04 6.62-6.22 7.2-11.44.37 3.77 2.53 6.73 6.13 7.97 2.96 1.01 7.96 1.96 10.48-.49 2.81-2.63 2.69-10.48 3.45-14.15 2.13 2.16 7.56 4.22 10.34 2.18 2.87-2.11 3.41-9.3 4.59-12.56 2.59-5.59 5.25-10.95 6.73-16.98.23-1.14.58-2.32.63-3.49.11-2.14-.03-4.33-.52-6.42-.1-.39.37 1.58 0 0zm-42.24 36.44c-.43 3.7-.73 7.41-1.04 11.11-.25 2.81-.37 5.85-3.65 6.63-6.31 1.5-12.52-1.98-12.92-8.62-.56-5.88-.31-11.76.48-17.61.7-5.19.65-9.89.37-15.11-.15-2.96-.29-5.91-.4-8.87-.22-5.76.58-12.45-2.03-17.72l.23-.26c1.83-2.39 2.8-4.99 6.32-5.26 5.67-.43 12.66.13 14.77 6.17 2.88 8.25.52 19.04.18 27.62.51 7.46-1.46 14.58-2.31 21.92-.43 3.71.22-1.85 0 0zm20.26-5.69c-1.06 5.12-1.68 10.29-2.41 15.47-.65 4.5-2.59 6.18-7.26 5.47-4.26-.65-8.03-2.24-8.72-6.99-.62-3.15-.23-6.91-.1-10.1.5-2.77 1.11-5.51 1.71-8.26 1-4.54.87-8.78 1.08-13.36.38-8.36 2.25-18.11-.33-26.18 2.97-3.16 7.6-2.42 11.45-1.83 4.59.7 6.86 5.11 7.79 9.26 1.5 6.73-.51 14.6-1.06 21.37.18 5.21-1 10.1-2.15 15.15zm20.7-24.72l-.02.28c.19.9-.45 2.32-.62 3.16-1.53 5.89-4.07 11.28-6.29 16.91-1.06 3.51-1.29 8.28-3.08 11.45-1.89 3.34-8.66.41-10.19-2 1.55-7.11 3.47-13.49 3.9-20.82.89-3.59 2.02-6.78 1.02-10.48.52-5.03.67-9.89-1.45-14.63 3.12-1.65 7.77-.74 10.95.17l.28.11c4.26 2.01 5.68 11.85 5.5 15.85z"/></g></g></svg>